<?xml version="1.0" encoding="utf-8"?>
<!-- Generator: Adobe Illustrator 21.1.0, SVG Export Plug-In . SVG Version: 6.00 Build 0)  -->
<svg version="1.1" id="Layer_1" xmlns="http://www.w3.org/2000/svg" xmlns:xlink="http://www.w3.org/1999/xlink" x="0px" y="0px"
	 viewBox="0 0 1100 212" style="enable-background:new 0 0 1100 212;" xml:space="preserve">
<style type="text/css">
	.st0{fill:none;}
	.st1{opacity:0.8;}
	.st2{fill:#3A0076;}
	.st3{opacity:0.33;}
	.st4{fill:#030303;}
	.st5{fill:#FEFEFE;}
	.st6{fill:#FDFDFD;}
	.st7{fill:#010101;}
	.st8{fill:#ADADAD;}
	.st9{fill:#1B1464;stroke:#000000;stroke-miterlimit:10;}
	.st10{fill:#006837;stroke:#006837;stroke-miterlimit:10;}
	.st11{fill:#FEFEFE;stroke:#E9BD00;stroke-miterlimit:10;}
	.st12{fill:#FFFFFF;stroke:#7AC943;stroke-miterlimit:10;}
	.st13{fill:#FDFEFD;stroke:#E9BD00;stroke-miterlimit:10;}
	.st14{fill:#FBFDFB;stroke:#E9BD00;stroke-miterlimit:10;}
	.st15{fill:#FDFDFD;stroke:#E9BD00;stroke-miterlimit:10;}
	.st16{fill:#FEFEFD;stroke:#E9BD00;stroke-miterlimit:10;}
	.st17{fill:#FCFDFC;stroke:#E9BD00;stroke-miterlimit:10;}
	.st18{fill:#FDFDFC;stroke:#E9BD00;stroke-miterlimit:10;}
	.st19{fill:#FCFDFB;stroke:#E9BD00;stroke-miterlimit:10;}
	.st20{fill:#FDFEFC;stroke:#E9BD00;stroke-miterlimit:10;}
	.st21{fill:#FAFCF9;stroke:#E9BD00;stroke-miterlimit:10;}
	.st22{fill:#FBFDFA;stroke:#E9BD00;stroke-miterlimit:10;}
	.st23{fill:#F9FCF8;stroke:#E9BD00;stroke-miterlimit:10;}
	.st24{fill:#F9FCF7;stroke:#E9BD00;stroke-miterlimit:10;}
	.st25{fill:#F8FBF6;stroke:#E9BD00;stroke-miterlimit:10;}
	.st26{fill:#FAFCF8;stroke:#E9BD00;stroke-miterlimit:10;}
	.st27{fill:#F3F9EF;stroke:#E9BD00;stroke-miterlimit:10;}
	.st28{fill:#7AC34E;stroke:#E9BD00;stroke-miterlimit:10;}
	.st29{fill:#F7FBF5;stroke:#E9BD00;stroke-miterlimit:10;}
	.st30{fill:#A1D583;stroke:#E9BD00;stroke-miterlimit:10;}
	.st31{fill:#F5FAF2;stroke:#E9BD00;stroke-miterlimit:10;}
	.st32{fill:#F2F8ED;stroke:#E9BD00;stroke-miterlimit:10;}
	.st33{fill:#EAF5E3;stroke:#E9BD00;stroke-miterlimit:10;}
	.st34{fill:#C7E6B5;stroke:#E9BD00;stroke-miterlimit:10;}
	.st35{opacity:0.5;stroke:#000000;stroke-miterlimit:10;enable-background:new    ;}
	.st36{opacity:0.5;}
	.st37{fill:none;stroke:#000000;stroke-width:2;stroke-miterlimit:10;}
	.st38{fill:none;stroke:#000000;stroke-width:3;stroke-miterlimit:10;}
	.st39{stroke:#000000;stroke-miterlimit:10;}
	.st40{fill:#FFFFFF;stroke:#000000;stroke-miterlimit:10;}
	.st41{fill:#F2F2F2;stroke:#F2F2F2;stroke-miterlimit:10;}
	.st42{fill:none;stroke:#000000;stroke-width:6;stroke-miterlimit:10;stroke-dasharray:12;}
	.st43{fill:none;stroke:#000000;stroke-width:4;stroke-miterlimit:10;}
	.st44{fill:#FFFFFF;stroke:#000000;stroke-width:0.75;stroke-miterlimit:10;}
	.st45{stroke:#000000;stroke-width:0.75;stroke-miterlimit:10;}
	.st46{fill:#662D91;stroke:#662D91;stroke-miterlimit:10;}
	.st47{fill:none;stroke:#999999;stroke-width:2;stroke-miterlimit:10;}
	.st48{stroke:#000000;stroke-width:2;stroke-miterlimit:10;}
	.st49{fill:#FFFFFF;}
	.st50{font-family:'GillSans';}
	.st51{font-size:25px;}
	.st52{opacity:0.7;}
	.st53{opacity:0.6;}
	.st54{font-size:52.09px;}
	.st55{opacity:0.7;fill:#FFFFFF;enable-background:new    ;}
</style>
<title>Our Model——large_Final</title>
<rect class="st0" width="1100" height="212"/>
<g class="st1">
	<path class="st2" d="M158.2,145.6H66.5C35.8,145.6,11,120.7,11,90V70.2c0-30.7,24.9-55.5,55.5-55.6h91.7
		c28.8,0,52.8,22.9,55.6,51.5L200.6,66c-2-21.9-20.4-38.5-42.4-38.5H66.5C43.1,27.6,24,46.7,24,70.2v19.9
		c0,23.5,19.1,42.5,42.6,42.6h91.7c23.5,0,42.6-20.3,42.6-43.8v0.3h13v-0.3C213.8,119.5,188.9,145.6,158.2,145.6z"/>
</g>
<g class="st3">
	<path class="st2" d="M377.1,145.6h-91.7c-30.6,0-56-26.2-56-56.8v0.3h13v-0.3c0,23.5,19.5,43.8,43,43.8h91.7
		c23.5,0,42.5-19.1,42.6-42.6v-0.8h13V90C432.6,120.7,407.7,145.6,377.1,145.6z"/>
</g>
<g class="st3">
	<path class="st2" d="M419.4,66.1c-1.4-22.3-20-38.5-42.4-38.5h-91.7c-22-0.1-40.4,16.7-42.4,38.6H230c1.3-13.7,7.6-27.6,17.8-36.9
		c10.2-9.4,23.6-14.6,37.5-14.6H377c29.2-0.1,53.4,22.4,55.4,51.5L419.4,66.1z"/>
</g>
<g class="st1">
	<path class="st2" d="M597.6,144.8h-91.7c-30.7,0-55.5-24.9-55.6-55.6h13c0,23.5,19.1,42.5,42.6,42.6h91.7
		c23.5,0,42.6-18.5,42.6-41.9h13C653.2,120.5,628.2,144.8,597.6,144.8z"/>
</g>
<g class="st1">
	<path class="st2" d="M640.1,66.6c-1.1-22.7-19.7-39.5-42.5-39.5h-91.7c-22.6,0-41.2,16.5-42.4,39.1h-13.1c1.6-29.4,26.1-52,55.6-52
		h91.7c29.6,0,54.1,23.2,55.5,52.8L640.1,66.6z"/>
</g>
<g class="st3">
	<path class="st2" d="M817.6,145.6h-91.7c-30.7,0-55.5-24.9-55.6-55.6l-0.3-0.1h13l0.3,0.1c0,23.5,19.1,42.5,42.6,42.6h91.7
		c23.5,0,42.5-19.1,42.6-42.6v-1h13v1.1C873.2,120.7,848.3,145.6,817.6,145.6z"/>
</g>
<g class="st3">
	<path class="st2" d="M683.5,66.6l-13,0.3c1.7-29.4,26.1-52.3,55.5-52.3h91.7c29.2,0.1,53.4,22.6,55.4,51.7L860,66.2
		c-1.5-22.2-20.1-38.6-42.4-38.6h-91.7C703.4,27.6,684.8,44.2,683.5,66.6z"/>
</g>
<g class="st1">
	<path class="st2" d="M1036.4,145.6h-91.7c-30.7,0-55.5-24.9-55.6-55.6v-1h13v1.1c0,23.5,19.1,42.5,42.6,42.6h91.7
		c23.5,0,42.5-19.1,42.6-42.6V70.2c0-23.5-19.1-42.5-42.6-42.6h-91.7c-22.3,0-40.9,16.4-42.4,38.6l-13.1,0.2
		c2.1-29.1,26.3-51.7,55.4-51.7h91.7c30.7,0,55.5,24.9,55.6,55.6v19.9C1092,120.7,1067.1,145.6,1036.4,145.6z"/>
</g>
<path class="st4" d="M153.9,68.1c-0.4-2.3-1.1-4.6-2.1-6.7c-1.9-3.8-4.5-6.9-8.6-8.4c-1.3-0.4-2.6-0.7-3.9-0.8
	c0.7-3.1,0.4-6-1.5-8.5c-0.3-0.4-0.7-0.8-1.3-0.7s-0.8,0.5-0.9,1c-1,2.9-2,5.7-2.9,8.6c-0.1,0.5-0.5,0.8-1,0.8c-1,0-2.1,0-3.1,0
	c-0.5,0-0.7-0.2-0.8-0.7c-1-2.8-2-5.6-3-8.5c-0.2-0.6-0.3-1.1-1-1.3s-1.1,0.4-1.5,0.9c-1.6,2.2-2.2,5-1.5,7.7
	c0.1,0.6,0.1,0.7-0.5,0.8c-2.8,0.3-5.4,1.4-7.4,3.3c-3.8,3.5-5.6,8-6.4,12.9c-0.2,1.1,0.3,1.5,1.4,1.5c2.1-0.1,4.2-0.5,6.2-1.3
	c0,0.3-0.1,0.5-0.1,0.6c-0.7,2.9-1,5.9-0.9,8.9c-0.1,3.2,0.8,6.4,2.5,9.2c0.5,0.7,1.4,1.3,1.5,2s-0.6,1.6-0.8,2.4
	c-1.6,5.4-1.9,11.1-1,16.6c0.8,4.9,3.4,9.4,7.4,12.4c0.6,0.5,1.3,0.8,2.1,0.7c1.4-0.1,2.7,0,4.1,0c1.1,0,1.4-0.3,1.4-1.5
	c0-3.1,0-6.2-0.1-9.3c0-0.7,0.1-1,0.9-1s0.6,0.6,0.6,0.9c0,3.1,0,6.2,0.1,9.3c0,1.1,0.3,1.4,1.4,1.4c1.4,0,2.9,0,4.3,0
	c0.6,0,1.2-0.2,1.7-0.6c4.7-3.6,7.5-9.1,7.9-15c0.2-3.3,0.1-6.7-0.4-10c-0.2-2.4-0.9-4.8-2.2-6.9c-0.3-0.4,0-0.6,0.2-0.8
	c1-1.2,1.8-2.7,2.2-4.2c1.5-5.2,0.9-10.3-0.2-15.5c0.3-0.1,0.6,0.1,0.8,0.2c1.7,0.6,3.4,0.9,5.2,1C153.8,69.9,154.2,69.5,153.9,68.1
	z M137,46.4c0.5,1.1,0.7,2.4,0.6,3.7c-0.2,2.3-0.4,2.5-2.8,2.8L137,46.4z M123.3,46.4l2.3,6.5c-0.1,0-0.1,0.1-0.2,0.1
	c-2.1-0.2-2.5-0.6-2.7-2.8C122.5,48.9,122.7,47.6,123.3,46.4L123.3,46.4z M127.4,119.5c-0.5-0.1-0.9-0.1-1.4,0
	c-1.4,0.2-2.7-0.4-3.6-1.4c-3-3-4.9-6.8-5.4-11c0-0.2,0-0.4,0-0.6l2.2,1.5c1.3,1.1,3.1,1.3,4.7,0.6c0.2-0.1,0.4-0.1,0.6,0
	c0.9,0.5,1.9,0.9,3,1.1c0.4,0.1,0.5,0.3,0.5,0.6c0,2.9,0,5.8,0,8.6C128,119.4,127.8,119.5,127.4,119.5L127.4,119.5z M144.7,100.1
	c0.2,4.1,0.2,8.1-1.5,12c-1.1,2.5-2.7,4.8-4.7,6.6c-0.5,0.6-1.3,0.8-2.1,0.8c-0.9-0.1-2.1,0.4-2.6-0.2s-0.1-1.7-0.1-2.5
	c0-2.2,0-4.3-0.1-6.5c0-0.6,0.1-0.7,0.7-0.8c0.9-0.2,1.8-0.6,2.6-1.1c0.5-0.3,0.7-0.9,0.5-1.4c0,0,0-0.1-0.1-0.1
	c-0.3-0.6-0.9-0.7-1.6-0.2c-0.9,0.6-1.9,0.9-3,1c-2.1,0.4-4.3,0.2-6.4-0.5c-0.6-0.2-0.9-0.4-0.6-1.2c0.4-1.1,0.3-2.3-0.3-3.3
	c-0.4-0.8-0.6-1.6-0.6-2.5c0-1-0.2-2-0.7-2.8c-0.9-2.2-3.2-3.4-5.5-2.9l-1,0.2c0.2-1.2,0.6-2.4,1-3.5c0.2-0.4,0.3-0.4,0.7-0.2
	c2.6,1.3,5.5,1.8,8.4,1.5c0.6,0,1-0.4,1-1c0,0,0,0,0-0.1c0-0.6-0.4-1-1-1c-0.1,0-0.1,0-0.2,0c-1.8,0.1-3.6-0.1-5.3-0.5
	c-1.5-0.5-2.8-1.3-3.9-2.3c-0.6-0.6-0.5-0.9,0-1.4c1.8-1.8,4.1-3,6.6-3.5c5.3-1,10.9-0.5,15.9,1.6c0.8,0.3,1.5,0.7,2.2,1.2
	c0.4,0.3,0.4,0.5,0.1,0.9c-1.6,2.2-4.1,3.6-6.8,3.9c-1,0.1-2.1,0.2-3.1,0.2c-0.8,0-1.3,0.4-1.3,1.1s0.6,1,1.3,1c0.4,0,0.8,0,1.1,0
	c0.9,0,1.8-0.2,2.2,1c0.1,0.3,0.6,0.5,0.9,0.6c0.9,0.3,1.6,1,1.8,1.9c0.2,0.5,0.5,1.1,0.8,1.6c0.7,1.5,2.3,2.4,3.9,2.3
	C144.3,99.7,144.6,99.5,144.7,100.1L144.7,100.1z M149.9,67.4c-4.8-1-8.2-3.7-9.6-8.5c-0.1-0.3-0.1-0.7-0.2-1
	c-0.1-0.6-0.6-0.9-1.2-0.8c-0.6,0.1-0.9,0.6-0.8,1.2c0,0.4,0.1,0.7,0.2,1.1c0.8,3,2.5,5.6,4.9,7.4c0.5,0.3,0.8,0.8,0.9,1.4
	c1.1,3.9,1.5,8,1.2,12c-0.1,1-0.3,2.1-0.6,3.1c-0.1,0.6-0.3,0.6-0.8,0.3c-6.4-3.6-13.9-4.5-21-2.5c-2.4,0.6-4.6,2-6.3,3.9
	c-1.1-2.5-1.6-5.3-1.4-8c0.1-3,0.5-6,1.3-8.9c0.1-0.4,0.4-0.8,0.7-1c2.5-1.9,4.3-4.6,5-7.7c0.1-0.2,0.1-0.4,0.1-0.6
	c0.2-0.7,0-1.2-0.7-1.4s-1.1,0.2-1.3,1c-1.2,5.1-4.5,8-9.5,9.2c-2.2,0.6-2.2,0.5-1.6-1.7c0.8-3.2,2.5-6.2,4.9-8.5
	c2.1-1.9,4.7-3,7.5-3.1c0.9,0,1.8,0.2,2.6,0.5c4.2,1,8.7,0.8,12.8-0.3c1.2-0.3,2.4-0.3,3.5-0.1c0.4,0.1,0.6,0.3,0.4,0.7
	c-0.2,0.7-0.2,1.4-0.2,2.1c-0.1,1.5,1,2.9,2.6,3.1c1,0.2,2,0.7,2.7,1.5c0.6,0.7,1.3,1.4,1.9,2c0.7,0.8,1.6,1.3,2.6,1.4
	c0.5,0,0.5,0.4,0.6,0.7C151.9,67.8,151.8,67.8,149.9,67.4L149.9,67.4z"/>
<path class="st5" d="M150.7,65.2c-1-0.1-2-0.6-2.7-1.4c-0.7-0.7-1.3-1.3-1.9-2c-0.7-0.8-1.7-1.3-2.7-1.5c-1.5-0.2-2.6-1.5-2.6-3.1
	c0-0.7,0-1.4,0.2-2.1c0.1-0.4,0-0.6-0.4-0.7c-1.2-0.2-2.4-0.2-3.5,0.1c-4.2,1.2-8.6,1.3-12.9,0.3c-0.9-0.3-1.7-0.5-2.6-0.5
	c-2.8,0.1-5.4,1.2-7.5,3.1c-2.4,2.3-4.1,5.2-4.9,8.5c-0.6,2.2-0.6,2.2,1.6,1.7c5-1.2,8.3-4.1,9.5-9.2c0.2-0.8,0.6-1.2,1.3-1
	s0.9,0.7,0.7,1.4c0,0.2-0.1,0.4-0.1,0.6c-0.7,3.1-2.5,5.8-5,7.7c-0.3,0.2-0.6,0.6-0.7,1c-0.8,2.9-1.2,5.9-1.3,8.8
	c-0.1,2.7,0.3,5.5,1.4,8c1.7-1.9,3.9-3.2,6.4-3.8c7.1-2,14.6-1.1,21,2.5c0.5,0.3,0.7,0.3,0.8-0.3c0.3-1,0.5-2,0.6-3.1
	c0.3-4-0.1-8.1-1.2-12c-0.1-0.6-0.4-1.1-0.9-1.4c-2.4-1.8-4.2-4.4-4.9-7.4c-0.1-0.4-0.2-0.7-0.2-1.1c-0.1-0.6,0.3-1.1,0.8-1.2
	c0.6-0.1,1.1,0.3,1.2,0.8c0.1,0.3,0.1,0.7,0.2,1c1.4,4.8,4.8,7.5,9.6,8.6c2,0.4,2,0.4,1.4-1.5C151.2,65.6,151.2,65.2,150.7,65.2z
	 M123.4,74.9c-1,0-1.8-0.8-1.9-1.8c0-1,0.8-1.8,1.8-1.9s1.8,0.8,1.9,1.8C125.2,74,124.4,74.9,123.4,74.9z M139.2,73
	c-0.1,0.9-0.8,1.7-1.8,1.9c-1,0-1.9-0.7-1.9-1.8s0.7-1.9,1.8-1.9C138.3,71.3,139.1,72,139.2,73z"/>
<path class="st5" d="M139.3,95.9c-0.4-0.4-0.7-0.9-1-1.4c-0.4-0.8-1.2-1.4-2.1-1.5c-0.4,0-0.8-0.2-1-0.5c-0.6-1.1-1.5-0.7-2.4-0.6
	c-0.4,0.1-0.7,0.1-1.1,0.2c-0.7,0.1-1.2-0.1-1.4-0.8c-0.2-0.7,0.3-1.1,1.1-1.3c1-0.2,2.1-0.4,3.1-0.7c2.6-0.8,4.8-2.6,5.9-5
	c0.2-0.4,0.2-0.7-0.3-0.9c-0.8-0.3-1.6-0.6-2.4-0.8c-5.3-1.1-10.9-0.7-15.9,1.3c-2.4,0.9-4.4,2.5-5.9,4.6c-0.4,0.6-0.4,0.9,0.3,1.4
	c1.3,0.9,2.8,1.4,4.3,1.6c1.8,0.2,3.6,0,5.3-0.4c0.5-0.2,1.1,0.1,1.3,0.6c0,0.1,0,0.1,0,0.2c0.1,0.5-0.2,1.1-0.7,1.2c0,0,0,0-0.1,0
	c-2.8,0.8-5.7,0.8-8.5,0.1c-0.4-0.1-0.6-0.1-0.6,0.4c-0.2,1.2-0.4,2.4-0.4,3.6l1-0.3c2.2-0.9,4.7-0.1,5.9,1.9c0.6,0.8,1,1.7,1.2,2.7
	c0.2,0.9,0.5,1.7,1.1,2.3c0.7,0.9,1.1,2,0.9,3.2c-0.1,0.8,0.2,1,0.8,1c2.1,0.3,4.3,0,6.4-0.7c1-0.3,2-0.8,2.8-1.5
	c0.6-0.5,1.2-0.6,1.6,0c0.4,0.4,0.4,1.1-0.1,1.5c0,0-0.1,0-0.1,0.1c-0.7,0.6-1.5,1.2-2.3,1.5c-0.5,0.2-0.6,0.4-0.5,0.9
	c0.4,2.1,0.8,4.2,1.2,6.3c0.2,0.9,0.1,2,0.6,2.5c0.5,0.4,1.7-0.2,2.6-0.3c0.8-0.1,1.5-0.5,1.9-1.1c1.7-2.2,2.9-4.7,3.5-7.4
	c0.9-4.1,0.2-8.1-0.7-12.1c-0.1-0.6-0.5-0.3-0.7-0.2C142,97.9,140.3,97.3,139.3,95.9z M126.6,89.3c-0.2,0.2-0.5,0.2-0.6,0
	c0,0,0,0,0-0.1c-1-1.6-2.6-1.7-4.4-1.6c-0.4,0.1-0.8,0-0.8-0.4s0.3-0.6,0.8-0.6c1.7-0.1,3.4,0,4.7,1.4c0.2,0.2,0.4,0.4,0.5,0.7
	C126.9,88.8,126.9,89.1,126.6,89.3L126.6,89.3z M129.4,88c0.2-0.9,0.7-1.7,1.5-2.3c0.8-0.6,1.8-1.1,2.8-1.4c0.4-0.1,0.7,0,0.8,0.4
	s-0.2,0.5-0.6,0.6c-1.1,0.2-2.1,0.7-2.9,1.5c-0.3,0.4-0.5,0.8-0.6,1.3c-0.1,0.3-0.3,0.5-0.6,0.5C129.5,88.6,129.3,88.4,129.4,88
	L129.4,88z"/>
<path class="st5" d="M127.4,109.7c-1.1-0.2-2.1-0.5-3-1.1c-0.2-0.1-0.4-0.1-0.6,0c-1.5,0.7-3.4,0.5-4.7-0.6l-2.2-1.5
	c0,0.2,0,0.4,0,0.6c0.5,4.2,2.5,8,5.4,11c0.9,1.1,2.3,1.6,3.6,1.4c0.5-0.1,0.9-0.1,1.4,0c0.4,0,0.6-0.1,0.6-0.6c0-2.9,0-5.8,0-8.6
	C127.9,109.9,127.9,109.7,127.4,109.7z"/>
<path class="st6" d="M125.3,52.9c0.1,0,0.1,0,0.2-0.1l-2.3-6.5c-0.6,1.2-0.8,2.5-0.6,3.8C122.9,52.3,123.2,52.7,125.3,52.9z"/>
<path class="st6" d="M137.6,50c0.2-1.2,0-2.5-0.6-3.6l-2.2,6.5C137.2,52.5,137.4,52.3,137.6,50z"/>
<path class="st7" d="M123.3,71.2c-1,0-1.8,0.9-1.8,1.9s0.9,1.8,1.9,1.8l0,0c1,0,1.8-0.9,1.8-1.9C125.2,72,124.3,71.2,123.3,71.2z
	 M123.3,73.2c-0.1,0-0.2-0.1-0.2-0.2s0.2-0.2,0.2-0.2s0.2,0.1,0.3,0.2C123.5,73.2,123.4,73.3,123.3,73.2L123.3,73.2z"/>
<path class="st7" d="M135.6,73.1c0.1,1,0.9,1.8,1.9,1.8c0.9-0.2,1.7-0.9,1.8-1.9c-0.1-1-0.9-1.7-1.9-1.8
	C136.3,71.3,135.6,72.1,135.6,73.1z M137.6,73.1c0,0.1-0.1,0.2-0.2,0.2c0,0,0,0-0.1,0s-0.2-0.1-0.2-0.2s0.1-0.2,0.2-0.4
	C137.5,72.9,137.6,73,137.6,73.1L137.6,73.1z"/>
<path class="st4" d="M132.7,88.3c0.2-0.5,0.5-0.9,0.9-1.2c0.9-0.6,2-1,3.1-1c0.4,0,0.7-0.2,0.7-0.5s-0.3-0.6-0.7-0.5
	c-1,0.1-2.1,0.4-3,0.8c-0.8,0.4-1.5,1.1-1.8,2c-0.1,0.4-0.1,0.6,0.3,0.8S132.5,88.6,132.7,88.3z"/>
<path class="st4" d="M128.7,87.2c-1-1.6-2.7-1.9-4.3-2.2c-0.4,0-0.8,0-0.9,0.5s0.3,0.5,0.7,0.6c1.7,0.2,3.2,0.6,4,2.3
	c0.1,0.2,0.4,0.4,0.6,0.3c0,0,0,0,0.1,0c0.2-0.1,0.3-0.4,0.2-0.7C128.9,87.7,128.8,87.5,128.7,87.2z"/>
<path class="st8" d="M123.1,73c0.1,0.1,0.1,0.2,0.2,0.2s0.2-0.1,0.3-0.2c-0.1-0.1-0.2-0.2-0.3-0.2S123.2,73,123.1,73z"/>
<path class="st8" d="M137.4,73.2c0.1,0,0.2,0,0.2-0.1c0,0,0,0,0-0.1s-0.1-0.2-0.2-0.5c-0.1,0.2-0.2,0.3-0.2,0.4
	C137.2,73.1,137.3,73.2,137.4,73.2z"/>
<path class="st9" d="M67,59c-0.6-0.5-1.1-1.2-1.5-1.9c-0.8-1.5-1.4-3.2-1.8-4.9c-0.7-2.5-1.1-5.1-1.6-7.7c0-0.3-0.1-0.6-0.2-1
	c-0.1-0.2,0-0.4,0.2-0.5c0,0,0,0,0.1,0c0.3-0.1,0.5,0.1,0.5,0.4c0.2,1.2,0.4,2.4,0.6,3.6c0.5,3,1.3,6,2.4,8.8
	c0.3,0.9,0.8,1.7,1.5,2.3c0.3,0.3,0.8,0.6,1.3,0.7c0.2,0,0.3,0.1,0.3-0.2C68.2,55,67.6,51.5,67,48l-0.9-5.2
	c-0.1-0.3,0.1-0.5,0.3-0.6s0.4,0.2,0.5,0.4c0.7,3.7,1.3,7.4,1.9,11.2c0.3,1.6,0.6,3.2,0.8,4.7c0,0.2,0.1,0.2,0.3,0.1
	c0.4-0.2,0.8-0.6,1-1.1c0.4-0.7,0.6-1.5,0.6-2.3c0.2-2.4,0-4.7-0.3-7.1c-0.3-1.9-0.6-3.9-0.9-5.8c0-0.1,0-0.2,0-0.2
	c0-0.2,0-0.5,0.3-0.5c0.2,0,0.4,0.1,0.5,0.3V42c0.1,0.7,0.2,1.3,0.3,2c0.2,1.5,0.5,3,0.7,4.5c0.3,2.2,0.4,4.5,0.3,6.7
	c-0.1,1-0.3,2.1-0.8,3c0.1,0.1,0.2,0,0.3-0.1c1.9-0.8,3.2-2.6,3.5-4.6c0.3-1.5,0.3-3,0.2-4.5c-0.2-2.5-0.7-4.9-1.1-7.3
	c-0.1-0.4,0-0.7,0.3-0.7c0.2,0,0.4,0.1,0.5,0.3v0.1c0.2,0.9,0.3,1.7,0.5,2.6c0.3,1.5,0.5,2.9,0.7,4.4c0.3,2.1,0.2,4.3-0.4,6.3
	c-0.8,2.4-2.8,4.1-5.2,4.7c-0.5,0.1-0.5,0.1-0.4,0.6c0.1,0.3,0.1,0.6,0.2,0.9c0,0.3,0.2,0.6,0.5,0.7c2.8,1,5.6,1.9,8.4,2.9
	c0.2,0.1,0.3,0,0.4-0.2c1.5-3,3-5.9,4.5-8.9c0.4-0.8,1.1-1.3,2-1.2c5.1,0,10.2,0,15.4,0c0.9-0.1,1.7,0.4,2,1.3
	c1.7,3.8,3.4,7.5,5.1,11.3s3.6,7.8,5.4,11.7c0.3,0.5,0.3,1,0.1,1.5c-0.1,0.1,0,0.2,0.1,0.2c2.8,1.2,4.1,3.7,4.7,6.5
	c0.3,1.2,0.4,2.5,0.4,3.8c0,0.2-0.1,0.3-0.3,0.3c-0.7,0-0.7,0-0.7,0.7c-0.1,1.3-0.3,2.6-0.4,3.9c-0.1,1-0.2,2.1-0.3,3.1
	c-0.1,1.3-0.3,2.6-0.4,3.8c-0.1,0.6-0.1,1.2-0.2,1.8s0,0.5-0.5,0.5c-2.8,0-5.7,0-8.6,0c-0.3,0-0.4-0.1-0.4-0.4
	c-0.1-1.3-0.3-2.6-0.4-4s-0.2-2.5-0.4-3.8s-0.3-2.6-0.4-3.8c-0.1-0.6-0.1-1.1-0.2-1.7c0-0.2-0.1-0.3-0.3-0.3c-0.7,0-0.7,0-0.7-0.7
	c0-2.3,0.6-4.6,1.7-6.7c0.6-1,1.4-1.9,2.3-2.5c0.2-0.2,0.1-0.3,0.1-0.5l-4.9-10.7c-0.2-0.6-0.5-1.1-0.8-1.6c0,0.1,0,0.2,0,0.3
	c0,5.7,0,11.4,0,17.1c-0.1,11.2,0,22.4-0.1,33.6c0.1,0.8-0.5,1.5-1.3,1.5c-0.1,0-0.1,0-0.2,0c-2,0-3.9,0-5.9,0
	c-0.8,0-1.4-0.6-1.5-1.4c0-0.1,0-0.1,0-0.2c0-10.2,0-20.5,0-30.7c0-0.3-0.1-0.5-0.4-0.4c-0.4,0-0.8,0-1.2,0c-0.2,0-0.3,0.1-0.3,0.3
	c0,0.1,0,0.2,0,0.2c0,10.2,0,20.4,0,30.6c0,0.3,0,0.5-0.1,0.8c-0.2,0.6-0.7,1-1.4,0.9h-5.7c-0.8,0-1.5-0.6-1.5-1.4V119c0-1,0-2,0-3
	c0-5,0-10,0-15c0-4.8,0.1-9.5,0-14.2c-0.1-6.7,0-13.3-0.1-20c0-0.1,0-0.2-0.1-0.2c-0.3,0.5-0.5,1-0.8,1.6c-0.4,1-1.3,1.7-2.4,1.7
	s-2.2-0.2-3.2-0.7L71.3,67c0.1,0.5,0.2,1,0.2,1.4l1,6l1,5.9l0.9,5.6l0.9,5.6l0.9,5.6l1,6l0.9,5.6l0.9,5.6c0.2,0.9,0.3,1.7,0.4,2.6
	c0.1,0.5-0.1,0.9-0.6,1.1l0,0c-0.4,0.1-0.9-0.2-1-0.6v-0.1c-0.3-1.7-0.6-3.4-0.9-5.2l-0.9-5.6l-0.9-5.6l-0.9-5.6l-1-6
	c-0.3-1.9-0.6-3.7-0.9-5.6c-0.3-2-0.7-4-1-6l-1-6c-0.3-1.7-0.6-3.4-0.8-5.1c0-0.2-0.1-0.3-0.3-0.3l-1.8-0.6c-0.8-0.2-1.3-1.1-1-1.9
	v-0.1c0.2-0.6,0.4-1.3,0.7-1.9c0.2-0.5,0.7-0.9,1.2-1c0.2,0,0.2-0.1,0.2-0.3c0-0.1-0.1-0.3-0.1-0.4c-0.1-0.5-0.1-0.5-0.6-0.5
	c-3.3,0.4-6.4-1.5-7.6-4.5c-0.8-1.7-1.3-3.6-1.7-5.4c-0.4-1.8-0.6-3.7-1-5.5c-0.1-0.2,0.1-0.5,0.3-0.5c0,0,0,0,0.1,0
	c0.3,0,0.4,0.2,0.5,0.4c0.2,1.3,0.4,2.5,0.6,3.8c0.3,2.4,1,4.7,1.9,6.8c0.6,1.4,1.7,2.7,3,3.5C65.1,58.7,66,59,67,59z"/>
<path class="st10" d="M86.6,54c-1,0.1-1.9-0.6-2.2-1.5c-0.2-0.4-0.3-0.9-0.4-1.4l1,0.5c0.2,0.1,0.4,0.2,0.7,0.2
	c0.4,0.1,0.6,0,0.6-0.5c0.2-1.9,0.3-3.8,0.4-5.7c0.3-4,3.8-7,7.8-6.8c3.3,0.2,6,2.6,6.7,5.9c0.1,0.8,0.2,1.5,0.1,2.3
	c0,1.5,0.2,2.9,0.4,4.4c0,0.3,0.2,0.5,0.6,0.4c0.5-0.2,1-0.4,1.5-0.7l0.1-0.1c0.1,1.5-1,2.8-2.5,2.9l0,0c-0.6-0.1-1.2-0.4-1.4-1
	c-0.3-0.4-0.4-0.9-0.4-1.5c0-0.2,0-0.3,0-0.5c-1.4,1.6-3.5,2.5-5.6,2.5s-4.1-0.9-5.5-2.5c0,0.6-0.1,1.2-0.3,1.8
	C87.9,53.5,87.3,54,86.6,54z"/>
<path class="st11" d="M86.6,54c1.6-0.4,1.8-1.7,1.8-3.2c2.6,3.1,7.2,3.5,10.3,1c0.3-0.3,0.7-0.6,1-1c0,1.4,0.2,2.7,1.8,3.1
	c-0.1,0.1-0.2,0.1-0.4,0.1H87C86.9,54,86.7,54.1,86.6,54z"/>
<path class="st12" d="M112.5,88.9h-5.9c-0.3,0-0.4,0-0.3,0.3c0,0.3,0.1,0.5,0.1,0.8c0,0.2,0.1,0.3-0.2,0.3s-0.4,0.1-0.4-0.3
	c0.1-0.7,0.1-1.3,0.2-2c0.2-1.6,0.7-3.2,1.4-4.7c0.5-0.9,1.3-1.8,2.1-2.4c0.2-0.1,0.3-0.2,0.5,0c0.4,0.5,1.1,0.7,1.7,0.5
	c0.8-0.3,1.6-0.6,2.4-1.1c0.2-0.1,0.3,0,0.4,0c1.3,0.6,2.4,1.5,3.2,2.8c0.8,1.4,1.4,3,1.6,4.7c0.1,0.7,0.1,1.4,0.2,2.2
	c0,0.2,0,0.3-0.3,0.3s-0.3-0.1-0.3-0.3s0-0.5,0.1-0.7c0.1-0.4-0.1-0.4-0.4-0.4C116.4,88.9,114.4,88.9,112.5,88.9z"/>
<path class="st12" d="M119,90.6L119,90.6c-0.2,0-0.3,0-0.4-0.2c-0.1-0.1-0.1-0.3-0.1-0.4s0-0.2,0-0.3c0-0.1,0-0.3,0-0.4s0-0.1,0-0.2
	l0,0c-0.1,0-0.2,0-0.2,0h-11.8v0.1c0,0.2,0.1,0.4,0.1,0.6c0,0.1,0,0.1,0,0.2l0,0c0,0.1,0,0.3-0.1,0.4s-0.2,0.1-0.3,0.1H106
	c-0.1,0-0.3,0-0.4-0.1s-0.1-0.3-0.1-0.4c0-0.3,0-0.5,0.1-0.8s0-0.8,0.1-1.2c0.2-1.7,0.7-3.3,1.5-4.7c0.5-1,1.3-1.8,2.2-2.5
	c0.2-0.2,0.5-0.2,0.6,0l0.1,0.1c0.3,0.4,0.9,0.6,1.4,0.4l0.6-0.2c0.6-0.2,1.2-0.5,1.7-0.9c0.2-0.1,0.4-0.1,0.5,0l0,0
	c1.4,0.6,2.5,1.6,3.2,2.9c0.9,1.5,1.4,3.1,1.6,4.8c0.1,0.5,0.1,1,0.1,1.5c0,0.2,0,0.4,0,0.7C119.2,90.2,119.2,90.4,119,90.6
	C119.2,90.5,119.1,90.5,119,90.6z M118.9,90.1h0.2c0,0,0,0,0-0.1c0-0.2,0-0.5,0-0.7c0-0.5-0.1-1-0.1-1.5c-0.2-1.6-0.7-3.2-1.5-4.6
	c-0.7-1.2-1.7-2.2-3-2.7h-0.1h-0.1l0,0c-0.6,0.4-1.2,0.8-1.9,1l-0.6,0.2c-0.7,0.3-1.5,0.1-1.9-0.5c0,0,0-0.1-0.1-0.1l-0.1,0.1
	c-0.9,0.6-1.6,1.4-2.1,2.3c-0.8,1.4-1.3,3-1.4,4.6c0,0.4-0.1,0.8-0.1,1.2s0,0.5-0.1,0.8c0,0,0,0,0,0.1h0.2V90c0-0.1,0-0.1,0-0.2
	c0-0.2,0-0.3-0.1-0.5c-0.1-0.1-0.1-0.3,0-0.4s0.3-0.2,0.5-0.2h11.7c0.2,0,0.4,0,0.6,0.2c0.1,0.2,0.1,0.3,0.1,0.5c0,0.1,0,0.2,0,0.4
	C119,89.9,119,90,118.9,90.1C119,90.1,119,90.1,118.9,90.1L118.9,90.1z"/>
<path class="st11" d="M81.9,65h2.7c0.2,0,0.3,0.1,0.3,0.3c0,1.1,0,2.2,0,3.2c0,0.1,0.1,0.3-0.1,0.3s-0.1-0.2-0.1-0.2
	c0-0.7,0-1.3,0-2c0-0.2,0.1-0.4-0.1-0.4s-0.3,0.2-0.3,0.4c-0.3,0.7-0.7,1.3-1,2c-0.1,0.2-0.3,0.3-0.5,0.3c-1.1,0-2.2,0-3.3,0
	c-0.2,0-0.3-0.1-0.3-0.3c0-1.1,0-2.1,0-3.2c0-0.2,0.1-0.3,0.3-0.3C80.2,65,81.1,65,81.9,65L81.9,65z"/>
<path class="st11" d="M103.4,65.6c0-0.6,0-0.6,0.6-0.6c1.1,0,2.3,0,3.4,0c0.2,0,0.4,0.1,0.4,0.3c0.2,0.6,0.6,1.2,0.8,1.8
	c0.1,0.3,0.3,0.7,0.5,1c0,0.1,0.1,0.2,0.1,0.3c0,0.3,0,0.4-0.3,0.4c-1.4,0-2.7,0-4.1,0c-0.2,0-0.4-0.1-0.4-0.3
	c-0.2-0.4-0.4-0.8-0.5-1.2c-0.1-0.2-0.2-0.2-0.3-0.2s-0.1-0.1-0.1-0.1C103.4,66.5,103.4,66,103.4,65.6z"/>
<path class="st11" d="M73.9,65c0.8,0,1.6,0,2.4,0c0.2,0,0.3,0,0.3,0.3c0,1,0,2,0,3c0,0.3-0.1,0.3-0.3,0.2c-1.5-0.5-3.1-1.1-4.6-1.6
	c-0.2,0-0.3-0.2-0.3-0.4c-0.1-0.4-0.1-0.9-0.2-1.3c0-0.2,0.1-0.2,0.2-0.2H73.9L73.9,65z"/>
<path class="st11" d="M81.1,62.6l0.3-0.6c0.5-1,1-2,1.5-3c0.1-0.2,0.2-0.3,0.4-0.2c0.4,0,0.9,0,1.4,0c0.2,0,0.3,0,0.3,0.2
	c0,1.1,0,2.1,0,3.2c0,0.3-0.1,0.4-0.4,0.4C83.3,62.6,82.2,62.6,81.1,62.6z"/>
<path class="st11" d="M109.2,73.1c0,0.6,0,1.1,0,1.6c0,0.2-0.1,0.3-0.3,0.3c-0.2,0-0.3,0-0.5,0c-0.8,0.2-1.2-0.2-1.5-0.9
	c-0.3-0.9-0.7-1.7-1.2-2.6c-0.1-0.2-0.1-0.3,0.2-0.3h3.1c0.2,0,0.2,0.1,0.2,0.3C109.2,72,109.2,72.5,109.2,73.1L109.2,73.1z"/>
<path class="st11" d="M97.9,60.7c0,0.5,0,1.1,0,1.6c0,0.2,0,0.3-0.3,0.3c-0.7,0-1.4,0-2.1,0c-0.2,0-0.3-0.1-0.3-0.3
	c0-1.1,0-2.1,0-3.2c0-0.2,0-0.3,0.2-0.3c0.7,0,1.5,0,2.2,0c0.2,0,0.2,0.1,0.2,0.3C97.9,59.6,97.9,60.2,97.9,60.7z"/>
<path class="st11" d="M106.6,62.6h-3c-0.2,0-0.2-0.1-0.2-0.2c0-1.1,0-2.2,0-3.3c0-0.2,0-0.2,0.2-0.2h0.1c0.4,0,0.8-0.2,1.2,0
	s0.4,0.7,0.5,1c0.4,0.8,0.7,1.6,1.1,2.4C106.5,62.4,106.6,62.5,106.6,62.6z"/>
<path class="st11" d="M87.2,60.7c0-0.5,0-1.1,0-1.6c0-0.2,0-0.2,0.2-0.2c0.5,0,1,0,1.5,0c0.2,0,0.3,0,0.3,0.2c0,1.1-0.1,2.2-0.2,3.4
	c0,0.2-0.1,0.2-0.3,0.2c-0.4,0-0.9,0-1.3,0c-0.2,0-0.3,0-0.3-0.2C87.2,61.8,87.2,61.2,87.2,60.7L87.2,60.7z"/>
<path class="st11" d="M92.8,60.7c0,0.5,0,1.1,0,1.6c0,0.2-0.1,0.3-0.3,0.3c-0.4,0-0.8,0-1.2,0c-0.2,0-0.2-0.1-0.2-0.3
	c0-1.1,0-2.2,0-3.3c0-0.2,0-0.2,0.2-0.2c0.4,0,0.8,0,1.2,0c0.2,0,0.2,0.1,0.2,0.3C92.8,59.6,92.8,60.2,92.8,60.7z"/>
<path class="st11" d="M96.6,54.4h1c0.2,0,0.3,0,0.3,0.2c0,0.5,0,1,0,1.6c0,0.1,0,0.2-0.2,0.2c-0.8,0-1.5,0-2.3-0.1
	c-0.2,0-0.2-0.1-0.2-0.3c0-0.5,0-1,0-1.4c0-0.2,0-0.3,0.3-0.3S96.3,54.4,96.6,54.4z"/>
<path class="st13" d="M73.8,64c0.8,0,1.7,0,2.5,0c0.3,0,0.3,0.1,0.3,0.4s0,0.3-0.3,0.3c-1.6,0-3.3,0-4.9,0c-0.2,0-0.4-0.2-0.4-0.4
	v-0.1c0-0.1,0.2-0.1,0.2-0.1L73.8,64L73.8,64z"/>
<path class="st11" d="M89,54.4c0,0.6,0,1.2,0.1,1.7c0,0.2,0,0.3-0.3,0.3c-0.5,0-0.9,0-1.4,0c-0.2,0-0.2,0-0.2-0.2c0-0.6,0-1.2,0-1.8
	C87.8,54.3,88.4,54.3,89,54.4z"/>
<path class="st11" d="M92.8,54.4c0,0.6,0,1.2,0,1.8c0,0.2-0.1,0.2-0.2,0.2c-0.4,0-0.8,0-1.2,0c-0.2,0-0.2-0.1-0.2-0.2
	c0-0.6,0-1.2,0-1.8C91.7,54.3,92.3,54.3,92.8,54.4z"/>
<path class="st13" d="M80.1,64.7C80.3,64,80.3,64,81,64c1.2,0,2.4,0,3.6,0c0.3,0,0.3,0.1,0.3,0.4s-0.1,0.3-0.3,0.3
	C83,64.7,81.6,64.7,80.1,64.7z"/>
<path class="st13" d="M101.1,60.7c0,0.5,0,1.1,0,1.6c0,0.2,0,0.3-0.3,0.3s-0.4,0.1-0.4-0.3c-0.1-1.1-0.1-2.2-0.2-3.3
	c0-0.2,0-0.2,0.2-0.2c0.7,0,0.7-0.1,0.7,0.6C101.1,59.8,101.1,60.2,101.1,60.7z"/>
<path class="st14" d="M107,69.1c0.7,0,1.3,0,2,0c0.3,0,0.3,0.2,0.3,0.3s0,0.3-0.3,0.3c-1.2,0-2.5,0-3.7,0c-0.2,0-0.5-0.4-0.5-0.6
	S105,69,105,69L107,69.1z"/>
<path class="st13" d="M107.6,64.7h-3.9c-0.2,0-0.3-0.1-0.2-0.2s-0.1-0.4,0.2-0.4h3.4c0.1,0,0.2,0.1,0.2,0.2L107.6,64.7z"/>
<path class="st11" d="M76,63.6h-4.9c-0.4,0-0.2-0.3-0.2-0.5S71,63,71.1,63c1,0,2,0,3,0c0.6,0.1,1.1,0.3,1.7,0.5L76,63.6z"/>
<path class="st15" d="M103.1,60.7c0,0.5,0,1.1,0,1.6c0,0.2,0,0.3-0.2,0.3s-0.4,0.1-0.4-0.2c0-1.1,0-2.3,0-3.4c0-0.3,0.2-0.2,0.4-0.2
	s0.3,0,0.3,0.2C103.1,59.6,103.1,60.2,103.1,60.7z"/>
<path class="st13" d="M86.9,60.7c0,0.6,0,1.1,0,1.7c0,0.2,0,0.3-0.2,0.3s-0.4,0.1-0.4-0.2c0-0.1,0-0.1,0-0.2c0-1,0-2.1,0-3.1
	c0-0.3,0.2-0.3,0.3-0.3s0.4,0,0.4,0.3C86.9,59.6,86.9,60.1,86.9,60.7z"/>
<path class="st13" d="M109.6,73.1c0-0.5,0-1,0-1.6c0-0.2,0.1-0.3,0.3-0.3s0.4,0,0.4,0.3c0,1,0,2,0,3c0,0.2,0.1,0.5-0.3,0.5
	s-0.4-0.1-0.4-0.4C109.6,74.1,109.6,73.6,109.6,73.1z"/>
<path class="st11" d="M80.6,63.6c0.2-0.6,0.2-0.6,0.8-0.6h3.1c0.2,0,0.4,0,0.4,0.3s0,0.4-0.3,0.4c-1.2,0-2.5,0-3.7,0L80.6,63.6z"/>
<path class="st13" d="M77.7,66.9c0,0.5,0,1,0,1.5c0,0.2,0.1,0.4-0.2,0.4s-0.5,0-0.5-0.4c0-0.7,0-1.4,0-2.1c0-0.3,0-0.7,0-1
	s0.2-0.2,0.3-0.2s0.3-0.1,0.3,0.2C77.7,65.8,77.7,66.3,77.7,66.9z"/>
<path class="st11" d="M87.2,68.1c0-0.8,0-1.5,0-2.2c0-0.9,0-0.9,0.9-0.9h0.4C88.4,66.1,87.9,67.2,87.2,68.1z"/>
<path class="st13" d="M86.2,66.9c0-0.6,0-1.1,0-1.6c0-0.3,0.2-0.2,0.3-0.2s0.4-0.1,0.3,0.2c0,1,0,2,0,3.1c0,0.2-0.1,0.4-0.3,0.4
	c-0.2,0.1-0.4,0.1-0.4-0.2C86.2,68,86.2,67.4,86.2,66.9L86.2,66.9z"/>
<path class="st13" d="M103.1,66.8c0,0.5,0,1,0,1.6c0,0.1,0.1,0.3-0.2,0.3s-0.4,0-0.5-0.2c0-0.1,0-0.2,0-0.2c0-1,0-2,0-3
	c0-0.3,0.1-0.3,0.3-0.3s0.4,0,0.4,0.3C103.1,65.8,103.1,66.3,103.1,66.8z"/>
<path class="st16" d="M85.8,60.7c0,0.5,0,1.1,0,1.6c0,0.2-0.1,0.3-0.3,0.3s-0.4-0.1-0.3-0.3c0-0.6,0-1.1,0-1.7s0-1,0-1.6
	c0-0.3,0.2-0.2,0.4-0.3s0.3,0,0.3,0.3C85.9,59.6,85.9,60.1,85.8,60.7L85.8,60.7z"/>
<path class="st11" d="M105.3,70.2c1.2,0,2.5,0,3.8,0c0.3,0,0.2,0.2,0.2,0.3s0,0.3-0.2,0.3c-1.1,0-2.2,0-3.3,0
	C105.3,70.8,105.4,70.4,105.3,70.2L105.3,70.2z"/>
<path class="st11" d="M101.4,60.7c0-0.5,0-1.1,0-1.6c0-0.2,0.1-0.3,0.3-0.3s0.4-0.1,0.4,0.3c0,1.1,0,2.2,0,3.3
	c0,0.3-0.2,0.2-0.4,0.2s-0.3,0-0.3-0.3C101.4,61.8,101.4,61.2,101.4,60.7L101.4,60.7z"/>
<path class="st13" d="M93.9,60.7c0,0.5,0,1.1,0,1.6c0,0.2,0,0.3-0.3,0.3s-0.4,0-0.4-0.3c0-1.1,0-2.2,0-3.3c0-0.2,0.2-0.2,0.3-0.2
	s0.3-0.1,0.3,0.2C93.9,59.6,93.9,60.1,93.9,60.7z"/>
<path class="st17" d="M94.9,60.7c0,0.5,0,1.1,0,1.6c0,0.1,0,0.3-0.2,0.2s-0.4,0.1-0.4-0.2c0-0.1,0-0.2,0-0.3c0-1,0-2,0-3
	c0-0.2,0.1-0.3,0.3-0.3s0.3,0,0.3,0.3C94.9,59.6,94.9,60.2,94.9,60.7L94.9,60.7z"/>
<path class="st11" d="M85.2,66.8c0-0.5,0-1.1,0-1.6c0-0.3,0.2-0.2,0.3-0.2s0.3-0.1,0.3,0.2c0,1.1,0,2.2,0,3.3c0,0.3-0.2,0.2-0.3,0.2
	s-0.4,0.1-0.4-0.2C85.2,68,85.2,67.4,85.2,66.8z"/>
<path class="st11" d="M78.7,66.9c0,0.6,0,1.1,0,1.6c0,0.2-0.1,0.3-0.3,0.2S78,68.8,78,68.5c0-1.1,0-2.2,0-3.3c0-0.3,0.2-0.2,0.3-0.2
	s0.3,0,0.3,0.2C78.7,65.8,78.7,66.3,78.7,66.9z"/>
<path class="st11" d="M105.3,63.6c-0.5,0-1.1,0-1.6,0c-0.3,0-0.2-0.2-0.2-0.3s-0.1-0.3,0.2-0.3c1,0,2,0,3,0c0.2,0,0.5,0.4,0.4,0.6
	s-0.1,0.1-0.2,0.1L105.3,63.6z"/>
<path class="st18" d="M102.1,68.4c-0.4-0.3-0.7-0.7-0.7-1.2c0-0.6,0-1.3,0-1.9c0-0.3,0.2-0.3,0.4-0.3s0.3,0,0.3,0.2
	C102,66.3,102.1,67.3,102.1,68.4z"/>
<path class="st13" d="M110.6,71.4c0.2,0.6,0.7,1.1,0.6,1.8c0,0.5,0,1,0,1.6c0,0.2-0.1,0.3-0.2,0.2s-0.4,0.1-0.4-0.2
	C110.6,73.7,110.6,72.5,110.6,71.4z"/>
<path class="st13" d="M100.1,55.4c0-0.1,0-0.3,0-0.4c0-0.6,0.1-0.7,0.8-0.6c0.2,0,0.2,0.1,0.2,0.2c0,0.5,0,1,0,1.5
	c0,0.2-0.1,0.3-0.3,0.3c-0.7,0-0.6,0.1-0.6-0.6C100.1,55.7,100.1,55.5,100.1,55.4z"/>
<path class="st18" d="M96.6,63.6h-1.1c-0.2,0-0.3,0-0.2-0.2S95.2,63,95.5,63c0.8-0.1,1.5,0,2.3,0c0.3,0,0.2,0.3,0.2,0.4
	s0,0.3-0.2,0.2C97.3,63.6,97,63.6,96.6,63.6z"/>
<path class="st13" d="M96.6,58.4c-0.4,0-0.7,0-1.1,0s-0.2-0.2-0.2-0.3s0-0.3,0.2-0.3c0.7,0,1.5,0,2.2,0c0.3,0,0.2,0.2,0.2,0.3
	s0.1,0.3-0.2,0.3S96.9,58.4,96.6,58.4z"/>
<path class="st13" d="M96.6,56.8c0.4,0,0.7,0,1.1,0s0.2,0.2,0.2,0.3s0.1,0.3-0.2,0.3c-0.7,0-1.5,0-2.2,0c-0.3,0-0.2-0.2-0.2-0.3
	s0-0.3,0.2-0.3S96.2,56.8,96.6,56.8z"/>
<path class="st19" d="M82.4,69.1c-0.6,0.5-1.4,0.7-2.1,0.5c-0.4,0-0.8-0.1-1.2-0.2c-0.1,0-0.2-0.1-0.2-0.2s0.1-0.1,0.2-0.1
	L82.4,69.1z"/>
<path class="st17" d="M86.9,55.4c0,0.3,0,0.5,0,0.8s0,0.3-0.2,0.2s-0.4,0.1-0.5-0.2c0-0.5,0-1.1,0-1.7c0-0.3,0.3-0.1,0.4-0.2
	s0.3,0,0.3,0.2S86.9,55.1,86.9,55.4z"/>
<path class="st19" d="M102,55.4c0,0.3,0,0.5,0,0.8s-0.2,0.3-0.4,0.3s-0.3,0-0.3-0.3c0-0.5,0-1,0-1.5c0-0.2,0.1-0.2,0.3-0.2
	s0.4-0.1,0.4,0.2S102,55.1,102,55.4L102,55.4z"/>
<path class="st19" d="M88.2,58.4c-0.2,0-0.5,0-0.8,0s-0.3-0.1-0.2-0.2s-0.1-0.4,0.2-0.4H89c0.3,0,0.2,0.2,0.2,0.4s0.1,0.3-0.2,0.3
	S88.5,58.4,88.2,58.4z"/>
<path class="st18" d="M109.6,79.4c0-0.7,0-1.2,0-1.8c0-0.3,0.2-0.2,0.3-0.2s0.3-0.1,0.3,0.2c0,0.4,0,0.9,0,1.3
	S109.8,79.2,109.6,79.4z"/>
<path class="st13" d="M93.2,55.4c0-0.2,0-0.4,0-0.7s0.2-0.5,0.5-0.3c0.1,0,0.1,0.1,0.1,0.2c0,0.5,0,1.1,0,1.6c0,0.3-0.2,0.2-0.4,0.2
	s-0.2-0.1-0.2-0.3S93.2,55.7,93.2,55.4z"/>
<path class="st16" d="M88.2,57.4c-0.2,0-0.5,0-0.7,0s-0.2-0.2-0.2-0.3s-0.1-0.4,0.2-0.4c0.5,0,1,0,1.5,0s0.2,0.2,0.3,0.4
	s-0.1,0.3-0.3,0.2S88.4,57.4,88.2,57.4z"/>
<path class="st19" d="M102.4,55.4c0-0.2,0-0.5,0-0.7s0.1-0.2,0.3-0.2s0.5,0.3,0.4,0.6s0,0.6,0,0.9c0,0.1,0,0.3-0.2,0.3
	s-0.4,0.1-0.4-0.2S102.4,55.6,102.4,55.4z"/>
<path class="st18" d="M94.2,55.4c0-0.2,0-0.4,0-0.6c0-0.4,0-0.4,0.4-0.4c0.2,0,0.2,0.1,0.2,0.2c0,0.5,0,1,0,1.6
	c0,0.2-0.1,0.3-0.3,0.2s-0.3,0-0.3-0.3S94.3,55.6,94.2,55.4L94.2,55.4z"/>
<path class="st18" d="M111.6,78.4c-0.1-1-0.1-1,0.9-1.1h0.7c0.1,0,0.2,0,0.2,0.1s-0.1,0.1-0.1,0.1L111.6,78.4z"/>
<path class="st16" d="M85.9,54.5c0,0.6,0,1.2,0,1.8c0,0.2-0.1,0.2-0.3,0.2s-0.4,0.1-0.4-0.2s0-0.9,0-1.3c0-0.1,0.1-0.2,0.2-0.3
	L85.9,54.5z"/>
<path class="st19" d="M84,58.4c-0.1,0-0.2,0-0.3,0c-0.2,0-0.4,0.1-0.5-0.1s0.3-0.6,0.6-0.6s0.6,0,0.8,0s0.2,0.2,0.2,0.3
	s0.1,0.4-0.2,0.3S84.2,58.4,84,58.4z"/>
<path class="st11" d="M88.1,63h0.4c0.6,0,0.4,0,0.4,0.5c0,0.1-0.1,0.2-0.2,0.2h-1.3c-0.3,0-0.2-0.2-0.2-0.4s0-0.3,0.2-0.3H88.1z"/>
<path class="st13" d="M92,58.4c-0.2,0-0.3,0-0.5,0c-0.3,0-0.4-0.1-0.4-0.4s0-0.3,0.2-0.3c0.4,0,0.8,0,1.2,0s0.2,0.2,0.2,0.3
	s0.1,0.3-0.2,0.3S92.2,58.4,92,58.4z"/>
<path class="st11" d="M92,63.6c-0.2,0-0.3,0-0.5,0c-0.3,0-0.4-0.1-0.3-0.3s0-0.3,0.3-0.3c0.4,0,0.8,0,1.2,0c0.3,0,0.2,0.2,0.2,0.3
	s0,0.3-0.2,0.3C92.4,63.6,92.2,63.6,92,63.6z"/>
<path class="st19" d="M107.6,75.3c0.5,0,1,0,1.4,0c0.3,0,0.2,0.2,0.2,0.3s0.1,0.4-0.2,0.4h-0.6C107.8,76,107.8,76,107.6,75.3z"/>
<path class="st13" d="M92,57.4h-0.5c-0.3,0-0.5-0.2-0.3-0.5c0-0.1,0.1-0.1,0.2-0.1h1.3c0.3,0,0.2,0.2,0.2,0.3s0.1,0.3-0.2,0.3H92
	L92,57.4z"/>
<path class="st13" d="M88,64h0.3c0.5,0,0.5,0,0.4,0.5c0,0.1-0.1,0.2-0.2,0.2l0,0c-0.3,0-0.7,0-1,0c-0.2,0-0.3-0.1-0.2-0.2
	s-0.1-0.4,0.2-0.4L88,64z"/>
<path class="st19" d="M110.6,78.2c0-0.1,0-0.3,0-0.4c0-0.3,0.1-0.4,0.4-0.4s0.3,0,0.3,0.3s0,0.5,0,0.8s0,0.2-0.1,0.2
	s-0.3,0.3-0.5,0.2s0-0.3-0.1-0.5C110.6,78.3,110.6,78.2,110.6,78.2L110.6,78.2z"/>
<path class="st17" d="M73.1,62.6c-0.7,0.1-1.3,0.1-2,0c-0.1,0-0.2,0-0.2-0.1c-0.1-0.2-0.1-0.4,0-0.6c0-0.1,0.2,0,0.3,0L73.1,62.6z"
	/>
<path class="st13" d="M113.3,77h-1.5c-0.2,0-0.2-0.1-0.2-0.3s-0.1-0.4,0.2-0.4c0.3,0,0.7,0,1,0C113.2,76.4,113.1,76.8,113.3,77z"/>
<path class="st20" d="M104.8,58.4h-1.1c-0.2,0-0.2-0.1-0.2-0.2s-0.1-0.4,0.2-0.4c0.2,0,0.5,0,0.7,0
	C104.7,57.8,104.6,58.2,104.8,58.4z"/>
<path class="st21" d="M112.2,76H112c-0.3,0-0.4-0.1-0.4-0.3s0.1-0.3,0.3-0.3s0.6,0,0.7,0.4c0.1,0.2,0.1,0.3-0.2,0.3L112.2,76z"/>
<path class="st13" d="M108,76.4h1.1c0.3,0,0.1,0.2,0.2,0.3s0.1,0.3-0.2,0.3c-0.2,0-0.4,0-0.6,0C108.2,76.9,108.2,76.6,108,76.4z"/>
<path class="st13" d="M83.7,57.4c0.2-0.6,0.2-0.6,0.8-0.6c0.4,0,0.5,0.2,0.4,0.5c0,0.1-0.1,0.1-0.2,0.1H84
	C83.9,57.4,83.8,57.4,83.7,57.4z"/>
<path class="st18" d="M109.2,78.8l-0.6-1.4c0,0,0-0.1,0.1-0.1c0.6,0,0.6,0,0.6,0.6L109.2,78.8L109.2,78.8z"/>
<path class="st19" d="M100.5,57.4c-0.2,0-0.4,0.1-0.4-0.3s0.1-0.3,0.3-0.3h0.2c0.2,0,0.4,0,0.4,0.3S100.8,57.4,100.5,57.4
	L100.5,57.4z"/>
<path class="st22" d="M100.6,57.8c0.1,0.1,0.4-0.2,0.4,0.2s-0.1,0.5-0.4,0.4c-0.2,0-0.5,0.2-0.5-0.2S100.1,57.8,100.6,57.8z"/>
<path class="st13" d="M69.4,65.5C69.5,65.6,69.5,65.6,69.4,65.5c0,0.2,0.1,0.4-0.1,0.5c-0.2,0-0.3,0-0.5-0.1s-0.1-0.2-0.1-0.4
	c0-0.1,0.1-0.3,0.2-0.4c0.1-0.2,0.2-0.1,0.3-0.1s0.1,0.1,0.1,0.2S69.4,65.4,69.4,65.5z"/>
<path class="st21" d="M111.7,73.6l0.6,1.4h-0.1c-0.5,0-0.5,0-0.5-0.5C111.6,74.2,111.6,73.9,111.7,73.6L111.7,73.6z"/>
<path class="st23" d="M102.4,64.3c-0.1-0.3,0.1-0.4,0.3-0.3s0.4,0,0.4,0.3s-0.1,0.4-0.4,0.4S102.3,64.6,102.4,64.3z"/>
<path class="st24" d="M86.5,64.7c-0.3,0.1-0.3-0.1-0.3-0.3s0.1-0.4,0.4-0.4s0.3,0.1,0.3,0.4S86.8,64.7,86.5,64.7z"/>
<path class="st25" d="M84.9,55.2c0,0.3,0,0.6,0,0.8s-0.1,0.5-0.4,0.4c-0.1,0-0.2,0-0.3,0L84.9,55.2L84.9,55.2z"/>
<path class="st11" d="M86.9,58.1c0.1,0.3-0.1,0.3-0.3,0.3s-0.3-0.1-0.3-0.4s0.1-0.3,0.4-0.3S86.9,57.8,86.9,58.1z"/>
<path class="st25" d="M110.9,75.3c0.3-0.1,0.3,0.1,0.3,0.3s-0.1,0.3-0.4,0.3s-0.3-0.1-0.3-0.4S110.7,75.3,110.9,75.3z"/>
<path class="st25" d="M101.7,63.6c-0.3,0.1-0.3,0-0.3-0.3s0.1-0.3,0.4-0.3s0.3,0.1,0.3,0.3S102,63.7,101.7,63.6z"/>
<path class="st18" d="M101.8,64c0.3-0.1,0.3,0.1,0.3,0.3s-0.1,0.3-0.3,0.3s-0.3-0.1-0.3-0.4S101.5,63.9,101.8,64z"/>
<path class="st19" d="M102.8,63.6c-0.3,0.1-0.4,0-0.4-0.3s0.1-0.4,0.3-0.3s0.4,0.1,0.4,0.3S103,63.7,102.8,63.6z"/>
<path class="st17" d="M104.3,57.4h-0.5c-0.4,0-0.5-0.2-0.4-0.5c0-0.1,0.1-0.1,0.2-0.1s0.3-0.1,0.4,0.1S104.2,57.2,104.3,57.4z"/>
<path class="st19" d="M86.5,63c0.3-0.1,0.4,0,0.4,0.3s-0.1,0.3-0.4,0.3s-0.4,0-0.3-0.3S86.2,62.9,86.5,63z"/>
<path class="st14" d="M110.3,75.7c0.1,0.3-0.1,0.3-0.3,0.3s-0.3-0.1-0.3-0.4s0.1-0.3,0.3-0.3S110.3,75.3,110.3,75.7z"/>
<path class="st26" d="M102.7,58.4c-0.3,0.1-0.3,0-0.3-0.3s0.2-0.3,0.4-0.3s0.3,0,0.3,0.3S103,58.5,102.7,58.4z"/>
<path class="st19" d="M85.8,58.1c0.1,0.3-0.1,0.3-0.3,0.3s-0.3-0.1-0.3-0.4s0.1-0.3,0.4-0.3S85.9,57.9,85.8,58.1z"/>
<path class="st26" d="M102.7,57.4c-0.3,0.1-0.3-0.1-0.3-0.3s0.2-0.3,0.4-0.3s0.3,0.1,0.3,0.3S103,57.4,102.7,57.4z"/>
<path class="st22" d="M109.9,77c-0.3,0.1-0.3-0.1-0.3-0.3s0.1-0.3,0.3-0.3s0.4,0,0.4,0.3S110.2,77.1,109.9,77z"/>
<path class="st17" d="M85.8,64.3c0.1,0.3-0.1,0.3-0.3,0.3s-0.3-0.1-0.3-0.4s0.1-0.3,0.4-0.3S85.9,64.1,85.8,64.3z"/>
<path class="st19" d="M86.5,57.4c-0.3,0.1-0.3-0.1-0.3-0.3s0.2-0.3,0.4-0.3s0.3,0.1,0.3,0.4S86.8,57.4,86.5,57.4z"/>
<path class="st14" d="M101.1,63.3c0.1,0.3,0,0.3-0.3,0.3s-0.3-0.3-0.3-0.5s0.2-0.2,0.3-0.2S101.1,63,101.1,63.3z"/>
<path class="st23" d="M101.8,57.8c0.3-0.1,0.3,0.1,0.3,0.3s-0.2,0.3-0.4,0.3s-0.3-0.1-0.3-0.4S101.6,57.8,101.8,57.8z"/>
<path class="st26" d="M102.1,57.1c0,0.2,0,0.4-0.3,0.3s-0.4,0-0.4-0.3s0.1-0.3,0.4-0.3S102.1,56.8,102.1,57.1z"/>
<path class="st22" d="M111,76.4c0.3-0.1,0.3,0.1,0.3,0.3S111.2,77,111,77s-0.3-0.1-0.3-0.3S110.7,76.3,111,76.4z"/>
<path class="st21" d="M77.3,64.7c-0.3,0.1-0.4,0-0.3-0.3c0-0.1-0.1-0.4,0.1-0.3c0.3,0,0.5,0,0.6,0.4S77.5,64.7,77.3,64.7z"/>
<path class="st14" d="M93.9,57.1c0.1,0.3-0.1,0.3-0.3,0.3s-0.3-0.2-0.3-0.4s0.1-0.3,0.3-0.3S93.9,56.8,93.9,57.1z"/>
<path class="st11" d="M85.6,63c0.3-0.1,0.3,0.1,0.3,0.3s-0.1,0.3-0.4,0.3s-0.3-0.1-0.3-0.3S85.3,62.9,85.6,63z"/>
<path class="st21" d="M94.9,63.3c0.1,0.3-0.1,0.3-0.3,0.3s-0.3-0.1-0.3-0.3s0.1-0.3,0.3-0.3S94.9,63,94.9,63.3z"/>
<path class="st13" d="M93.9,63.3c0.1,0.3-0.1,0.3-0.3,0.3s-0.3-0.1-0.3-0.3s0.1-0.3,0.3-0.3S93.9,63,93.9,63.3z"/>
<path class="st22" d="M93.6,57.8c0.3-0.1,0.3,0.1,0.3,0.3s-0.1,0.3-0.3,0.3s-0.3-0.1-0.3-0.4S93.3,57.8,93.6,57.8z"/>
<path class="st11" d="M85.8,57.1c0.1,0.3,0,0.4-0.3,0.3s-0.4-0.1-0.4-0.3s0.1-0.3,0.4-0.3S85.9,56.8,85.8,57.1z"/>
<path class="st27" d="M101.1,66.5c-0.2-0.4-0.3-0.9-0.4-1.4c0-0.2,0.1-0.1,0.2-0.1s0.2,0,0.2,0.2C101.1,65.6,101.1,66.1,101.1,66.5z
	"/>
<path class="st17" d="M110,70.8c-0.3,0.1-0.4,0-0.4-0.3s0-0.3,0.3-0.3s0.4,0.3,0.4,0.5S110.1,70.8,110,70.8z"/>
<path class="st26" d="M94.9,57.1c0.1,0.3-0.1,0.4-0.3,0.3s-0.3,0-0.3-0.3s0-0.4,0.3-0.3S95,56.8,94.9,57.1z"/>
<path class="st28" d="M92.8,54.4h-5.6c0.1-0.1,0.2-0.1,0.3-0.1h4.9C92.6,54.3,92.7,54.3,92.8,54.4z"/>
<path class="st23" d="M94.9,58.1c0.1,0.3-0.1,0.3-0.3,0.3s-0.3-0.1-0.3-0.3s0.1-0.3,0.3-0.3S94.9,57.9,94.9,58.1z"/>
<path class="st29" d="M101.1,64.3c0,0.2,0,0.4-0.2,0.3s-0.2-0.4-0.3-0.6s0.2-0.1,0.3-0.1C101.1,63.9,101.1,64.1,101.1,64.3z"/>
<path class="st30" d="M103.4,65.6c0,0.4,0,0.8,0,1.2c0,0.1,0,0.2,0.1,0.3v1.4C103.4,67.5,103.3,66.6,103.4,65.6L103.4,65.6z"/>
<path class="st31" d="M103.5,55.7l0.2,0.5c0,0.1,0.1,0.2,0,0.2s-0.2,0-0.2-0.1S103.5,55.9,103.5,55.7L103.5,55.7z"/>
<path class="st22" d="M78.3,64.7c-0.1,0-0.3,0.1-0.3-0.2c0-0.1,0-0.2,0.1-0.2s0.5,0,0.5,0.3S78.4,64.6,78.3,64.7z"/>
<path class="st32" d="M109.6,69.2c0.2,0.1,0.2,0.3,0.3,0.4s0.1,0.2-0.1,0.2s-0.2,0-0.2-0.1S109.6,69.4,109.6,69.2z"/>
<path class="st22" d="M85.8,69.1c-0.1,0.1-0.3,0.2-0.4,0.2s-0.2,0.1-0.2-0.1s0.1-0.1,0.2-0.1H85.8z"/>
<path class="st24" d="M84.8,69.1c0.1,0,0.1,0.1,0.1,0.2s-0.1,0.2-0.1,0.2s-0.1-0.1-0.1-0.2S84.7,69.1,84.8,69.1z"/>
<path class="st33" d="M69.3,64.3c0.1,0.1,0.2,0.2,0,0.3h-0.1C69.2,64.5,69.3,64.4,69.3,64.3z"/>
<path class="st34" d="M78.4,69.2c0.2,0,0.2-0.1,0.3,0C78.6,69.3,78.5,69.2,78.4,69.2z"/>
<path class="st35" d="M290.6,103.1c-3.1,1.7-5.3,4.7-6.2,8.1h-12.9c-0.9,0-1.6-0.7-1.6-1.6l0,0v-5c0-0.9,0.7-1.6,1.6-1.6l0,0
	L290.6,103.1z"/>
<g class="st36">
	<path d="M329.5,48.6c2,0,3.6,1.2,3.6,2.2v42.8c0,1-1.5,2.2-3.6,2.2h-50.9c-2,0-3.6-1.2-3.6-2.2V75.2l0.2-25.8l35-0.8H329.5
		 M329.5,43.6h-19.3l-35.6,0.8c-2.4,0-4.3,1.7-4.4,3.7L270,75.2v18.5c0,4,3.8,7.2,8.6,7.2h50.9c4.7,0,8.6-3.2,8.6-7.2V50.8
		C338.1,46.8,334.3,43.6,329.5,43.6L329.5,43.6z"/>
	<path d="M302.5,58.8h0.3c7.8,0.1,14.1,6.3,14.3,14.1c0.1,3.8-1.4,7.5-4.1,10.2c-2.8,2.8-6.6,4.4-10.5,4.4h-0.3
		c-7.8-0.1-14.1-6.3-14.3-14.1c-0.1-3.8,1.4-7.5,4.1-10.2C294.8,60.3,298.6,58.8,302.5,58.8 M302.5,87.1h0.3
		c7.6-0.1,13.7-6.2,14-13.7c0.1-3.7-1.4-7.3-4-10c-2.7-2.7-6.4-4.3-10.2-4.3h-0.3c-7.6,0.1-13.7,6.2-14,13.7c-0.1,3.7,1.4,7.3,4,10
		C295,85.6,298.7,87.1,302.5,87.1 M302.5,57.8c-8.5-0.3-15.6,6.4-15.9,14.8c-0.3,8.5,6.4,15.6,14.8,15.9c0.2,0,0.5,0,0.7,0h0.3
		c8.5,0.3,15.6-6.4,15.9-14.8c0.3-8.5-6.4-15.6-14.8-15.9c-0.2,0-0.5,0-0.7,0C302.8,57.8,302.5,57.8,302.5,57.8z M302.5,86.1
		c-7.2,0.1-13.1-5.7-13.1-12.9s5.7-13.1,12.9-13.1h0.2c7.2-0.1,13.1,5.7,13.1,12.9s-5.7,13.1-12.9,13.1H302.5z"/>
	<line class="st37" x1="302.5" y1="62.4" x2="302.5" y2="78.7"/>
	<line class="st38" x1="299" y1="72.9" x2="311.7" y2="77.6"/>
	<path class="st39" d="M373.3,46c-1.3-1.7-3.3-2.7-5.4-2.8h-24.5v59.9h-40c3.1,1.7,5.3,4.7,6.2,8.1h46.1c1.8-7,8.8-11.2,15.8-9.4
		c4.6,1.2,8.2,4.8,9.4,9.4h8.9c1.8,0,3.2-1.5,3.2-3.2V74.4c0-0.8-0.3-1.7-0.8-2.3L373.3,46z"/>
	<path class="st39" d="M297,104.3c-5.6,0-10.1,4.5-10.1,10.1s4.5,10.1,10.1,10.1s10.1-4.5,10.1-10.1
		C307.1,108.9,302.6,104.3,297,104.3L297,104.3z M297,121.7c-4,0-7.3-3.3-7.3-7.3s3.3-7.3,7.3-7.3s7.3,3.3,7.3,7.3l0,0
		C304.3,118.5,301,121.7,297,121.7C297,121.8,297,121.8,297,121.7L297,121.7z"/>
	<circle class="st39" cx="368.3" cy="114.5" r="10.1"/>
	<circle class="st40" cx="368.3" cy="114.5" r="4.9"/>
	<circle class="st40" cx="368.3" cy="114.5" r="7.3"/>
</g>
<path class="st41" d="M367.4,53h-18.5v19.8H385l-12.2-17C371.5,54.1,369.5,53,367.4,53z"/>
<line class="st42" x1="552" y1="38.6" x2="552" y2="122.6"/>
<g class="st3">
	<line class="st43" x1="570" y1="77.6" x2="623" y2="77.6"/>
	<line class="st43" x1="577.8" y1="58.9" x2="615.2" y2="96.3"/>
	<line class="st43" x1="577.8" y1="96.3" x2="615.2" y2="58.9"/>
	<line class="st43" x1="596.5" y1="104.1" x2="596.5" y2="51.1"/>
	<polyline class="st43" points="617.6,65.5 608.6,65.5 608.6,56.5 	"/>
	<polyline class="st43" points="602.9,54.3 596.5,60.7 590.1,54.3 	"/>
	<polyline class="st43" points="584.5,56.6 584.5,65.7 575.5,65.7 	"/>
	<polyline class="st43" points="573,71.2 579.4,77.6 573.1,84 	"/>
	<polyline class="st43" points="575.2,89.9 584.3,89.9 584.3,98.9 	"/>
	<polyline class="st43" points="590.1,101.5 596.5,95.1 602.9,101.5 	"/>
	<polyline class="st43" points="608.9,99 608.9,90 617.9,90 	"/>
	<polyline class="st43" points="620.3,84 613.9,77.6 620.2,71.2 	"/>
</g>
<path d="M510.4,57.9c11.4,0,20.7,9.3,20.7,20.7s-9.3,20.7-20.7,20.7s-20.7-9.3-20.7-20.7C489.6,67.2,498.9,57.9,510.4,57.9
	 M510.4,54.9c-13.1,0-23.7,10.6-23.7,23.7s10.6,23.7,23.7,23.7s23.7-10.6,23.7-23.7S523.5,54.9,510.4,54.9L510.4,54.9z"/>
<path d="M510.4,64.6c-7.7,0-14,6.3-14,14s6.3,14,14,14c7.7,0,14-6.3,14-14l0,0C524.3,70.9,518.1,64.6,510.4,64.6L510.4,64.6z"/>
<path d="M512.7,49.6h-3.1c-1.5,0-2.6,1.2-2.6,2.7V56h8.5v-3.7C515.5,50.8,514.3,49.6,512.7,49.6L512.7,49.6z"/>
<path d="M495.3,96.6l-1.8,3.2c-0.7,1.3-0.3,2.9,1,3.7l2.7,1.6c1.3,0.7,2.9,0.3,3.7-1l0,0l1.8-3.2L495.3,96.6L495.3,96.6z"/>
<path d="M537.3,74.4h-3.7v8.5h3.7c1.5,0,2.7-1.2,2.7-2.7l0,0V77C540,75.5,538.8,74.3,537.3,74.4L537.3,74.4z"/>
<path d="M525.9,96.1l-7.1,4.7l2,3.1c0.8,1.2,2.5,1.6,3.7,0.8l0,0l2.6-1.7c1.2-0.8,1.6-2.5,0.8-3.7L525.9,96.1L525.9,96.1z"/>
<path d="M532.8,86l-4.5,7.2l3.1,2c1.3,0.8,2.9,0.4,3.7-0.8l0,0l1.7-2.6c0.8-1.3,0.4-2.9-0.8-3.7l0,0L532.8,86L532.8,86z"/>
<path d="M515.4,101.3H507v3.7c0,1.5,1.2,2.7,2.7,2.7h3.1c1.5,0,2.7-1.2,2.7-2.7L515.4,101.3L515.4,101.3z"/>
<path d="M487.7,74.4H484c-1.5,0-2.6,1.2-2.7,2.6v3.1c0,1.5,1.1,2.7,2.6,2.7l0,0h3.7L487.7,74.4L487.7,74.4z"/>
<path d="M532.3,61c-0.5,0-1,0.2-1.5,0.4l-3.1,2l4.7,7.1l3.1-2c1.2-0.8,1.6-2.5,0.8-3.7l0,0l-1.7-2.6C534.1,61.4,533.3,61,532.3,61z"
	/>
<path d="M488.5,86.5l-3.2,1.8c-1.3,0.7-1.7,2.4-1,3.7l0,0l1.5,2.7c0.7,1.3,2.4,1.7,3.7,1l0,0l3.2-1.8L488.5,86.5L488.5,86.5z"/>
<path d="M498.9,51.6c-0.5,0-0.9,0.1-1.3,0.4l-2.7,1.5c-1.3,0.7-1.7,2.4-1,3.7l1.8,3.2l7.3-4.2l-1.8-3.1
	C500.8,52.2,499.9,51.7,498.9,51.6L498.9,51.6z"/>
<path d="M488.1,60.7c-1,0-1.9,0.6-2.4,1.5l-1.4,2.8c-0.7,1.3-0.1,2.9,1.2,3.6l3.3,1.7l3.8-7.6l-3.3-1.7
	C489,60.8,488.6,60.7,488.1,60.7L488.1,60.7z"/>
<path d="M522.8,52.5c-1,0-1.8,0.5-2.3,1.3l-1.8,3.2l7.4,4.2l1.8-3.2c0.7-1.3,0.3-2.9-1-3.7l0,0l-2.7-1.5
	C523.7,52.5,523.3,52.4,522.8,52.5L522.8,52.5z"/>
<path class="st35" d="M734.2,105.6c-2.9,1.6-5,4.3-5.8,7.6h-12c-0.8,0-1.5-0.7-1.5-1.5l0,0v-4.6c0-0.8,0.7-1.5,1.5-1.5l0,0H734.2z"
	/>
<g class="st36">
	<path d="M767.6,54.6v35.2h-39.9V75l0.2-19.8L767.6,54.6 M769.3,45.6l-46.7,0.7c-2,0-3.6,1.5-3.7,3.5L718.7,75v17.2
		c0,3.7,3.3,6.7,7.3,6.7h43.3c4,0,7.3-3,7.3-6.7V52.3C776.6,48.6,773.3,45.6,769.3,45.6L769.3,45.6z"/>
	<path class="st44" d="M758.1,65c-0.1-0.9-0.5-1.8-1.1-2.5c-0.1-0.1-0.2-0.1-0.3-0.1l-6.6,2.1c-2-0.9-4.2-1.4-6.4-1.4
		c-5.5,0-9.9,2.6-9.9,5.9v6.3c0,3.2,4.4,5.9,9.9,5.9c1.3,0,2.6-0.1,3.8-0.5l0,0c0,0,0,0,0.1,0s0,0,0.1,0l0,0c0,0,0,0,0-0.1
		s0,0,0-0.1V74l0,0c0,0,0,0,0-0.1l0,0l0,0l1.5-0.6l3,3.5l0,0c0,0.1,0.1,0.1,0.2,0.1h0.1c3.5-1,5.7-3,5.7-5.4L758.1,65
		C758.1,65.1,758.1,65,758.1,65z M757.6,65.3c0,1.9-2,3.8-5.1,4.7l-3.9-4.4l8.1-2.6C757.3,63.6,757.6,64.4,757.6,65.3z M743.7,63.7
		c1.9,0,3.8,0.3,5.6,1.1l-1.3,0.4l0,0c0,0-0.1,0-0.1,0.1l0,0l-0.1,0.1l0,0c0,0,0,0,0,0.1V67l-4.2,1.7c-0.1,0-0.1,0.1-0.2,0.2
		c0,0.1,0,0.2,0.1,0.3L747,74c-1.1,0.2-2.2,0.4-3.3,0.3c-5.2,0-9.3-2.4-9.3-5.3S738.5,63.7,743.7,63.7L743.7,63.7z M734.3,75.2V71
		c1.4,2.3,5,3.9,9.3,3.9c1.2,0,2.4-0.1,3.5-0.4v5.7c-1.1,0.3-2.3,0.4-3.5,0.4C738.5,80.5,734.3,78.2,734.3,75.2L734.3,75.2z
		 M747.3,73.4L747.3,73.4l-3.2-4.3l3.7-1.5v4.1c0,0.1,0,0.1,0.1,0.2l0.9,1L747.3,73.4z M752.1,75.8l-3.7-4.3v-4.3l0,0v-1l3.7,4.2
		V75.8z M757.6,71.5c0,1.9-1.9,3.7-4.9,4.7v-5.7c2-0.5,3.7-1.6,4.9-3.3V71.5z"/>
	<ellipse class="st45" cx="749.5" cy="70.9" rx="0.5" ry="0.8"/>
	<ellipse class="st45" cx="756.3" cy="70.8" rx="0.5" ry="0.8"/>
	<ellipse class="st45" cx="754.5" cy="73" rx="0.8" ry="1.3"/>
	<ellipse class="st45" cx="751.1" cy="71" rx="0.3" ry="0.5"/>
	<ellipse class="st45" cx="743.9" cy="77.9" rx="0.8" ry="1.2"/>
	<ellipse class="st45" cx="740.8" cy="77.6" rx="0.5" ry="0.8"/>
	<ellipse class="st45" cx="738.5" cy="76.1" rx="0.8" ry="1.2"/>
	<ellipse class="st45" cx="736.6" cy="77.2" rx="0.3" ry="0.5"/>
	<ellipse class="st45" cx="736.1" cy="75.2" rx="0.5" ry="0.8"/>
	<path class="st39" d="M811.2,52.5c-1.2-1.6-3-2.5-5-2.5h-22.8v55.7h-37.2c2.9,1.6,5,4.3,5.8,7.6h42.9c1.7-6.5,8.3-10.4,14.7-8.7
		c4.3,1.1,7.6,4.4,8.7,8.7h8.2c1.7,0,3-1.3,3-3V78.9c0-0.8-0.3-1.5-0.7-2.2L811.2,52.5z"/>
	<path class="st39" d="M740.2,106.8c-5.2,0-9.4,4.2-9.4,9.4s4.2,9.4,9.4,9.4s9.4-4.2,9.4-9.4l0,0C749.6,111,745.4,106.8,740.2,106.8
		z M740.2,122.9c-3.7,0-6.8-3-6.8-6.8c0-3.7,3-6.8,6.8-6.8c3.7,0,6.8,3,6.8,6.8S743.9,122.9,740.2,122.9L740.2,122.9z"/>
	<circle class="st39" cx="806.5" cy="116.2" r="9.4"/>
	<circle class="st40" cx="806.5" cy="116.2" r="4.5"/>
	<circle class="st40" cx="806.5" cy="116.2" r="6.8"/>
</g>
<path class="st41" d="M805.7,59h-17.2v18.5h33.6l-11.4-15.8C809.6,60,807.7,59,805.7,59z"/>
<path d="M1015.6,97.5c0-3.9-3.2-7.1-7.1-7.1c-3.9,0-7.1,3.2-7.1,7.1s3.2,7.1,7.1,7.1C1012.4,104.6,1015.6,101.5,1015.6,97.5
	L1015.6,97.5z M1005.7,97.5c0-1.5,1.3-2.8,2.8-2.8s2.8,1.3,2.8,2.8s-1.3,2.8-2.8,2.8l0,0C1006.9,100.3,1005.7,99.1,1005.7,97.5
	L1005.7,97.5z"/>
<path d="M962.8,52.6v4.3h8.1l7.3,30.5h36.5l6.2-25.2h-44.3l-2.3-9.6L962.8,52.6z M1015.5,66.4l-4.1,16.7h-29.7l-4-16.7
	C977.7,66.4,1015.5,66.4,1015.5,66.4z"/>
<path d="M982.8,104.6c3.9,0,7.1-3.2,7.1-7.1s-3.2-7.1-7.1-7.1c-3.9,0-7.1,3.2-7.1,7.1S978.9,104.6,982.8,104.6L982.8,104.6z
	 M982.8,94.8c1.5,0,2.8,1.3,2.7,2.8c0,1.5-1.3,2.8-2.8,2.7c-1.5,0-2.7-1.3-2.8-2.8C980,96,981.2,94.7,982.8,94.8
	C982.8,94.7,982.8,94.7,982.8,94.8z"/>
<rect x="953.1" y="69.1" width="16.7" height="4.3"/>
<rect x="958.8" y="76.2" width="13.1" height="4.3"/>
<rect x="953.8" y="83.4" width="20.3" height="4.3"/>
<line class="st0" x1="192.5" y1="78.5" x2="248.5" y2="78.5"/>
<path class="st46" d="M240.5,86.4h-38c-5,0-9-4.2-9-9.2l0,0l0,0c-0.1-5,4-9.1,9-9.2l0,0h38c5,0,9,4.2,9,9.2l0,0l0,0
	C249.5,82.2,245.5,86.3,240.5,86.4L240.5,86.4z"/>
<path class="st47" d="M240.5,86.5h-38c-5,0-9-4.1-9-9.1l0,0l0,0c0-5,4-9.1,9-9.1l0,0h38c5,0,9,4.1,9,9.1l0,0l0,0
	C249.6,82.4,245.5,86.5,240.5,86.5L240.5,86.5z"/>
<path class="st46" d="M239.5,69.3"/>
<path class="st46" d="M201.5,69.3"/>
<circle class="st48" cx="207.8" cy="77.3" r="1.7"/>
<circle class="st48" cx="237.6" cy="77.3" r="1.7"/>
<line class="st0" x1="633.2" y1="79.6" x2="689.2" y2="79.6"/>
<path class="st46" d="M681.1,87.5h-38c-5,0-9-4.2-9-9.2l0,0l0,0c-0.1-5,4-9.1,9-9.2l0,0h38c5,0,9,4.2,9,9.2l0,0l0,0
	C690.2,83.3,686.2,87.4,681.1,87.5L681.1,87.5z"/>
<path class="st47" d="M681.2,87.6h-38c-5,0-9-4.1-9-9.1l0,0l0,0c0-5,4-9.1,9-9.1l0,0h38c5,0,9,4.1,9,9.1l0,0l0,0
	C690.2,83.4,686.2,87.5,681.2,87.6L681.2,87.6z"/>
<path class="st46" d="M680.2,70.4"/>
<path class="st46" d="M642.2,70.4"/>
<circle class="st48" cx="648.5" cy="78.4" r="1.7"/>
<circle class="st48" cx="678.3" cy="78.4" r="1.7"/>
<line class="st0" x1="414.8" y1="78.5" x2="470.8" y2="78.5"/>
<path class="st46" d="M462.8,86.4h-38c-5,0-9-4.2-9-9.2l0,0l0,0c-0.1-5,4-9.1,9-9.2l0,0h38c5,0,9,4.2,9,9.2l0,0l0,0
	C471.8,82.2,467.8,86.3,462.8,86.4L462.8,86.4z"/>
<path class="st47" d="M462.8,86.5h-38c-5,0-9-4.1-9-9.1l0,0l0,0c0-5,4-9.1,9-9.1l0,0h38c5,0,9,4.1,9,9.1l0,0l0,0
	C471.9,82.4,467.8,86.5,462.8,86.5L462.8,86.5z"/>
<path class="st46" d="M461.8,69.3"/>
<path class="st46" d="M423.8,69.3"/>
<circle class="st48" cx="430.1" cy="77.3" r="1.7"/>
<circle class="st48" cx="459.9" cy="77.3" r="1.7"/>
<line class="st0" x1="851.5" y1="78.8" x2="907.5" y2="78.8"/>
<path class="st46" d="M899.4,86.8h-38c-5,0-9-4.2-9-9.2l0,0l0,0c-0.1-5,4-9.1,9-9.2l0,0h38c5,0,9,4.2,9,9.2l0,0l0,0
	C908.5,82.6,904.5,86.7,899.4,86.8C899.4,86.7,899.4,86.7,899.4,86.8z"/>
<path class="st47" d="M899.5,86.8h-38c-5,0-9-4.1-9-9.1l0,0l0,0c0-5,4-9.1,9-9.1l0,0h38c5,0,9,4.1,9,9.1l0,0l0,0
	C908.5,82.7,904.5,86.8,899.5,86.8L899.5,86.8z"/>
<path class="st46" d="M898.5,69.7"/>
<path class="st46" d="M860.5,69.7"/>
<circle class="st48" cx="866.8" cy="77.7" r="1.7"/>
<circle class="st48" cx="896.6" cy="77.7" r="1.7"/>
<circle class="st41" cx="207.7" cy="77.4" r="0.4"/>
<circle class="st41" cx="237.6" cy="77.4" r="0.4"/>
<circle class="st41" cx="429.1" cy="78.3" r="0.4"/>
<circle class="st41" cx="459" cy="78.4" r="0.4"/>
<circle class="st41" cx="648.5" cy="78.4" r="0.4"/>
<circle class="st41" cx="678.3" cy="78.4" r="0.4"/>
<circle class="st41" cx="866.8" cy="77.7" r="0.4"/>
<circle class="st41" cx="896.6" cy="77.7" r="0.4"/>
<text transform="matrix(1 0 0 1 107.68 174.76)" class="st49 st50 st51">Member </text>
<text transform="matrix(1 0 0 1 110.76 195.76)" class="st49 st50 st51">F</text>
<text transform="matrix(1 0 0 1 118.07 195.76)" class="st49 st50 st51">armer</text>
<g class="st52">
	<path class="st49" d="M51.3,182.3v11.6h7V181c0-1.7,0.4-3.4,1.2-4.9c-0.6-0.2-1.2-0.3-1.8-0.3C54.2,175.8,51.3,178.7,51.3,182.3z"
		/>
	<path class="st49" d="M45.2,182.5v8.2h4.6v-8.5c0-1.4,0.4-2.8,1.1-4c-0.4-0.1-0.8-0.2-1.2-0.2C47.2,178.1,45.2,180.1,45.2,182.5z"
		/>
	<path class="st49" d="M69.2,171.6c-5.2,0-9.4,4.2-9.4,9.4v16.6h18.7V181C78.6,175.8,74.4,171.6,69.2,171.6z"/>
	<path class="st49" d="M80.6,175.8c-0.6,0-1.2,0.1-1.8,0.3c0.8,1.5,1.2,3.2,1.2,4.9v12.9h7.1v-11.6
		C87.1,178.7,84.2,175.8,80.6,175.8z"/>
	<path class="st49" d="M88.7,178.1c-0.4,0-0.9,0.1-1.3,0.2c0.7,1.2,1.1,2.6,1.1,4v8.5h4.6v-8.2C93.2,180.1,91.2,178.1,88.7,178.1z"
		/>
	<path class="st49" d="M49.7,176.5c1.5,0,2.7-1.2,2.7-2.7s-1.2-2.7-2.7-2.7s-2.7,1.2-2.7,2.7S48.1,176.5,49.7,176.5L49.7,176.5z"/>
	<path class="st49" d="M80.6,174.2c2.2,0,4-1.8,4-4s-1.8-4-4-4s-4,1.8-4,4S78.4,174.2,80.6,174.2z"/>
	<path class="st49" d="M69.2,170c3.3,0,6-2.7,6-6s-2.7-6-6-6s-6,2.7-6,6S65.9,170,69.2,170z"/>
	<path class="st49" d="M57.7,174.2c2.2,0,4-1.8,4-4s-1.8-4-4-4s-4,1.8-4,4S55.5,174.2,57.7,174.2z"/>
	<path class="st49" d="M88.7,176.5c1.5,0,2.7-1.2,2.7-2.7s-1.2-2.7-2.7-2.7s-2.7,1.2-2.7,2.7S87.2,176.5,88.7,176.5L88.7,176.5z"/>
</g>
<g class="st53">
	<text transform="matrix(1.1438 0 0 1 446.417 190.7875)" class="st49 st50 st54">[</text>
	<text transform="matrix(-1.1808 0 0 1 665.7969 190.7875)" class="st49 st50 st54">[</text>
</g>
<text transform="matrix(1 0 0 1 974.9062 174.76)" class="st49 st50 st51">End </text>
<text transform="matrix(1 0 0 1 974.9062 195.76)" class="st49 st50 st51">consumer</text>
<path class="st55" d="M920.5,198.8c0-1.3,1-2.4,2.3-2.4l0,0h2v-14c0.4,0.1,0.8,0.2,1.2,0.2h0.6c1,0,2.1-0.2,3-0.6v14.4h25.5V182
	c1,0.4,2,0.6,3,0.6h0.6c0.4,0,0.8-0.1,1.2-0.2v14h2c1.3,0.1,2.4,1.2,2.3,2.6c-0.1,1.2-1,2.2-2.3,2.3h-39.2
	C921.5,201.2,920.5,200.1,920.5,198.8L920.5,198.8z M932.3,192.4v1.1c0,0.3,0.2,0.5,0.5,0.5h19.1c0.3,0,0.5-0.2,0.5-0.5v-1.1
	c0-1.4-0.8-2.6-2.1-3.1c1-0.7,1.3-2.1,0.6-3.2s-2.1-1.3-3.2-0.6s-1.3,2.1-0.6,3.2c0.2,0.2,0.4,0.4,0.6,0.6c-0.5,0.2-0.9,0.5-1.2,0.9
	c-0.5-1.1-1.3-2-2.5-2.5c1.4-1,1.8-2.9,0.8-4.3c-1-1.4-2.9-1.8-4.3-0.8c-1.4,1-1.8,2.9-0.8,4.3c0.2,0.3,0.5,0.6,0.8,0.8
	c-1.1,0.5-2,1.4-2.5,2.5c-0.3-0.4-0.8-0.7-1.2-0.9c1-0.7,1.3-2.1,0.6-3.2s-2.1-1.3-3.2-0.6s-1.3,2.1-0.6,3.2
	c0.2,0.2,0.4,0.4,0.6,0.6C933.1,189.8,932.3,191,932.3,192.4z M958.2,180h0.4c3.1-0.3,5.3-3,5-6c-0.1-0.6-0.2-1.2-0.5-1.8l-5.5-12.3
	c-0.5-1.1-1.6-1.8-2.8-1.8h-25c-1.2,0-2.3,0.7-2.8,1.8l-5.5,12.2c-1.3,2.8-0.1,6.1,2.7,7.4c0.6,0.3,1.2,0.4,1.8,0.5h0.4
	c2.3,0,4.3-1.3,5.3-3.4c1.4,2.9,4.8,4.2,7.8,2.8c1.2-0.6,2.2-1.5,2.8-2.7c1.4,2.9,4.9,4.1,7.8,2.7c1.2-0.6,2.2-1.6,2.7-2.8
	C953.9,178.7,955.9,180,958.2,180L958.2,180z"/>
<text transform="matrix(1 0 0 1 516.0167 171.7126)" class="st49 st50 st51">Processing &amp; </text>
<text transform="matrix(1 0 0 1 517.8367 192.7126)" class="st49 st50 st51">cold storage</text>
<g class="st52">
	<path class="st49" d="M505.4,173.5c-0.6,0-1.2,0.2-1.7,0.4l-9.9,4.8c-0.5-1.1-1.6-1.8-2.9-1.8l-5.7,0.2c-1.3,0-2.6-0.3-3.8-0.7
		c-1.7-0.5-3.4-0.8-5.1-0.8c-2.1,0.1-4.2,0.5-6.2,1.2v-1.3c0-0.1,0-0.3-0.1-0.4c-0.1-0.2-0.3-0.4-0.6-0.6c-0.1-0.1-0.3-0.1-0.4-0.1
		h-5.8c-0.1,0-0.3,0-0.4,0.1s-0.2,0.1-0.4,0.2c-0.1,0.1-0.2,0.2-0.2,0.3c-0.1,0.1-0.1,0.3-0.1,0.4v15.8c0,0.1,0,0.3,0.1,0.4
		c0.1,0.1,0.1,0.2,0.2,0.3s0.2,0.2,0.4,0.2c0.1,0.1,0.3,0.1,0.4,0.1h5.8c0.1,0,0.3,0,0.4-0.1c0.2-0.1,0.4-0.3,0.6-0.6
		c0.1-0.1,0.1-0.3,0.1-0.4v-1.4c7-1.2,11.1,0.9,17.4,0.9c1.6-0.2,3.1-0.7,4.4-1.5c1.7-0.9,3.7-2.1,5.6-3.4c4-2.6,8-5.5,10.1-6.9
		c0.7-0.5,1.1-1.2,1.2-2c0.1-0.8-0.1-1.5-0.5-2.1C507.6,174,506.5,173.5,505.4,173.5L505.4,173.5z M505.5,175.6c0.4,0,0.8,0.2,1,0.6
		c0.1,0.2,0.2,0.4,0.2,0.7c0,0.2-0.1,0.4-0.3,0.5c-2.2,1.5-6.2,4.3-10.1,6.9c-1.9,1.3-3.9,2.4-5.5,3.2c-1.1,0.6-2.2,1-3.4,1.3
		c-5.7,0-10.1-2.1-17.4-0.9V187c0-0.1,0-0.3-0.1-0.4c0-0.1-0.1-0.3-0.2-0.4s-0.2-0.2-0.4-0.2c-0.3-0.1-0.6-0.1-0.8,0
		c-0.1,0.1-0.2,0.1-0.4,0.2c-0.1,0.1-0.2,0.2-0.2,0.4c-0.1,0.1-0.1,0.3-0.1,0.4v3.4h-0.5v-13.9h0.5v3.4c0,0.1,0,0.3,0.1,0.4
		c0,0.1,0.1,0.3,0.2,0.4c0.1,0.1,0.2,0.2,0.4,0.2c0.3,0.1,0.6,0.1,0.8,0c0.1-0.1,0.2-0.1,0.4-0.2c0.1-0.1,0.2-0.2,0.2-0.4
		c0.1-0.1,0.1-0.3,0.1-0.4V179c2-0.7,4.1-1.2,6.2-1.3c1.5,0,3.1,0.2,4.5,0.7s2.9,0.8,4.4,0.8l0,0l5.7-0.2c0.5,0,0.9,0.3,1,0.8
		c0,0.4-0.4,0.8-1,0.8l-10.9,0.5c-0.1,0-0.3,0-0.4,0.1s-0.2,0.1-0.3,0.2c-0.1,0.1-0.2,0.2-0.2,0.4c0,0.1-0.1,0.3-0.1,0.4
		s0,0.3,0.1,0.4s0.1,0.3,0.2,0.4s0.2,0.2,0.4,0.2c0.1,0,0.3,0.1,0.4,0.1l10.9-0.5c1.1,0,2.2-0.7,2.7-1.7l11-5.2
		C504.9,175.6,505.2,175.6,505.5,175.6L505.5,175.6z"/>
	<path class="st49" d="M484.6,154.9c-0.1,0-0.3,0-0.4,0.1s-0.2,0.1-0.4,0.2c-0.1,0.1-0.2,0.2-0.2,0.3c-0.1,0.1-0.1,0.3-0.1,0.4v2.1
		l0,0l-1.5-1.5c-0.1-0.1-0.2-0.2-0.3-0.2c-0.1-0.1-0.3-0.1-0.4-0.1s-0.3,0-0.4,0.1s-0.2,0.1-0.4,0.2L478,159
		c-0.1,0.1-0.2,0.2-0.2,0.3c-0.1,0.1-0.1,0.3-0.1,0.4s0,0.3,0.1,0.4s0.1,0.2,0.2,0.4l1.5,1.5l0,0h-2.1c-0.1,0-0.3,0-0.4,0.1
		s-0.2,0.1-0.3,0.2c-0.1,0.1-0.2,0.2-0.2,0.4c-0.1,0.1-0.1,0.3-0.1,0.4v3.5c0,0.1,0,0.3,0.1,0.4c0.1,0.1,0.1,0.2,0.2,0.4
		c0.1,0.1,0.2,0.2,0.3,0.2c0.1,0.1,0.3,0.1,0.4,0.1h2.1l0,0l-1.5,1.5c-0.1,0.1-0.2,0.2-0.2,0.3c-0.1,0.1-0.1,0.3-0.1,0.4
		c0,0.1,0,0.3,0.1,0.4c0.1,0.1,0.1,0.2,0.2,0.4l2.5,2.5c0.1,0.1,0.2,0.2,0.4,0.2c0.1,0.1,0.3,0.1,0.4,0.1s0.3,0,0.4-0.1
		s0.2-0.1,0.3-0.2l1.5-1.5l0,0v2.1c0,0.1,0,0.3,0.1,0.4c0.1,0.3,0.3,0.5,0.6,0.6c0.1,0.1,0.3,0.1,0.4,0.1h3.5c0.1,0,0.3,0,0.4-0.1
		c0.3-0.1,0.5-0.3,0.6-0.6c0.1-0.1,0.1-0.3,0.1-0.4v-2.1l0,0l1.5,1.5c0.1,0.1,0.2,0.2,0.4,0.2c0.1,0.1,0.3,0.1,0.4,0.1
		s0.3,0,0.4-0.1s0.2-0.1,0.3-0.2l2.5-2.5c0.1-0.1,0.2-0.2,0.2-0.4c0.1-0.1,0.1-0.3,0.1-0.4s0-0.3-0.1-0.4s-0.1-0.2-0.2-0.3l-1.5-1.5
		l0,0h2.1c0.1,0,0.3,0,0.4-0.1c0.1,0,0.2-0.1,0.4-0.2c0.1-0.1,0.2-0.2,0.2-0.4c0.1-0.1,0.1-0.3,0.1-0.4v-3.5c0-0.1,0-0.3-0.1-0.4
		c-0.1-0.3-0.3-0.5-0.6-0.6c-0.1-0.1-0.3-0.1-0.4-0.1h-2.1l0,0l1.5-1.5c0.1-0.1,0.2-0.2,0.2-0.4c0.1-0.1,0.1-0.3,0.1-0.4
		s0-0.3-0.1-0.4s-0.1-0.2-0.2-0.3l-2.5-2.5c-0.1-0.1-0.2-0.2-0.3-0.2c-0.1-0.1-0.3-0.1-0.4-0.1s-0.3,0-0.4,0.1s-0.2,0.1-0.4,0.2
		l-1.5,1.5l0,0v-2.1c0-0.1,0-0.3-0.1-0.4c-0.1-0.1-0.1-0.2-0.2-0.3s-0.2-0.2-0.4-0.2c-0.1-0.1-0.3-0.1-0.4-0.1H484.6L484.6,154.9z
		 M486.4,159.9c2.8,0,5,2.2,5,5c0,2.8-2.2,5-5,5s-5-2.2-5-5C481.4,162.2,483.6,159.9,486.4,159.9L486.4,159.9z"/>
</g>
<text transform="matrix(1 0 0 1 755.4456 171.9)" class="st49 st50 st51">Product </text>
<text transform="matrix(1 0 0 1 754.4255 192.9)" class="st49 st50 st51">Delivery</text>
<g class="st52">
	<path class="st49" d="M742.4,175.1c-0.6,0-1.2,0.2-1.7,0.4l-9.9,4.8c-0.5-1.1-1.6-1.8-2.9-1.8l-5.7,0.2c-1.3,0-2.6-0.3-3.8-0.7
		c-1.7-0.5-3.4-0.8-5.1-0.8c-2.1,0.1-4.2,0.5-6.2,1.2v-1.2c0-0.1,0-0.3-0.1-0.4c-0.1-0.2-0.3-0.4-0.6-0.6c-0.1-0.1-0.3-0.1-0.4-0.1
		h-5.8c-0.1,0-0.3,0-0.4,0.1s-0.2,0.1-0.3,0.2c-0.1,0.1-0.2,0.2-0.2,0.3c-0.1,0.1-0.1,0.3-0.1,0.4v15.8c0,0.1,0,0.3,0.1,0.4
		c0.1,0.1,0.1,0.2,0.2,0.3s0.2,0.2,0.3,0.2c0.1,0.1,0.3,0.1,0.4,0.1h5.8c0.1,0,0.3,0,0.4-0.1c0.2-0.1,0.4-0.3,0.6-0.6
		c0.1-0.1,0.1-0.3,0.1-0.4v-1.3c7-1.2,11.1,0.9,17.4,0.9c1.6-0.2,3.1-0.7,4.4-1.5c1.7-0.9,3.7-2.1,5.6-3.4c4-2.6,8-5.5,10.1-6.9
		c0.7-0.5,1.1-1.2,1.2-2c0.1-0.7-0.1-1.5-0.5-2.1C744.6,175.6,743.6,175.1,742.4,175.1L742.4,175.1z M742.5,177.1
		c0.4,0,0.8,0.2,1,0.6c0.1,0.2,0.2,0.4,0.2,0.7c0,0.2-0.1,0.4-0.3,0.5c-2.2,1.5-6.2,4.3-10.1,6.9c-1.9,1.3-3.9,2.4-5.5,3.2
		c-1.1,0.6-2.2,1-3.4,1.3c-5.7,0-10.1-2.1-17.4-0.9v-0.9c0-0.1,0-0.3-0.1-0.4c0-0.1-0.1-0.3-0.2-0.4c-0.1-0.1-0.2-0.2-0.3-0.2
		c-0.3-0.1-0.6-0.1-0.8,0c-0.1,0.1-0.2,0.1-0.3,0.2s-0.2,0.2-0.2,0.4c-0.1,0.1-0.1,0.3-0.1,0.4v3.4h-0.7v-13.7h0.5v3.4
		c0,0.1,0,0.3,0.1,0.4c0,0.1,0.1,0.3,0.2,0.4c0.1,0.1,0.2,0.2,0.3,0.2c0.3,0.1,0.6,0.1,0.8,0c0.1-0.1,0.2-0.1,0.3-0.2
		s0.2-0.2,0.2-0.4c0.1-0.1,0.1-0.3,0.1-0.4v-0.9c2-0.7,4.1-1.2,6.2-1.3c1.5,0,3.1,0.2,4.5,0.7s2.9,0.8,4.4,0.8l0,0l5.7-0.2
		c0.5,0,0.9,0.3,1,0.8c0,0.4-0.4,0.8-1,0.8l-10.9,0.5c-0.1,0-0.3,0-0.4,0.1s-0.2,0.1-0.3,0.2s-0.2,0.2-0.2,0.4
		c0,0.1-0.1,0.3-0.1,0.4s0,0.3,0.1,0.4s0.1,0.3,0.2,0.4s0.2,0.2,0.3,0.2s0.3,0.1,0.4,0.1l10.9-0.5c1.1,0,2.2-0.7,2.7-1.7l10.9-5.3
		C741.8,177.2,742.2,177.1,742.5,177.1L742.5,177.1z"/>
	<path class="st49" d="M721.6,156.5c-0.1,0-0.3,0-0.4,0.1s-0.2,0.1-0.3,0.2s-0.2,0.2-0.2,0.3c-0.1,0.1-0.1,0.3-0.1,0.4v2.1l0,0
		l-1.5-1.5c-0.1-0.1-0.2-0.2-0.3-0.2c-0.1-0.1-0.3-0.1-0.4-0.1c-0.1,0-0.3,0-0.4,0.1c-0.1,0.1-0.2,0.1-0.3,0.2l-2.5,2.5
		c-0.1,0.1-0.2,0.2-0.2,0.3c-0.1,0.1-0.1,0.3-0.1,0.4s0,0.3,0.1,0.4s0.1,0.2,0.2,0.4l1.5,1.5l0,0h-2.1c-0.1,0-0.3,0-0.4,0.1
		s-0.2,0.1-0.3,0.2c-0.1,0.1-0.2,0.2-0.2,0.4c-0.1,0.1-0.1,0.3-0.1,0.4v3.5c0,0.1,0,0.3,0.1,0.4c0.1,0.1,0.1,0.2,0.2,0.4
		c0.1,0.1,0.2,0.2,0.3,0.2c0.1,0.1,0.3,0.1,0.4,0.1h2.1l0,0l-1.5,1.5c-0.1,0.1-0.2,0.2-0.2,0.3c-0.1,0.1-0.1,0.3-0.1,0.4
		c0,0.1,0,0.3,0.1,0.4c0.1,0.1,0.1,0.2,0.2,0.4l2.5,2.5c0.1,0.1,0.2,0.2,0.3,0.2c0.1,0.1,0.3,0.1,0.4,0.1s0.3,0,0.4-0.1
		s0.2-0.1,0.3-0.2l1.5-1.5l0,0v2.2c0,0.1,0,0.3,0.1,0.4c0.1,0.3,0.3,0.5,0.6,0.6c0.1,0.1,0.3,0.1,0.4,0.1h3.5c0.1,0,0.3,0,0.4-0.1
		c0.3-0.1,0.5-0.3,0.6-0.6c0.1-0.1,0.1-0.3,0.1-0.4v-2.1l0,0l1.5,1.5c0.1,0.1,0.2,0.2,0.3,0.2c0.1,0.1,0.3,0.1,0.4,0.1
		s0.3,0,0.4-0.1s0.2-0.1,0.3-0.2l2.5-2.5c0.1-0.1,0.2-0.2,0.2-0.4c0.1-0.1,0.1-0.3,0.1-0.4c0-0.1,0-0.3-0.1-0.4
		c-0.1-0.1-0.1-0.2-0.2-0.3l-1.5-1.5l0,0h2.1c0.1,0,0.3,0,0.4-0.1c0.1,0,0.2-0.1,0.3-0.2c0.1-0.1,0.2-0.2,0.2-0.4
		c0.1-0.1,0.1-0.3,0.1-0.4v-3.5c0-0.1,0-0.3-0.1-0.4c-0.1-0.3-0.3-0.5-0.6-0.6c-0.1-0.1-0.3-0.1-0.4-0.1h-2l0,0l1.5-1.5
		c0.1-0.1,0.2-0.2,0.2-0.4c0.1-0.1,0.1-0.3,0.1-0.4c0-0.1,0-0.3-0.1-0.4c-0.1-0.1-0.1-0.2-0.2-0.3l-2.5-2.5
		c-0.1-0.1-0.2-0.2-0.3-0.2c-0.1-0.1-0.3-0.1-0.4-0.1c-0.1,0-0.3,0-0.4,0.1c-0.1,0.1-0.2,0.1-0.3,0.2l-1.5,1.5l0,0v-2.2
		c0-0.1,0-0.3-0.1-0.4s-0.1-0.2-0.2-0.3c-0.1-0.1-0.2-0.2-0.3-0.2c-0.1-0.1-0.3-0.1-0.4-0.1h-3.5L721.6,156.5L721.6,156.5z
		 M723.4,161.5c2.8,0,5,2.2,5,5s-2.2,5-5,5s-5-2.2-5-5S720.6,161.5,723.4,161.5L723.4,161.5L723.4,161.5z"/>
</g>
<g class="st53">
	<text transform="matrix(1.1477 0 0 1 683.8145 188.8301)" class="st49 st50 st54">[</text>
	<text transform="matrix(-1.1847 0 0 1 859.7861 187.8301)" class="st49 st50 st54">[</text>
</g>
<text transform="matrix(1 0 0 1 308.7492 172.425)" class="st49 st50 st51">Milk </text>
<text transform="matrix(1 0 0 1 308.7492 193.425)" class="st49 st50 st51">Collection</text>
<g class="st52">
	<path class="st49" d="M301.8,174.3c-0.6,0-1.2,0.2-1.7,0.4l-9.9,4.8c-0.5-1.1-1.6-1.8-2.9-1.8l-5.7,0.2c-1.3,0-2.6-0.3-3.8-0.7
		c-1.7-0.5-3.4-0.8-5.1-0.8c-2.1,0.1-4.2,0.5-6.2,1.2v-1.2c0-0.1,0-0.3-0.1-0.4c-0.1-0.2-0.3-0.4-0.6-0.6c-0.1-0.1-0.3-0.1-0.4-0.1
		h-5.8c-0.1,0-0.3,0-0.4,0.1s-0.2,0.1-0.4,0.2c-0.1,0.1-0.2,0.2-0.2,0.3c-0.1,0.1-0.1,0.3-0.1,0.4v15.8c0,0.1,0,0.3,0.1,0.4
		c0.1,0.1,0.1,0.2,0.2,0.3s0.2,0.2,0.4,0.2c0.1,0.1,0.3,0.1,0.4,0.1h5.8c0.1,0,0.3,0,0.4-0.1c0.2-0.1,0.4-0.3,0.6-0.6
		c0.1-0.1,0.1-0.3,0.1-0.4v-1.4c7-1.2,11.1,0.9,17.4,0.9c1.6-0.2,3.1-0.7,4.4-1.5c1.7-0.9,3.7-2.1,5.6-3.4c4-2.6,8-5.5,10.1-6.9
		c0.7-0.5,1.1-1.2,1.2-2s-0.1-1.5-0.5-2.1C304,174.8,302.9,174.3,301.8,174.3L301.8,174.3z M302,176.4c0.4,0,0.8,0.2,1,0.6
		c0.1,0.2,0.2,0.4,0.2,0.7c0,0.2-0.1,0.4-0.3,0.5c-2.2,1.5-6.2,4.3-10.1,6.9c-1.9,1.3-3.9,2.4-5.5,3.2c-1.1,0.6-2.2,1-3.4,1.3
		c-5.7,0-10.1-2.1-17.4-0.9v-0.9c0-0.1,0-0.3-0.1-0.4c0-0.1-0.1-0.3-0.2-0.4c-0.1-0.1-0.2-0.2-0.4-0.2c-0.3-0.1-0.6-0.1-0.8,0
		c-0.1,0.1-0.2,0.1-0.4,0.2c-0.1,0.1-0.2,0.2-0.2,0.4c-0.1,0.1-0.1,0.3-0.1,0.4v3.4h-0.5v-13.7h0.5v3.4c0,0.1,0,0.3,0.1,0.4
		c0,0.1,0.1,0.3,0.2,0.4c0.1,0.1,0.2,0.2,0.4,0.2c0.3,0.1,0.6,0.1,0.8,0c0.1-0.1,0.2-0.1,0.4-0.2c0.1-0.1,0.2-0.2,0.2-0.4
		c0.1-0.1,0.1-0.3,0.1-0.4V180c2-0.7,4.1-1.2,6.2-1.3c1.5,0,3.1,0.2,4.5,0.7s2.9,0.8,4.4,0.8l0,0l5.7-0.2c0.5,0,0.9,0.3,1,0.8
		c0,0.4-0.4,0.8-1,0.8l-10.9,0.5c-0.1,0-0.3,0-0.4,0.1s-0.2,0.1-0.3,0.2c-0.1,0.1-0.2,0.2-0.2,0.4c0,0.1-0.1,0.3-0.1,0.4
		c0,0.1,0,0.3,0.1,0.4c0.1,0.1,0.1,0.3,0.2,0.4c0.1,0.1,0.2,0.2,0.4,0.2c0.1,0,0.3,0.1,0.4,0.1l10.9-0.5c1.1,0,2.2-0.7,2.7-1.7
		l10.9-5.3C301.3,176.5,301.6,176.4,302,176.4L302,176.4z"/>
	<path class="st49" d="M281.1,155.8c-0.1,0-0.3,0-0.4,0.1s-0.2,0.1-0.4,0.2c-0.1,0.1-0.2,0.2-0.2,0.3c-0.1,0.1-0.1,0.3-0.1,0.4v2.1
		l0,0l-1.5-1.5c-0.1-0.1-0.2-0.2-0.3-0.2c-0.1-0.1-0.3-0.1-0.4-0.1s-0.3,0-0.4,0.1s-0.2,0.1-0.4,0.2l-2.5,2.5
		c-0.1,0.1-0.2,0.2-0.2,0.3c-0.1,0.1-0.1,0.3-0.1,0.4c0,0.1,0,0.3,0.1,0.4c0.1,0.1,0.1,0.2,0.2,0.4l1.5,1.5l0,0h-2.1
		c-0.1,0-0.3,0-0.4,0.1s-0.2,0.1-0.3,0.2c-0.1,0.1-0.2,0.2-0.2,0.4c-0.1,0.1-0.1,0.3-0.1,0.4v3.5c0,0.1,0,0.3,0.1,0.4
		c0.1,0.1,0.1,0.2,0.2,0.4c0.1,0.1,0.2,0.2,0.3,0.2c0.1,0.1,0.3,0.1,0.4,0.1h2.1l0,0l-1.5,1.6c-0.1,0.1-0.2,0.2-0.2,0.3
		c-0.1,0.1-0.1,0.3-0.1,0.4c0,0.1,0,0.3,0.1,0.4c0.1,0.1,0.1,0.2,0.2,0.4l2.5,2.5c0.1,0.1,0.2,0.2,0.4,0.2c0.1,0.1,0.3,0.1,0.4,0.1
		s0.3,0,0.4-0.1s0.2-0.1,0.3-0.2l1.5-1.5l0,0v2.1c0,0.1,0,0.3,0.1,0.4c0.1,0.3,0.3,0.5,0.6,0.6c0.1,0.1,0.3,0.1,0.4,0.1h3.6
		c0.1,0,0.3,0,0.4-0.1c0.3-0.1,0.5-0.3,0.6-0.6c0.1-0.1,0.1-0.3,0.1-0.4v-2.1l0,0l1.5,1.5c0.1,0.1,0.2,0.2,0.4,0.2
		c0.1,0.1,0.3,0.1,0.4,0.1s0.3,0,0.4-0.1s0.2-0.1,0.3-0.2l2.5-2.5c0.1-0.1,0.2-0.2,0.2-0.4c0.1-0.1,0.1-0.3,0.1-0.4
		c0-0.1,0-0.3-0.1-0.4c-0.1-0.1-0.1-0.2-0.2-0.3l-1.5-1.5l0,0h2.1c0.1,0,0.3,0,0.4-0.1c0.1,0,0.2-0.1,0.4-0.2
		c0.1-0.1,0.2-0.2,0.2-0.4c0.1-0.1,0.1-0.3,0.1-0.4v-3.5c0-0.1,0-0.3-0.1-0.4c-0.1-0.3-0.3-0.5-0.6-0.6c-0.1-0.1-0.3-0.1-0.4-0.1
		h-2.1l0,0l1.5-1.5c0.1-0.1,0.2-0.2,0.2-0.4c0.1-0.1,0.1-0.3,0.1-0.4c0-0.1,0-0.3-0.1-0.4c-0.1-0.1-0.1-0.2-0.2-0.3l-2.5-2.5
		c-0.1-0.1-0.2-0.2-0.3-0.2c-0.1-0.1-0.3-0.1-0.4-0.1s-0.3,0-0.4,0.1s-0.2,0.1-0.4,0.2l-1.5,1.5l0,0v-2.1c0-0.1,0-0.3-0.1-0.4
		c-0.1-0.1-0.1-0.2-0.2-0.3s-0.2-0.2-0.4-0.2c-0.1-0.1-0.3-0.1-0.4-0.1L281.1,155.8L281.1,155.8z M282.8,160.8c2.8,0,5,2.2,5,5
		s-2.2,5-5,5s-5-2.2-5-5S280.1,160.8,282.8,160.8L282.8,160.8z"/>
</g>
<g class="st53">
	<text transform="matrix(1.1973 0 0 1 242.5581 189.5049)" class="st49 st50 st54">[</text>
	<text transform="matrix(-1.2359 0 0 1 428.3994 189.5049)" class="st49 st50 st54">[</text>
</g>
</svg>
