<?xml version="1.0" encoding="utf-8"?>
<!-- Generator: Adobe Illustrator 21.1.0, SVG Export Plug-In . SVG Version: 6.00 Build 0)  -->
<svg version="1.1" id="Layer_1" xmlns="http://www.w3.org/2000/svg" xmlns:xlink="http://www.w3.org/1999/xlink" x="0px" y="0px"
	 viewBox="0 0 371.1 594.5" style="enable-background:new 0 0 371.1 594.5;" xml:space="preserve">
<style type="text/css">
	.st0{fill:none;stroke:#662D91;stroke-width:13;stroke-miterlimit:10;}
	.st1{fill:none;stroke:#000000;stroke-width:6;stroke-miterlimit:10;stroke-dasharray:12;}
	.st2{opacity:0.33;}
	.st3{fill:none;stroke:#000000;stroke-width:4;stroke-miterlimit:10;}
	.st4{opacity:0.5;fill:none;stroke:#662D91;stroke-width:13;stroke-miterlimit:10;enable-background:new    ;}
	.st5{fill:#662D91;}
	.st6{fill:#030303;}
	.st7{fill:#FEFEFE;}
	.st8{fill:#FDFDFD;}
	.st9{fill:#010101;}
	.st10{fill:#ADADAD;}
	.st11{fill:#1B1464;stroke:#000000;stroke-miterlimit:10;}
	.st12{fill:#006837;stroke:#006837;stroke-miterlimit:10;}
	.st13{fill:#FEFEFE;stroke:#E9BD00;stroke-miterlimit:10;}
	.st14{fill:#FFFFFF;stroke:#7AC943;stroke-miterlimit:10;}
	.st15{fill:#FDFEFD;stroke:#E9BD00;stroke-miterlimit:10;}
	.st16{fill:#FBFDFB;stroke:#E9BD00;stroke-miterlimit:10;}
	.st17{fill:#FDFDFD;stroke:#E9BD00;stroke-miterlimit:10;}
	.st18{fill:#FEFEFD;stroke:#E9BD00;stroke-miterlimit:10;}
	.st19{fill:#FCFDFC;stroke:#E9BD00;stroke-miterlimit:10;}
	.st20{fill:#FDFDFC;stroke:#E9BD00;stroke-miterlimit:10;}
	.st21{fill:#FCFDFB;stroke:#E9BD00;stroke-miterlimit:10;}
	.st22{fill:#FDFEFC;stroke:#E9BD00;stroke-miterlimit:10;}
	.st23{fill:#FAFCF9;stroke:#E9BD00;stroke-miterlimit:10;}
	.st24{fill:#FBFDFA;stroke:#E9BD00;stroke-miterlimit:10;}
	.st25{fill:#F9FCF8;stroke:#E9BD00;stroke-miterlimit:10;}
	.st26{fill:#F9FCF7;stroke:#E9BD00;stroke-miterlimit:10;}
	.st27{fill:#F8FBF6;stroke:#E9BD00;stroke-miterlimit:10;}
	.st28{fill:#FAFCF8;stroke:#E9BD00;stroke-miterlimit:10;}
	.st29{fill:#F3F9EF;stroke:#E9BD00;stroke-miterlimit:10;}
	.st30{fill:#7AC34E;stroke:#E9BD00;stroke-miterlimit:10;}
	.st31{fill:#F7FBF5;stroke:#E9BD00;stroke-miterlimit:10;}
	.st32{fill:#A1D583;stroke:#E9BD00;stroke-miterlimit:10;}
	.st33{fill:#F5FAF2;stroke:#E9BD00;stroke-miterlimit:10;}
	.st34{fill:#F2F8ED;stroke:#E9BD00;stroke-miterlimit:10;}
	.st35{fill:#EAF5E3;stroke:#E9BD00;stroke-miterlimit:10;}
	.st36{fill:#C7E6B5;stroke:#E9BD00;stroke-miterlimit:10;}
	.st37{enable-background:new    ;}
	.st38{fill:#FFFFFF;}
	.st39{font-family:'GillSans';}
	.st40{font-size:25px;}
	.st41{opacity:0.7;}
	.st42{opacity:0.7;fill:#FFFFFF;enable-background:new    ;}
	.st43{opacity:0.5;}
	.st44{stroke:#000000;stroke-miterlimit:10;}
	.st45{fill:none;stroke:#000000;stroke-width:2;stroke-miterlimit:10;}
	.st46{fill:none;stroke:#000000;stroke-width:3;stroke-miterlimit:10;}
	.st47{fill:#FFFFFF;stroke:#000000;stroke-miterlimit:10;}
	.st48{fill:#F2F2F2;stroke:#F2F2F2;stroke-miterlimit:10;}
	.st49{fill:#FFFFFF;stroke:#000000;stroke-width:0.75;stroke-miterlimit:10;}
	.st50{stroke:#000000;stroke-width:0.75;stroke-miterlimit:10;}
</style>
<title>Our Model- For Smallscreen_Final</title>
<circle class="st0" cx="82.9" cy="81.8" r="75.3"/>
<line class="st1" x1="118.4" y1="310" x2="36.3" y2="308.7"/>
<g class="st2">
	<line class="st3" x1="81.3" y1="314" x2="80.4" y2="369"/>
	<line class="st3" x1="100.1" y1="322.4" x2="61.6" y2="360.6"/>
	<line class="st3" x1="62.2" y1="321.8" x2="99.5" y2="361.2"/>
	<line class="st3" x1="54" y1="341.1" x2="107.7" y2="341.9"/>
	<polyline class="st3" points="92.8,363.6 92.9,354.2 102,354.4 	"/>
	<polyline class="st3" points="104.3,348.5 98,341.8 104.5,335.3 	"/>
	<polyline class="st3" points="102.2,329.5 93.1,329.3 93.2,320 	"/>
	<polyline class="st3" points="87.7,317.3 81.1,323.8 74.8,317.1 	"/>
	<polyline class="st3" points="68.8,319.2 68.6,328.6 59.5,328.5 	"/>
	<polyline class="st3" points="56.8,334.5 63.2,341.2 56.6,347.7 	"/>
	<polyline class="st3" points="59,354 68.1,354.1 68,363.5 	"/>
	<polyline class="st3" points="74,366 80.6,359.5 86.9,366.2 	"/>
</g>
<path d="M80.4,243.9v3h0.4c12.4,0.1,22.4,10.2,22.3,22.6s-10.2,22.4-22.6,22.3H80c-12.4-0.2-22.3-10.4-22.1-22.8l0,0
	c0.2-12.2,10.2-22,22.5-22.1V243.9 M80.4,243.9c-14.1-0.1-25.5,11.2-25.6,25.2C54.7,283.2,66,294.6,80,294.7h0.4
	c14.1,0.1,25.5-11.2,25.6-25.2c0.1-14.1-11.2-25.5-25.2-25.6H80.4z"/>
<path d="M80.4,254.4c-8.3-0.1-15.1,6.6-15.1,14.9c-0.1,8.3,6.6,15.1,14.9,15.1h0.2c8.3,0.1,15.1-6.6,15.1-14.9
	c0.1-8.3-6.6-15.1-14.9-15.1H80.4z"/>
<path d="M104.8,266.1l-0.1,9.1l4.1,0.1l0,0c1.5,0,2.7-1.2,2.7-2.6l0.1-3.7c0-1.5-1.2-2.7-2.6-2.7L104.8,266.1L104.8,266.1z"/>
<path d="M56.4,250.5c-0.9,0-1.8,0.5-2.3,1.3l-1.9,3.2c-0.8,1.3-0.3,2.9,0.9,3.7l3.5,2.1l4.7-7.8l-3.5-2.1
	C57.3,250.6,56.9,250.5,56.4,250.5L56.4,250.5z"/>
<path d="M75.5,294.3l-0.1,4.1c0,1.5,1.1,2.7,2.6,2.7l0,0l3.7,0.1l0,0c1.5,0,2.7-1.2,2.7-2.6l0.1-4.1L75.5,294.3L75.5,294.3z"/>
<path d="M56.5,278.1l-3.5,2.2c-1.3,0.8-1.6,2.4-0.8,3.7l0,0l2,3.1c0.8,1.3,2.4,1.6,3.7,0.8l0,0l3.5-2.2L56.5,278.1L56.5,278.1z"/>
<path d="M64.4,288.4l-2.3,3.5c-0.8,1.2-0.5,2.9,0.8,3.7l3.1,2c1.2,0.8,2.9,0.5,3.7-0.8l0,0l2.3-3.4L64.4,288.4z"/>
<path d="M52,265.3c-1.5,0-2.7,1.2-2.7,2.6l-0.1,3.7c0,1.5,1.2,2.7,2.6,2.7l4.1,0.1l0.1-9.1L52,265.3L52,265.3z"/>
<path d="M79,238.2c-1.5,0-2.7,1.2-2.7,2.6l-0.1,4.1l9.1,0.1l0.1-4.1c0-1.5-1.2-2.7-2.6-2.7L79,238.2L79,238.2z"/>
<path d="M96.4,288.4l-7.7,4.9l2.2,3.5c0.8,1.3,2.4,1.6,3.7,0.8l0,0l3.1-2c1.3-0.8,1.6-2.5,0.8-3.7L96.4,288.4z"/>
<path d="M68,240.9c-0.5,0-0.9,0.1-1.3,0.3l-3.3,1.8c-1.3,0.7-1.7,2.4-1,3.6l2,3.6l7.9-4.4l-2-3.6C69.9,241.4,69,240.9,68,240.9
	L68,240.9z"/>
<path d="M105.1,251.7c-0.5,0-0.9,0.1-1.3,0.3l-3.6,2l4.4,7.9l3.6-2c1.3-0.7,1.7-2.4,1-3.6l-1.8-3.2
	C106.9,252.2,106,251.7,105.1,251.7L105.1,251.7z"/>
<path d="M94,241.4c-1,0-1.9,0.6-2.4,1.4l-1.9,3.7l8.1,4.2l1.9-3.7c0.7-1.3,0.2-2.9-1.1-3.6l-3.3-1.7C94.9,241.5,94.5,241.4,94,241.4
	z"/>
<path d="M103.4,278.6l-4.7,7.8l3.5,2.1c1.3,0.8,2.9,0.4,3.7-0.9l0,0l1.9-3.2c0.8-1.3,0.4-2.9-0.9-3.7l0,0L103.4,278.6z"/>
<circle class="st0" cx="81.8" cy="298.7" r="75.3"/>
<circle class="st4" cx="282.9" cy="176.3" r="75.3"/>
<path class="st5" d="M207.6,143.1c-16.5-16.4-38.5-24.8-60.7-22.8l-5.6,0.5l2.7-4.9c3.5-6.3,6.1-13.1,7.8-20.2l1.4-5.9l3.8,4.6
	c16.1,19.5,39.4,30.2,62.9,29.2L207.6,143.1z"/>
<path class="st6" d="M139.3,73c-0.5-2.8-1.3-5.5-2.5-8.1c-2.3-4.6-5.4-8.4-10.4-10.2c-1.5-0.5-3.1-0.8-4.7-1
	c0.8-3.7,0.6-7.2-1.8-10.3c-0.4-0.5-0.8-1-1.6-0.8s-0.9,0.7-1.1,1.3c-1.2,3.5-2.4,6.9-3.5,10.4c-0.1,0.6-0.6,1-1.2,0.9
	c-1.3,0-2.5,0-3.8,0c-0.6,0-0.8-0.3-1-0.8c-1.2-3.4-2.4-6.8-3.6-10.2c-0.2-0.7-0.4-1.4-1.2-1.5s-1.3,0.5-1.8,1.1
	c-2,2.7-2.6,6.1-1.8,9.3c0.1,0.7,0.1,0.9-0.7,1c-3.3,0.3-6.5,1.7-9,4c-4.6,4.2-6.8,9.6-7.7,15.6c-0.2,1.4,0.3,1.9,1.7,1.8
	c2.6-0.2,5.1-0.7,7.5-1.7C91,74.2,91,74.4,91,74.6c-0.8,3.5-1.2,7.2-1.1,10.8c0.1,3.9,0.7,7.8,3,11.2c0.6,0.8,1.7,1.5,1.8,2.4
	s-0.8,1.9-1,2.9c-1.9,6.5-2.3,13.4-1.2,20.1c1,6,4.2,11.4,9,15c0.7,0.6,1.6,0.9,2.5,0.9c1.7-0.1,3.3,0,5,0c1.4,0,1.7-0.3,1.7-1.8
	c0-3.7,0-7.5-0.1-11.2c0-0.9,0.2-1.2,1.1-1.2s0.7,0.7,0.7,1.1c0,3.8,0,7.5,0.1,11.3c0,1.3,0.4,1.7,1.7,1.7c1.7,0,3.4,0,5.2,0
	c0.7,0,1.4-0.2,2-0.7c5.9-4.6,8.9-10.8,9.5-18.1c0.3-4,0.1-8.1-0.5-12.1c-0.2-2.9-1.1-5.8-2.6-8.3c-0.3-0.5,0-0.7,0.2-1
	c1.2-1.5,2-3.3,2.5-5.1c1.9-6.3,1-12.5-0.3-18.7c0.4-0.1,0.7,0.1,1,0.2c2,0.7,4.1,1.1,6.2,1.2C139.2,75.2,139.6,74.7,139.3,73z
	 M118.8,46.8c0.7,1.4,0.9,2.9,0.7,4.4c-0.2,2.7-0.5,3-3.4,3.4L118.8,46.8z M102.2,46.7l2.8,7.9c-0.1,0-0.2,0.1-0.3,0.1
	c-2.6-0.3-3-0.7-3.2-3.3C101.3,49.8,101.5,48.1,102.2,46.7z M107.2,135.1c-0.6-0.1-1.1-0.1-1.7,0c-1.7,0.2-3.3-0.4-4.4-1.7
	c-3.6-3.6-5.9-8.3-6.6-13.3c0-0.2,0-0.5,0-0.7l2.7,1.8c1.6,1.3,3.8,1.6,5.7,0.7c0.2-0.1,0.6-0.1,0.8,0.1c1.1,0.7,2.4,1.1,3.7,1.3
	c0.5,0.1,0.6,0.3,0.6,0.8c0,3.5,0,7,0,10.4C107.9,135,107.7,135.2,107.2,135.1z M128.1,111.7c0.3,4.9,0.2,9.9-1.8,14.5
	c-1.3,3.1-3.2,5.8-5.7,8c-0.7,0.7-1.6,1-2.6,0.9c-1.1-0.1-2.5,0.5-3.1-0.2s-0.2-2-0.2-3.1c0-2.6,0-5.2-0.1-7.8c0-0.7,0.2-0.9,0.8-1
	c1.1-0.2,2.2-0.7,3.1-1.3c0.6-0.3,0.9-1.1,0.6-1.7c0,0,0-0.1-0.1-0.1c-0.4-0.7-1.1-0.8-1.9-0.3c-1.1,0.7-2.4,1.1-3.7,1.2
	c-2.6,0.4-5.2,0.2-7.7-0.6c-0.7-0.2-1.1-0.5-0.8-1.4c0.5-1.3,0.3-2.8-0.4-4c-0.5-0.9-0.8-2-0.8-3c0-1.2-0.3-2.4-0.8-3.4
	c-1.4-2.9-3.4-3.9-6.6-3.6L95,105c0.3-1.4,0.7-2.8,1.2-4.2c0.2-0.5,0.4-0.5,0.8-0.3c3.2,1.7,6.6,2,10.2,1.8c0.6,0,1.2-0.5,1.2-1.1
	c0-0.1,0-0.1,0-0.2c0-0.7-0.5-1.2-1.2-1.2c-0.1,0-0.2,0-0.2,0c-2.1,0.1-4.3-0.1-6.4-0.7c-1.8-0.6-3.4-1.5-4.8-2.8
	c-0.7-0.7-0.6-1.1,0-1.7c2.2-2.2,5-3.7,8-4.2c6.5-1.3,13.2-0.6,19.2,1.9c0.9,0.4,1.8,0.9,2.7,1.5c0.5,0.3,0.5,0.6,0.2,1.1
	c-2,2.6-4.9,4.3-8.2,4.7c-1.3,0.2-2.5,0.2-3.8,0.2c-1,0-1.6,0.5-1.6,1.3s0.7,1.3,1.5,1.3c0.5,0,0.9,0,1.4,0c1.1,0,2.2-0.3,2.7,1.2
	c0.1,0.4,0.7,0.6,1.1,0.8c1.1,0.4,1.9,1.2,2.2,2.3c0.3,0.7,0.6,1.3,0.9,1.9c0.8,1.8,2.7,2.9,4.7,2.7
	C127.6,111.2,128.1,111,128.1,111.7L128.1,111.7z M134.4,72.2c-5.8-1.2-9.9-4.5-11.7-10.3c-0.1-0.4-0.2-0.8-0.3-1.2
	c-0.2-0.7-0.9-1-1.5-0.8s-0.9,0.7-0.9,1.3c0,0.5,0.1,0.9,0.2,1.3c0.9,3.6,3,6.7,6,8.9c0.6,0.4,1,1,1.1,1.7c1.3,4.7,1.8,9.6,1.4,14.5
	c-0.2,1.3-0.4,2.5-0.7,3.7c-0.2,0.7-0.4,0.7-1,0.3c-8-4.5-16.6-5.3-25.4-3c-3,0.8-5.6,2.4-7.6,4.7c-1.3-3.1-1.9-6.4-1.7-9.7
	c0.1-3.6,0.6-7.2,1.6-10.7c0.1-0.5,0.4-1,0.8-1.2c3-2.3,5.2-5.5,6.1-9.2c0.1-0.2,0.1-0.5,0.1-0.7c0.2-0.8,0-1.5-0.9-1.7
	s-1.3,0.2-1.6,1.3c-1.4,6-5.4,9.4-11.4,11c-2.7,0.7-2.7,0.6-1.9-2c1-3.9,3.1-7.5,6-10.3c2.5-2.3,5.7-3.6,9.1-3.7
	c1.1,0.1,2.2,0.3,3.2,0.6c5.1,1.2,10.5,1,15.6-0.4c1.4-0.3,2.9-0.4,4.3-0.1c0.5,0.1,0.7,0.3,0.5,0.8c-0.2,0.8-0.3,1.7-0.2,2.5
	c-0.1,1.9,1.2,3.5,3.1,3.7c1.3,0.2,2.4,0.9,3.2,1.8c0.8,0.8,1.5,1.6,2.4,2.4c0.8,0.9,2,1.5,3.2,1.7c0.6,0,0.6,0.5,0.7,0.8
	C136.8,72.6,136.8,72.7,134.4,72.2z"/>
<path class="st7" d="M135.4,69.5c-1.2-0.1-2.4-0.7-3.2-1.7c-0.8-0.8-1.6-1.6-2.4-2.4c-0.9-0.9-2-1.6-3.2-1.8
	c-1.8-0.2-3.2-1.9-3.1-3.7c-0.1-0.8,0-1.7,0.2-2.5c0.2-0.5,0-0.8-0.5-0.8c-1.4-0.3-2.9-0.3-4.3,0.1c-5.1,1.4-10.4,1.5-15.6,0.4
	c-1-0.4-2.1-0.6-3.2-0.6c-3.4,0.1-6.6,1.4-9.1,3.7c-2.9,2.8-5,6.3-6,10.3c-0.8,2.6-0.7,2.7,1.9,2c6-1.5,10-5,11.4-11.2
	c0.2-1,0.8-1.5,1.6-1.3s1.1,0.9,0.9,1.7c-0.1,0.2-0.1,0.5-0.1,0.7c-0.9,3.7-3,7-6.1,9.2c-0.4,0.3-0.7,0.7-0.8,1.2
	c-0.9,3.5-1.5,7.1-1.6,10.8c-0.2,3.3,0.4,6.6,1.7,9.7c2-2.3,4.7-3.9,7.6-4.7c8.8-2.3,17.3-1.5,25.4,3c0.6,0.3,0.8,0.4,1-0.3
	c0.3-1.2,0.6-2.5,0.7-3.7c0.4-4.9-0.1-9.8-1.4-14.5c-0.1-0.7-0.5-1.3-1.1-1.7c-3-2.2-5.1-5.4-6-8.9c-0.1-0.4-0.2-0.9-0.2-1.3
	c-0.1-0.7,0.5-1.3,1.1-1.3s1.1,0.3,1.3,0.9c0.1,0.4,0.2,0.8,0.3,1.2c1.8,5.9,5.8,9.1,11.6,10.3c2.4,0.5,2.4,0.5,1.7-1.8
	C136,69.9,136,69.5,135.4,69.5z M102.4,81.2c-1.2,0.1-2.3-0.8-2.4-2s0.8-2.3,2-2.4c0.1,0,0.2,0,0.3,0c1.2,0.1,2.2,1.1,2.1,2.3
	C104.4,80.2,103.5,81.1,102.4,81.2z M121.6,79c-0.1,1.2-1,2.1-2.2,2.2c-1.2,0-2.2-1-2.2-2.2c0-1.1,0.9-2.1,2-2.2
	C120.4,76.9,121.4,77.8,121.6,79L121.6,79z"/>
<path class="st7" d="M122.6,108.5c-0.3-0.6-0.7-1.2-0.9-1.9c-0.3-1.1-1.1-2-2.2-2.3c-0.4-0.1-1-0.4-1.1-0.8
	c-0.5-1.4-1.6-1.2-2.7-1.2c-0.5,0-0.9,0-1.4,0c-0.8,0-1.4-0.3-1.5-1.2s0.6-1.3,1.6-1.3c1.3,0,2.5,0,3.8-0.2c3.3-0.3,6.2-2,8.2-4.7
	c0.3-0.5,0.4-0.8-0.2-1.1c-0.9-0.6-1.8-1.1-2.7-1.5c-6.1-2.5-12.8-3.2-19.2-1.9c-3,0.5-5.8,2-8,4.2c-0.6,0.6-0.7,1,0,1.7
	c1.3,1.3,3,2.3,4.8,2.8c2.1,0.6,4.2,0.8,6.4,0.7c0.7-0.1,1.3,0.3,1.4,1c0,0.1,0,0.2,0,0.2c0.1,0.6-0.4,1.2-1,1.3c-0.1,0-0.1,0-0.2,0
	c-3.5,0.2-7-0.1-10.2-1.8c-0.4-0.2-0.7-0.2-0.8,0.3c-0.6,1.4-1,2.8-1.2,4.2l1.3-0.2c3.2-0.4,5.2,0.7,6.6,3.6
	c0.5,1.1,0.8,2.3,0.8,3.4c0,1,0.3,2.1,0.8,3c0.7,1.2,0.8,2.7,0.4,4c-0.3,0.9,0.1,1.2,0.8,1.4c2.5,0.8,5.1,1,7.7,0.6
	c1.3-0.1,2.6-0.5,3.7-1.2c0.8-0.5,1.5-0.4,1.9,0.3c0.4,0.6,0.2,1.4-0.4,1.7c0,0-0.1,0-0.1,0.1c-0.9,0.6-2,1.1-3.1,1.3
	c-0.6,0.1-0.8,0.3-0.8,1c0.1,2.6,0,5.2,0.1,7.8c0,1.1-0.4,2.5,0.2,3.1s2.1,0.1,3.1,0.2c0.9,0.1,1.9-0.2,2.6-0.9
	c2.5-2.2,4.4-4.9,5.7-8c2-4.7,2-9.6,1.8-14.5c0-0.7-0.5-0.4-0.8-0.4C125.3,111.4,123.4,110.3,122.6,108.5z M108.9,97.9
	c-0.3,0.2-0.6,0.1-0.8-0.2c0,0,0-0.1-0.1-0.1c-0.9-2.2-2.8-2.6-4.8-2.8c-0.5-0.1-0.9-0.2-0.9-0.7s0.5-0.7,1-0.6c2,0.3,4,0.8,5.3,2.6
	c0.2,0.3,0.3,0.6,0.5,0.9C109.3,97.3,109.2,97.7,108.9,97.9C108.9,97.8,108.9,97.8,108.9,97.9L108.9,97.9z M112.4,96.9
	c0.4-1,1.2-1.9,2.2-2.4c1.1-0.6,2.4-0.9,3.6-1c0.5,0,0.9,0.1,0.9,0.7s-0.3,0.6-0.8,0.6c-1.3,0-2.6,0.5-3.7,1.2
	c-0.5,0.4-0.8,0.9-1.1,1.4c-0.2,0.4-0.4,0.6-0.8,0.4S112.3,97.4,112.4,96.9L112.4,96.9z"/>
<path class="st7" d="M107.3,123.3c-1.3-0.2-2.5-0.6-3.7-1.3c-0.2-0.2-0.5-0.2-0.8-0.1c-1.9,0.9-4.1,0.6-5.7-0.7l-2.6-1.8
	c0,0.2,0,0.5,0,0.7c0.7,5.1,3,9.7,6.6,13.3c1.1,1.3,2.7,1.9,4.4,1.7c0.6-0.1,1.1-0.1,1.7,0c0.6,0,0.7-0.1,0.7-0.7c0-3.5,0-7,0-10.4
	C107.9,123.6,107.8,123.4,107.3,123.3z"/>
<path class="st8" d="M104.7,54.7c0.1,0,0.2-0.1,0.3-0.1l-2.8-7.9c-0.7,1.4-0.9,3-0.7,4.6C101.7,54,102.1,54.4,104.7,54.7z"/>
<path class="st8" d="M119.5,51.2c0.2-1.5-0.1-3-0.7-4.4l-2.6,7.8C119,54.2,119.3,53.9,119.5,51.2z"/>
<path class="st9" d="M102.3,76.8c-1.2-0.1-2.3,0.9-2.3,2.1c-0.1,1.2,0.9,2.3,2.1,2.3c0.1,0,0.2,0,0.3,0c1.2-0.1,2.1-1.2,2-2.4
	C104.3,77.7,103.4,76.8,102.3,76.8z M102.3,79.2c-0.1,0-0.2-0.2-0.3-0.3c0.1-0.1,0.2-0.2,0.3-0.2s0.2,0.1,0.3,0.3
	C102.5,79.1,102.4,79.2,102.3,79.2L102.3,79.2z"/>
<path class="st9" d="M117.1,79c0.1,1.2,1.1,2.1,2.3,2.2c1.1-0.2,2-1.1,2.1-2.3c-0.2-1.2-1.1-2.1-2.3-2.2
	C118.1,76.9,117.2,77.9,117.1,79z M119.5,79c0,0.1-0.1,0.2-0.2,0.2c0,0,0,0-0.1,0c-0.1-0.1-0.2-0.2-0.2-0.3c0-0.1,0.1-0.2,0.2-0.5
	C119.4,78.8,119.6,78.9,119.5,79L119.5,79z"/>
<path class="st6" d="M113.6,97.4c0.2-0.6,0.6-1,1.1-1.4c1.1-0.8,2.4-1.2,3.8-1.2c0.4,0,0.8-0.2,0.8-0.6s-0.4-0.7-0.9-0.7
	c-1.3,0.1-2.5,0.4-3.6,1c-1,0.5-1.8,1.4-2.2,2.4c-0.2,0.4-0.1,0.8,0.3,0.9S113.4,97.8,113.6,97.4z"/>
<path class="st6" d="M108.8,96.1c-1.3-1.9-3.2-2.3-5.3-2.6c-0.5-0.1-1,0-1,0.6s0.4,0.6,0.9,0.7c2,0.2,3.9,0.7,4.8,2.8
	c0.1,0.3,0.4,0.4,0.7,0.3c0,0,0.1,0,0.1-0.1c0.3-0.1,0.5-0.4,0.3-0.7l0,0C109.1,96.7,109,96.4,108.8,96.1z"/>
<path class="st10" d="M102,79c0.1,0.1,0.2,0.2,0.3,0.3s0.2-0.1,0.4-0.2c-0.2-0.1-0.2-0.3-0.3-0.3S102.1,78.9,102,79z"/>
<path class="st10" d="M119.3,79.2c0.1,0,0.2,0,0.3-0.1c0,0,0,0,0-0.1s-0.1-0.2-0.3-0.6c-0.1,0.3-0.2,0.4-0.2,0.5
	C119.1,79.1,119.2,79.2,119.3,79.2z"/>
<path class="st11" d="M34.2,62c-0.7-0.6-1.3-1.4-1.8-2.3c-1-1.9-1.7-3.9-2.2-5.9c-0.8-3.1-1.4-6.2-1.9-9.3c-0.1-0.4-0.1-0.8-0.2-1.2
	c-0.1-0.2,0-0.5,0.3-0.6h0.1c0.3-0.1,0.5,0.1,0.6,0.4c0.3,1.5,0.5,2.9,0.8,4.3c0.6,3.7,1.5,7.2,2.9,10.7c0.4,1.1,1,2,1.8,2.8
	c0.4,0.4,0.9,0.7,1.5,0.8c0.2,0,0.4,0.1,0.3-0.3c-0.8-4.3-1.5-8.6-2.2-12.8l-1.1-6.3c-0.1-0.4,0.1-0.7,0.4-0.7s0.5,0.2,0.6,0.5
	c0.8,4.5,1.5,9,2.3,13.5c0.3,1.9,0.7,3.8,1,5.7c0,0.3,0.1,0.3,0.3,0.2c0.5-0.3,1-0.7,1.2-1.3c0.4-0.9,0.7-1.8,0.7-2.8
	c0.2-2.9,0.1-5.7-0.4-8.6c-0.3-2.3-0.7-4.7-1.1-7c0-0.1,0-0.2,0-0.3c0-0.3,0.1-0.5,0.4-0.6c0.2,0,0.5,0.1,0.5,0.4v0.1
	c0.1,0.8,0.3,1.6,0.4,2.4c0.3,1.8,0.6,3.6,0.8,5.4c0.4,2.7,0.5,5.4,0.4,8.1c-0.1,1.3-0.4,2.5-1,3.6c0.2,0.1,0.3,0,0.4-0.1
	c2.3-1,3.8-3.1,4.2-5.5c0.3-1.8,0.4-3.7,0.2-5.5c-0.2-3-0.8-5.9-1.4-8.9c-0.1-0.5,0-0.8,0.4-0.8c0.2,0,0.5,0.1,0.5,0.4v0.1
	c0.2,1,0.4,2.1,0.6,3.1c0.3,1.8,0.6,3.6,0.8,5.4c0.4,2.6,0.2,5.2-0.5,7.7c-1,2.9-3.3,5-6.3,5.7c-0.6,0.2-0.6,0.2-0.5,0.8
	c0.1,0.4,0.1,0.7,0.2,1.1c0,0.4,0.3,0.7,0.6,0.8c3.4,1.2,6.8,2.3,10.2,3.5c0.3,0.1,0.4,0,0.5-0.2c1.8-3.6,3.6-7.2,5.4-10.8
	c0.4-1,1.4-1.6,2.5-1.5c6.2,0,12.4,0,18.6,0c1-0.1,2,0.6,2.4,1.5c2,4.6,4.1,9.1,6.2,13.6c2.2,4.7,4.3,9.4,6.5,14
	c0.3,0.6,0.4,1.3,0.1,1.9c-0.1,0.1,0,0.2,0.1,0.2c3.4,1.5,4.9,4.4,5.7,7.8c0.3,1.5,0.5,3,0.5,4.6c0,0.3-0.1,0.4-0.4,0.4
	c-0.8,0-0.8,0-0.9,0.9c-0.1,1.6-0.3,3.2-0.5,4.8c-0.1,1.3-0.2,2.5-0.4,3.8c-0.2,1.6-0.3,3.1-0.5,4.7c-0.1,0.7-0.1,1.4-0.2,2.2
	s0,0.6-0.6,0.6c-3.4,0-6.9,0-10.3,0c-0.4,0-0.5-0.1-0.5-0.5c-0.1-1.6-0.3-3.2-0.5-4.8s-0.3-3.1-0.4-4.6s-0.3-3.1-0.5-4.7
	c-0.1-0.7-0.2-1.3-0.2-2c0-0.3-0.1-0.4-0.4-0.4c-0.8,0-0.8,0-0.8-0.9c0-2.8,0.7-5.6,2-8.1c0.7-1.2,1.6-2.3,2.8-3.1
	c0.3-0.2,0.2-0.4,0.1-0.6l-5.9-12.9c-0.3-0.7-0.6-1.3-1-1.9c0,0.1,0,0.3,0,0.4c0,6.9,0.1,13.8,0,20.7c-0.1,13.5,0,27.1-0.1,40.6
	c0.1,0.9-0.6,1.8-1.6,1.8c-0.1,0-0.1,0-0.2,0c-2.4,0-4.7,0-7.1,0c-0.9,0-1.7-0.7-1.8-1.7c0-0.1,0-0.1,0-0.2c0-12.4,0-24.7,0-37.1
	c0-0.4-0.1-0.6-0.5-0.5c-0.5,0-0.9,0-1.4,0c-0.3,0-0.4,0.1-0.3,0.4c0,0.1,0,0.2,0,0.3c0,12.3,0,24.7,0,37c0,0.3,0,0.6-0.1,0.9
	c-0.2,0.7-0.9,1.2-1.7,1.1h-7c-1,0-1.8-0.7-1.8-1.7v-0.1c0-1.2,0-2.4,0-3.6c0-6,0-12.1,0-18.1c0-5.7,0.1-11.5,0-17.2
	c-0.1-8,0-16.1-0.1-24.1c0-0.1,0-0.2-0.1-0.3c-0.3,0.6-0.7,1.2-0.9,1.9c-0.5,1.1-1.6,1.9-2.9,1.9c-1.3,0-2.6-0.3-3.8-0.9l-7.7-2.7
	c0.1,0.6,0.2,1.2,0.3,1.8l1.2,7.3l1.2,7.2l1.2,6.8l1.1,6.7l1.1,6.7l1.2,7.2l1.1,6.7l1.2,6.8c0.2,1,0.4,2.1,0.5,3.1
	c0.1,0.6-0.2,1.1-0.7,1.3c-0.5,0.1-1.1-0.2-1.2-0.7c0-0.1,0-0.2,0-0.3c-0.4-2.1-0.7-4.2-1.1-6.2l-1.2-6.6l-1.1-6.7l-1.2-6.7
	l-1.2-7.2c-0.4-2.2-0.8-4.5-1.1-6.7c-0.4-2.4-0.8-4.8-1.2-7.2l-1.2-7.3c-0.3-2-0.7-4.1-1-6.1c0-0.2-0.2-0.4-0.4-0.4
	c-0.7-0.2-1.4-0.5-2.1-0.7c-1-0.3-1.6-1.3-1.3-2.3v-0.1c0.2-0.8,0.5-1.5,0.8-2.3c0.2-0.7,0.8-1.1,1.5-1.2c0.2,0,0.3-0.1,0.2-0.3
	c0-0.2-0.1-0.3-0.1-0.5C35.7,63,35.7,63,35.1,63c-4.6,0.3-7.5-1.9-9.2-5.5c-0.9-2.1-1.6-4.3-2-6.6c-0.5-2.2-0.8-4.5-1.2-6.7
	c-0.1-0.3,0.1-0.6,0.4-0.6c0,0,0,0,0.1,0c0.3,0,0.5,0.2,0.6,0.5c0.3,1.5,0.5,3.1,0.8,4.6c0.4,2.8,1.2,5.6,2.3,8.3
	c0.7,1.7,2,3.2,3.6,4.2C31.8,61.7,33,61.9,34.2,62z"/>
<path class="st12" d="M57.9,55.9c-1.2,0.1-2.3-0.7-2.6-1.8c-0.2-0.5-0.4-1.1-0.5-1.7L56,53c0.3,0.1,0.5,0.2,0.8,0.3
	c0.5,0.1,0.7-0.1,0.7-0.5c0.3-2.3,0.4-4.6,0.5-6.9c0.3-4.9,4.5-8.5,9.4-8.2c4,0.3,7.3,3.2,8.1,7.1c0.1,0.9,0.2,1.8,0.2,2.8
	c0.1,1.8,0.2,3.5,0.4,5.3c0.1,0.4,0.3,0.6,0.7,0.5c0.6-0.2,1.3-0.5,1.8-0.8l0.2-0.1c0.1,1.8-1.2,3.3-3,3.5l0,0
	c-0.7,0-1.4-0.5-1.7-1.2c-0.3-0.5-0.5-1.1-0.5-1.8c0-0.2,0-0.4,0-0.5c-1.7,1.9-4.1,3-6.7,3s-5-1.1-6.7-3c0,0.7-0.1,1.4-0.4,2.1
	C59.5,55.4,58.8,55.9,57.9,55.9z"/>
<path class="st13" d="M57.9,55.9c1.9-0.5,2.2-2.1,2.2-3.8c3.1,3.8,8.7,4.3,12.4,1.2c0.4-0.3,0.8-0.7,1.2-1.2c0,1.7,0.2,3.2,2.1,3.8
	C75.7,56,75.5,56,75.4,56h-17C58.2,56,58,56.1,57.9,55.9z"/>
<path class="st14" d="M89.2,98.2h-7.1c-0.3,0-0.5,0-0.4,0.4c0.1,0.3,0.1,0.6,0.1,0.9c0,0.2,0.1,0.4-0.3,0.4S81,100,81,99.6
	c0.1-0.8,0.1-1.6,0.2-2.4c0.2-2,0.8-3.9,1.8-5.6c0.6-1.1,1.5-2.1,2.6-2.9c0.2-0.2,0.3-0.2,0.6,0.1c0.5,0.6,1.3,0.9,2,0.6
	c1-0.3,2-0.8,2.9-1.4c0.2-0.2,0.3,0,0.5,0c1.6,0.7,2.9,1.9,3.8,3.4c1,1.7,1.7,3.7,1.9,5.7c0.1,0.9,0.2,1.7,0.2,2.6
	c0,0.3,0,0.4-0.4,0.4s-0.4-0.1-0.4-0.4s0-0.6,0.1-0.8c0.1-0.5-0.1-0.5-0.5-0.5C93.9,98.2,91.5,98.2,89.2,98.2z"/>
<path class="st14" d="M97.1,100.2L97.1,100.2c-0.2,0-0.4,0-0.5-0.2c-0.1-0.1-0.1-0.3-0.1-0.5c0-0.1,0-0.2,0-0.3c0-0.2,0-0.3,0.1-0.5
	c0-0.1,0-0.1,0-0.2l0,0c-0.1,0-0.2,0-0.3,0H81.9v0.1C82,98.8,82,99,82,99.3c0,0.1,0,0.2,0,0.2v0.1c0,0.2,0,0.3-0.1,0.5
	c-0.1,0.1-0.3,0.1-0.4,0.1h-0.1c-0.2,0-0.4,0-0.5-0.2c-0.1-0.1-0.2-0.3-0.1-0.5c0-0.3,0-0.6,0.1-1s0.1-1,0.1-1.4
	c0.2-2,0.8-3.9,1.8-5.7c0.7-1.2,1.6-2.2,2.6-3c0.2-0.2,0.6-0.2,0.8,0c0,0,0.1,0.1,0.1,0.2c0.4,0.5,1.1,0.7,1.7,0.5l0.7-0.3
	c0.8-0.3,1.5-0.6,2.1-1.1c0.2-0.1,0.5-0.1,0.7,0h0.1c1.7,0.7,3,1.9,3.9,3.5c1,1.8,1.7,3.7,1.9,5.8c0.1,0.6,0.1,1.2,0.2,1.8
	c0,0.3,0,0.5,0.1,0.8c0,0.2,0,0.4-0.1,0.5C97.4,100.1,97.2,100.2,97.1,100.2z M96.9,99.7h0.2c0,0,0,0,0-0.1c0-0.3,0-0.6-0.1-0.8
	c0-0.6-0.1-1.2-0.2-1.8c-0.2-2-0.9-3.9-1.9-5.6c-0.8-1.5-2.1-2.6-3.7-3.3h-0.1H91l0,0c-0.7,0.5-1.5,0.9-2.3,1.2L88,89.6
	c-0.8,0.3-1.8,0.1-2.3-0.7l-0.1-0.1l-0.1,0.1c-1,0.8-1.9,1.7-2.5,2.8c-0.9,1.7-1.5,3.6-1.7,5.5c-0.1,0.5-0.1,0.9-0.1,1.4
	s0,0.7-0.1,1c0,0,0,0,0,0.1h0.2v-0.1c0-0.1,0-0.2,0-0.2c0-0.2,0-0.4-0.1-0.6s-0.1-0.4,0-0.5c0.2-0.1,0.4-0.2,0.6-0.2H96
	c0.2,0,0.5,0,0.7,0.2c0.1,0.2,0.2,0.4,0.1,0.6c0,0.1,0,0.3-0.1,0.4C97,99.4,97,99.6,96.9,99.7C96.9,99.8,96.9,99.8,96.9,99.7
	L96.9,99.7z"/>
<path class="st13" d="M52.2,69.3c1.1,0,2.1,0,3.2,0c0.3,0,0.3,0.1,0.3,0.3c0,1.3,0,2.6,0,3.9c0,0.1,0.1,0.3-0.2,0.3
	s-0.1-0.2-0.1-0.3c0-0.8,0-1.6,0-2.4c0-0.2,0.2-0.5-0.1-0.5S55,70.9,55,71.1c-0.4,0.8-0.8,1.6-1.2,2.4c-0.1,0.3-0.4,0.4-0.6,0.4
	c-1.3,0-2.7,0-4,0c-0.3,0-0.4-0.1-0.4-0.3c0-1.3,0-2.6,0-3.8c0-0.3,0.1-0.4,0.4-0.4C50.2,69.3,51.2,69.3,52.2,69.3L52.2,69.3z"/>
<path class="st13" d="M78.2,69.9c0-0.7,0-0.7,0.7-0.7c1.4,0,2.8,0,4.1,0c0.2,0,0.5,0.1,0.5,0.3c0.3,0.7,0.7,1.4,0.9,2.2
	c0.2,0.4,0.4,0.8,0.6,1.2c0.1,0.1,0.1,0.2,0.1,0.3c0,0.3,0,0.5-0.4,0.5c-1.6,0-3.3,0-4.9,0c-0.2,0-0.4-0.1-0.5-0.3
	c-0.2-0.5-0.4-1-0.6-1.5c-0.1-0.2-0.2-0.3-0.4-0.2s-0.1-0.1-0.1-0.2C78.2,71.1,78.2,70.5,78.2,69.9z"/>
<path class="st13" d="M42.6,69.3c1,0,1.9,0,2.9,0c0.3,0,0.4,0,0.4,0.4c0,1.2,0,2.4,0,3.6c0,0.3-0.1,0.3-0.3,0.2
	c-1.9-0.7-3.7-1.3-5.6-1.9c-0.2,0-0.4-0.2-0.4-0.4c-0.1-0.5-0.2-1.1-0.3-1.6c0-0.3,0.1-0.2,0.3-0.2L42.6,69.3L42.6,69.3z"/>
<path class="st13" d="M51.2,66.4l0.3-0.7c0.6-1.2,1.2-2.4,1.8-3.7c0.1-0.2,0.3-0.3,0.5-0.3c0.5,0,1.1,0,1.6,0c0.2,0,0.3,0,0.3,0.3
	c0,1.3,0,2.6,0,3.9c0,0.4-0.1,0.5-0.5,0.5C53.9,66.4,52.6,66.4,51.2,66.4z"/>
<path class="st13" d="M85.3,79c0,0.7,0,1.3,0,2c0,0.2-0.1,0.3-0.3,0.3c-0.2,0-0.4,0-0.6,0c-1,0.2-1.5-0.2-1.8-1.1
	c-0.4-1.1-0.9-2.1-1.4-3.1c-0.1-0.3-0.1-0.4,0.2-0.4c1.2,0,2.5,0,3.7,0c0.2,0,0.3,0.1,0.3,0.3C85.3,77.7,85.3,78.4,85.3,79L85.3,79z
	"/>
<path class="st13" d="M71.6,64.1c0,0.7,0,1.3,0,1.9c0,0.3-0.1,0.4-0.3,0.4c-0.8,0-1.7,0-2.5,0c-0.3,0-0.3-0.2-0.3-0.4
	c0-1.3,0-2.6,0-3.8c0-0.2,0-0.3,0.3-0.3c0.9-0.1,1.8,0,2.7-0.1c0.2,0,0.3,0.1,0.3,0.3C71.6,62.7,71.6,63.4,71.6,64.1z"/>
<path class="st13" d="M82.1,66.4h-3.6c-0.2,0-0.2-0.1-0.2-0.3c0-1.3,0-2.7,0-4c0-0.2,0.1-0.3,0.2-0.2h0.1c0.5,0,1-0.2,1.4,0
	s0.4,0.8,0.6,1.2c0.5,1,0.9,2,1.3,2.9C82,66.1,82.1,66.2,82.1,66.4z"/>
<path class="st13" d="M58.7,64c0-0.7,0-1.3,0-2c0-0.2,0-0.3,0.3-0.3c0.6,0,1.2,0,1.8,0c0.2,0,0.3,0,0.3,0.3c0,1.4-0.1,2.7-0.2,4.1
	c0,0.2-0.1,0.3-0.3,0.3c-0.5,0-1,0-1.6,0c-0.2,0-0.3-0.1-0.3-0.3C58.7,65.4,58.7,64.7,58.7,64L58.7,64z"/>
<path class="st13" d="M65.4,64.1c0,0.7,0,1.3,0,1.9c0,0.3-0.1,0.4-0.4,0.3c-0.5,0-0.9,0-1.4,0c-0.2,0-0.3-0.1-0.3-0.3
	c0-1.3,0-2.7,0-4c0-0.2,0.1-0.3,0.3-0.3c0.5,0,1,0,1.5,0c0.3,0,0.3,0.1,0.3,0.3C65.4,62.7,65.4,63.4,65.4,64.1z"/>
<path class="st13" d="M70,56.4c0.4,0,0.8,0,1.3,0c0.2,0,0.3,0,0.3,0.3c0,0.6,0,1.3,0,1.9c0,0.2,0,0.3-0.2,0.3c-0.9,0-1.8,0-2.7-0.1
	c-0.2,0-0.3-0.1-0.3-0.3c0-0.6,0-1.2,0-1.7c0-0.2,0.1-0.3,0.3-0.3C69.1,56.4,69.6,56.4,70,56.4z"/>
<path class="st15" d="M42.5,68c1,0,2,0,3,0c0.4,0,0.4,0.2,0.4,0.4s0,0.4-0.4,0.4c-2,0-4,0-5.9,0c-0.3,0-0.5-0.2-0.5-0.5v-0.1
	c0-0.2,0.2-0.1,0.3-0.1L42.5,68L42.5,68z"/>
<path class="st13" d="M60.8,56.4c0,0.7,0.1,1.4,0.1,2.1c0,0.2,0,0.3-0.3,0.3c-0.6,0-1.1,0-1.7,0c-0.2,0-0.3,0-0.3-0.2
	c0-0.7,0-1.5,0-2.2C59.4,56.4,60.1,56.4,60.8,56.4z"/>
<path class="st13" d="M65.4,56.4c0,0.7,0,1.5,0,2.2c0,0.2-0.1,0.3-0.3,0.3c-0.5,0-1,0-1.5,0c-0.2,0-0.3-0.1-0.3-0.3
	c0-0.7,0-1.4,0-2.1C64,56.4,64.7,56.4,65.4,56.4z"/>
<path class="st15" d="M50,68.8c0.3-0.8,0.3-0.8,1.1-0.8c1.4,0,2.9,0,4.3,0c0.3,0,0.4,0.1,0.4,0.4s-0.1,0.4-0.4,0.4
	C53.6,68.8,51.8,68.8,50,68.8z"/>
<path class="st15" d="M75.4,64.1c0,0.7,0,1.3,0,2c0,0.2,0,0.4-0.3,0.3s-0.5,0.1-0.5-0.3c-0.1-1.3-0.1-2.7-0.2-4c0-0.2,0-0.3,0.2-0.3
	c0.8-0.1,0.8-0.1,0.8,0.7C75.4,63,75.4,63.5,75.4,64.1z"/>
<path class="st16" d="M82.6,74.3c0.8,0,1.6,0,2.4,0c0.4,0,0.3,0.2,0.3,0.4s0,0.4-0.3,0.4c-1.5,0-3,0-4.5,0c-0.2,0-0.6-0.5-0.6-0.7
	s0.2-0.1,0.3-0.1L82.6,74.3z"/>
<path class="st15" d="M83.3,68.8h-4.8c-0.2,0-0.3-0.1-0.3-0.3S78.1,68,78.5,68h4.2c0.1,0,0.2,0.1,0.3,0.2L83.3,68.8z"/>
<path class="st13" d="M45.1,67.6h-5.9c-0.4,0-0.2-0.4-0.3-0.6s0.2-0.2,0.3-0.2c1.2,0,2.4,0,3.6,0c0.7,0.1,1.4,0.3,2,0.6L45.1,67.6z"
	/>
<path class="st17" d="M77.8,64.1c0,0.7,0,1.3,0,2c0,0.2,0,0.4-0.3,0.3S77,66.5,77,66.1c0-1.4,0-2.7,0-4.1c0-0.4,0.3-0.2,0.5-0.2
	s0.4,0,0.4,0.3C77.8,62.7,77.8,63.4,77.8,64.1z"/>
<path class="st15" d="M58.2,64c0,0.7,0,1.3,0,2c0,0.2,0,0.4-0.3,0.3s-0.5,0.1-0.5-0.3c0-0.1,0-0.2,0-0.2c0-1.3,0-2.5,0-3.8
	c0-0.3,0.2-0.3,0.4-0.3s0.5-0.1,0.4,0.3C58.2,62.7,58.2,63.4,58.2,64z"/>
<path class="st15" d="M85.7,79c0-0.6,0-1.3,0-1.9c0-0.3,0.1-0.4,0.4-0.4s0.5,0,0.5,0.3c0,1.2,0,2.4,0,3.7c0,0.2,0.2,0.6-0.3,0.6
	s-0.5-0.1-0.5-0.5C85.7,80.2,85.7,79.6,85.7,79z"/>
<path class="st13" d="M50.6,67.6c0.2-0.8,0.2-0.8,1-0.8h3.8c0.3,0,0.5,0,0.4,0.4s0,0.4-0.4,0.4c-1.5,0-3,0-4.5,0H50.6z"/>
<path class="st15" d="M47.1,71.6c0,0.6,0,1.2,0,1.8c0,0.2,0.2,0.5-0.3,0.5s-0.6-0.1-0.6-0.5c0-0.8,0-1.7,0-2.5c0-0.4,0-0.8,0-1.3
	s0.2-0.3,0.4-0.3s0.4-0.1,0.4,0.3C47.1,70.2,47.1,70.9,47.1,71.6z"/>
<path class="st13" d="M58.6,73c0-0.9,0-1.8,0-2.6c0-1.1,0-1.1,1.1-1.1h0.5C60.1,70.6,59.5,71.9,58.6,73z"/>
<path class="st15" d="M57.4,71.5c0-0.7,0-1.3,0-2c0-0.4,0.2-0.3,0.4-0.3s0.4-0.1,0.4,0.3c0,1.2,0,2.5,0,3.7c0,0.2-0.2,0.5-0.4,0.5
	c-0.2,0.1-0.4,0.1-0.4-0.3C57.4,72.8,57.4,72.2,57.4,71.5L57.4,71.5z"/>
<path class="st15" d="M77.8,71.5c0,0.6,0,1.3,0,1.9c0,0.2,0.1,0.4-0.2,0.4s-0.5,0.1-0.6-0.3c0-0.1,0-0.2,0-0.3c0-1.2,0-2.4,0-3.6
	c0-0.3,0.1-0.4,0.4-0.3s0.5,0,0.4,0.3C77.8,70.2,77.8,70.9,77.8,71.5z"/>
<path class="st18" d="M57,64c0,0.7,0,1.3,0,2c0,0.3-0.1,0.4-0.4,0.4s-0.4-0.1-0.4-0.4c0-0.7,0-1.4,0-2.1c0-0.7,0-1.3,0-1.9
	c0-0.4,0.2-0.3,0.4-0.3s0.4,0,0.4,0.3C57,62.7,57,63.4,57,64L57,64z"/>
<path class="st13" d="M80.4,75.5c1.5,0,3,0,4.5,0c0.4,0,0.2,0.2,0.3,0.4s0,0.4-0.3,0.3c-1.3,0-2.6,0-4,0
	C80.4,76.2,80.5,75.7,80.4,75.5L80.4,75.5z"/>
<path class="st13" d="M75.8,64.1c0-0.7,0-1.3,0-2c0-0.3,0.1-0.4,0.4-0.3s0.5-0.1,0.5,0.3c0,1.3,0,2.7,0,4c0,0.4-0.3,0.3-0.5,0.3
	s-0.3-0.1-0.3-0.3C75.8,65.4,75.8,64.7,75.8,64.1L75.8,64.1z"/>
<path class="st15" d="M66.7,64.1c0,0.7,0,1.3,0,2c0,0.2,0,0.4-0.3,0.4s-0.4,0-0.4-0.3c0-1.3,0-2.7,0-4.1c0-0.3,0.2-0.2,0.4-0.2
	s0.4-0.1,0.4,0.3C66.7,62.7,66.7,63.4,66.7,64.1z"/>
<path class="st19" d="M67.9,64.1c0,0.7,0,1.3,0,2c0,0.2,0,0.3-0.2,0.3s-0.4,0.1-0.5-0.2c0-0.1,0-0.3,0-0.4c0-1.2,0-2.4,0-3.6
	c0-0.3,0.1-0.4,0.4-0.4s0.4,0.1,0.4,0.4C68,62.8,68,63.5,67.9,64.1L67.9,64.1z"/>
<path class="st13" d="M56.2,71.5c0-0.7,0-1.3,0-1.9c0-0.3,0.2-0.3,0.4-0.3s0.4-0.1,0.4,0.3c0,1.3,0,2.7,0,4c0,0.3-0.2,0.3-0.4,0.3
	s-0.4,0.1-0.4-0.3C56.2,72.9,56.2,72.2,56.2,71.5z"/>
<path class="st13" d="M48.3,71.6c0,0.7,0,1.3,0,2c0,0.3-0.1,0.3-0.4,0.3s-0.5,0.1-0.4-0.3c0-1.3,0-2.6,0-4c0-0.4,0.2-0.3,0.4-0.3
	s0.4-0.1,0.4,0.3C48.3,70.2,48.3,70.9,48.3,71.6z"/>
<path class="st13" d="M80.4,67.6c-0.7,0-1.3,0-1.9,0c-0.3,0-0.3-0.2-0.3-0.4s-0.1-0.4,0.3-0.4c1.2,0,2.4,0,3.6,0
	c0.2,0,0.6,0.5,0.5,0.7s-0.2,0.1-0.2,0.1L80.4,67.6z"/>
<path class="st20" d="M76.6,73.4c-0.5-0.3-0.8-0.9-0.8-1.5c0-0.8,0-1.5,0-2.3c0-0.4,0.2-0.3,0.4-0.3s0.4,0,0.4,0.3
	C76.6,70.8,76.6,72,76.6,73.4z"/>
<path class="st15" d="M87,77c0.3,0.7,0.8,1.3,0.8,2.1c0,0.6,0,1.3,0,1.9c0,0.2-0.1,0.3-0.3,0.3S87,81.4,87,81.1
	C86.9,79.7,87,78.4,87,77z"/>
<path class="st15" d="M74.3,57.6c0-0.2,0-0.3,0-0.5c0-0.8,0.2-0.9,0.9-0.7c0.2,0,0.2,0.1,0.2,0.3c0,0.6,0,1.2,0,1.8
	c0,0.3-0.1,0.4-0.4,0.4c-0.8,0-0.7,0.1-0.7-0.7C74.3,58,74.3,57.8,74.3,57.6L74.3,57.6z"/>
<path class="st20" d="M70,67.6h-1.3c-0.2,0-0.3,0-0.3-0.3s-0.2-0.5,0.2-0.5c0.9-0.1,1.8,0,2.7,0c0.4,0,0.2,0.3,0.2,0.5
	s0,0.3-0.2,0.3C70.9,67.6,70.4,67.6,70,67.6z"/>
<path class="st15" d="M69.9,61.4c-0.4,0-0.9,0-1.3,0s-0.2-0.2-0.3-0.4s-0.1-0.4,0.2-0.4c0.9,0,1.8,0,2.7,0c0.3,0,0.3,0.2,0.3,0.4
	s0.1,0.4-0.3,0.4S70.4,61.4,69.9,61.4z"/>
<path class="st15" d="M70,59.3c0.4,0,0.9,0,1.3,0s0.2,0.2,0.3,0.4s0.1,0.4-0.3,0.4c-0.9,0-1.8,0-2.7,0c-0.3,0-0.2-0.2-0.2-0.4
	s0-0.4,0.3-0.4C69.1,59.3,69.6,59.3,70,59.3z"/>
<path class="st21" d="M52.9,74.2c-0.7,0.6-1.7,0.8-2.6,0.6c-0.5,0-0.9-0.1-1.4-0.3c-0.1,0-0.2-0.1-0.2-0.2s0.1-0.1,0.2-0.1H52.9z"/>
<path class="st19" d="M58.2,57.6c0,0.3,0,0.6,0,1s0,0.3-0.2,0.3s-0.5,0.1-0.6-0.2c0-0.7,0-1.3,0-2c0-0.4,0.3-0.2,0.5-0.2
	s0.3,0,0.3,0.2S58.2,57.3,58.2,57.6z"/>
<path class="st21" d="M76.6,57.6c0,0.3,0,0.6,0,0.9s-0.2,0.3-0.4,0.3s-0.4,0-0.4-0.3c0-0.6,0-1.2,0-1.8c0-0.3,0.2-0.3,0.3-0.3
	s0.5-0.1,0.5,0.3S76.6,57.3,76.6,57.6L76.6,57.6z"/>
<path class="st21" d="M59.8,61.4c-0.3,0-0.6,0-0.9,0s-0.3-0.1-0.3-0.3s-0.2-0.5,0.3-0.5h1.8c0.4,0,0.2,0.3,0.2,0.4s0.1,0.4-0.2,0.4
	S60.2,61.4,59.8,61.4z"/>
<path class="st20" d="M85.7,86.7c0-0.8,0-1.5,0-2.2c0-0.3,0.2-0.2,0.4-0.2s0.4-0.1,0.4,0.2c0,0.5,0,1.1,0,1.6S86,86.4,85.7,86.7z"/>
<path class="st15" d="M65.9,57.6c0-0.3,0-0.5,0-0.8s0.2-0.6,0.6-0.4c0.1,0,0.1,0.1,0.1,0.2c0,0.7,0,1.3,0,2c0,0.4-0.3,0.3-0.5,0.3
	S66,58.7,66,58.6S65.9,58,65.9,57.6z"/>
<path class="st18" d="M59.8,60.1c-0.3,0-0.6,0-0.9,0s-0.3-0.2-0.3-0.4s-0.1-0.4,0.3-0.4c0.6,0,1.2,0,1.8,0c0.4,0,0.3,0.3,0.3,0.5
	s-0.1,0.3-0.3,0.3S60.1,60.1,59.8,60.1z"/>
<path class="st21" d="M77,57.6c0-0.3,0-0.5,0-0.8s0.1-0.3,0.3-0.2s0.6,0.3,0.5,0.8c0,0.4,0,0.8,0,1.1c0,0.2,0,0.4-0.2,0.3
	S77.1,59,77,58.6S77,57.9,77,57.6z"/>
<path class="st20" d="M67.1,57.6c0-0.2,0-0.5,0-0.7c0-0.5,0-0.5,0.5-0.5c0.2,0,0.2,0.1,0.2,0.3c0,0.6,0,1.3,0,1.9
	c0,0.2-0.1,0.3-0.3,0.3s-0.4,0-0.4-0.3S67.2,57.9,67.1,57.6L67.1,57.6z"/>
<path class="st20" d="M88.2,85.5c-0.1-1.3-0.1-1.3,1.1-1.3h0.9c0.1,0,0.2,0,0.2,0.1s-0.1,0.1-0.2,0.2L88.2,85.5z"/>
<path class="st18" d="M57,56.5c0,0.7,0,1.4,0,2.1c0,0.3-0.2,0.3-0.3,0.2s-0.5,0.1-0.5-0.2c0-0.5,0-1.1,0-1.6c0-0.1,0.1-0.3,0.2-0.3
	L57,56.5z"/>
<path class="st21" d="M54.8,61.4c-0.1,0-0.3,0-0.4,0c-0.2,0-0.5,0.2-0.6-0.1s0.4-0.7,0.7-0.7s0.7,0,1,0s0.3,0.2,0.3,0.4
	s0.1,0.4-0.3,0.4S55,61.4,54.8,61.4z"/>
<path class="st13" d="M59.7,66.8h0.5c0.8,0,0.5-0.1,0.5,0.6c0,0.2-0.1,0.2-0.2,0.2h-1.6c-0.3,0-0.2-0.3-0.2-0.4s-0.1-0.4,0.2-0.3
	L59.7,66.8z"/>
<path class="st15" d="M64.4,61.3c-0.2,0-0.4,0-0.6,0c-0.4,0-0.5-0.1-0.4-0.4s0-0.3,0.3-0.3c0.5,0,1,0,1.5,0c0.3,0,0.3,0.2,0.3,0.4
	s0.1,0.4-0.3,0.4S64.6,61.3,64.4,61.3L64.4,61.3z"/>
<path class="st13" d="M64.4,67.6c-0.2,0-0.4,0-0.6,0c-0.3,0-0.4-0.1-0.4-0.4s0-0.4,0.3-0.4c0.5,0,1,0,1.4,0s0.3,0.2,0.3,0.4
	s0,0.4-0.3,0.4C64.9,67.6,64.6,67.6,64.4,67.6z"/>
<path class="st21" d="M83.3,81.8c0.6,0,1.2,0,1.7,0c0.3,0,0.3,0.2,0.3,0.4s0.1,0.5-0.3,0.4s-0.5,0-0.7,0
	C83.5,82.6,83.5,82.6,83.3,81.8z"/>
<path class="st15" d="M64.4,60.1h-0.6c-0.4,0-0.6-0.3-0.4-0.6c0-0.1,0.1-0.1,0.2-0.1h1.6c0.3,0,0.2,0.2,0.2,0.4s0.1,0.4-0.2,0.4
	L64.4,60.1L64.4,60.1z"/>
<path class="st15" d="M59.6,68H60c0.6,0,0.6,0,0.4,0.6c0,0.1-0.1,0.2-0.3,0.2l0,0c-0.4,0-0.8,0-1.3,0c-0.2,0-0.3-0.1-0.3-0.3
	S58.4,68,58.8,68L59.6,68L59.6,68z"/>
<path class="st21" d="M86.9,85.2c0-0.2,0-0.3,0-0.5c-0.1-0.4,0.1-0.5,0.5-0.5s0.4,0.1,0.4,0.3s0,0.6,0,0.9c0,0.1,0,0.2-0.2,0.3
	S87.2,86.1,87,86s0-0.4-0.1-0.6C86.9,85.3,86.9,85.3,86.9,85.2L86.9,85.2z"/>
<path class="st19" d="M41.5,66.3c-0.8,0.1-1.6,0.1-2.4,0c-0.1,0-0.2,0-0.3-0.1c-0.1-0.2-0.1-0.5,0-0.7c0-0.1,0.2,0,0.3,0L41.5,66.3z
	"/>
<path class="st15" d="M90.1,83.8h-1.7c-0.2,0-0.2-0.2-0.2-0.3S88.1,83,88.4,83c0.4,0,0.8,0,1.2,0C90,83.1,89.9,83.5,90.1,83.8z"/>
<path class="st22" d="M79.8,61.4c-0.5,0-0.9,0-1.4,0c-0.2,0-0.3-0.1-0.2-0.3s-0.1-0.5,0.2-0.5c0.3,0,0.6,0,0.8,0
	C79.7,60.6,79.6,61,79.8,61.4z"/>
<path class="st23" d="M88.8,82.6c-0.1,0-0.2,0-0.2,0c-0.3,0-0.4-0.1-0.4-0.4s0.1-0.4,0.4-0.4s0.7,0,0.9,0.5c0.1,0.3,0.1,0.4-0.2,0.3
	C89.1,82.6,88.9,82.6,88.8,82.6z"/>
<path class="st15" d="M83.8,83c0.5,0,0.9,0,1.3,0s0.2,0.3,0.2,0.4s0.1,0.4-0.2,0.4c-0.2,0-0.5,0-0.8,0C84,83.7,84,83.3,83.8,83z"/>
<path class="st15" d="M54.4,60c0.3-0.8,0.3-0.8,0.9-0.8c0.5,0,0.6,0.2,0.5,0.7c0,0.1-0.1,0.1-0.2,0.1h-0.9
	C54.6,60.1,54.5,60.1,54.4,60z"/>
<path class="st20" d="M85.2,86l-0.8-1.7l0.1-0.1c0.8-0.1,0.8-0.1,0.8,0.7L85.2,86L85.2,86z"/>
<path class="st21" d="M74.7,60.1c-0.2,0-0.5,0.1-0.4-0.4s0.1-0.4,0.4-0.4c0.1,0,0.2,0,0.2,0c0.3,0,0.4,0,0.5,0.4s-0.2,0.4-0.5,0.4
	H74.7z"/>
<path class="st24" d="M74.9,60.6c0.2,0.1,0.5-0.2,0.5,0.3s-0.1,0.6-0.5,0.5c-0.2-0.1-0.6,0.2-0.6-0.2S74.2,60.6,74.9,60.6z"/>
<path class="st15" d="M37.2,69.9L37.2,69.9c0,0.3,0.1,0.5-0.1,0.5c-0.2,0-0.4-0.1-0.6-0.2c-0.2-0.1-0.1-0.3-0.1-0.4
	c0-0.2,0.1-0.3,0.2-0.5c0.1-0.2,0.3-0.1,0.4-0.1s0.2,0.2,0.2,0.3S37.2,69.8,37.2,69.9z"/>
<path class="st23" d="M88.2,79.7l0.8,1.6h-0.2c-0.7,0-0.7,0-0.7-0.6C88.1,80.3,88.1,80,88.2,79.7L88.2,79.7z"/>
<path class="st25" d="M77,68.4c-0.1-0.3,0.1-0.4,0.4-0.4s0.4,0,0.4,0.4s-0.1,0.5-0.4,0.5S76.9,68.7,77,68.4z"/>
<path class="st26" d="M57.8,68.8c-0.3,0.1-0.4-0.1-0.4-0.4s0.1-0.4,0.5-0.4s0.4,0.2,0.4,0.4S58.1,68.9,57.8,68.8z"/>
<path class="st27" d="M55.8,57.4c0,0.3,0,0.7,0,1s-0.1,0.6-0.5,0.5c-0.1,0-0.2,0-0.4,0L55.8,57.4L55.8,57.4z"/>
<path class="st13" d="M58.2,60.9c0.1,0.4-0.1,0.4-0.4,0.4s-0.4-0.1-0.4-0.5s0.2-0.4,0.5-0.4S58.3,60.6,58.2,60.9z"/>
<path class="st27" d="M87.3,81.8c0.4-0.1,0.4,0.1,0.4,0.4s-0.2,0.4-0.4,0.4s-0.4-0.2-0.4-0.4S87,81.7,87.3,81.8z"/>
<path class="st27" d="M76.2,67.6c-0.3,0.1-0.4-0.1-0.4-0.4s0.1-0.4,0.4-0.4s0.4,0.1,0.4,0.4S76.5,67.7,76.2,67.6z"/>
<path class="st20" d="M76.2,68c0.4-0.1,0.3,0.2,0.4,0.4s-0.1,0.4-0.4,0.4s-0.4-0.2-0.4-0.5S75.9,68,76.2,68z"/>
<path class="st21" d="M77.4,67.6c-0.3,0.1-0.5,0-0.4-0.4s0.1-0.4,0.4-0.4s0.4,0.1,0.4,0.4S77.8,67.7,77.4,67.6z"/>
<path class="st19" d="M79.3,60.1h-0.6c-0.4,0-0.6-0.3-0.5-0.7c0-0.1,0.1-0.1,0.2-0.1s0.4-0.1,0.5,0.1S79.2,59.8,79.3,60.1z"/>
<path class="st21" d="M57.8,66.8c0.3-0.1,0.5,0,0.5,0.4s-0.1,0.4-0.4,0.4s-0.4,0-0.4-0.4S57.4,66.7,57.8,66.8z"/>
<path class="st16" d="M86.5,82.2c0.1,0.4-0.1,0.4-0.4,0.4s-0.4-0.1-0.4-0.4s0.1-0.4,0.4-0.4S86.6,81.8,86.5,82.2z"/>
<path class="st28" d="M77.4,61.3c-0.3,0.1-0.4-0.1-0.4-0.4s0.2-0.4,0.4-0.4s0.4,0.1,0.4,0.4S77.7,61.4,77.4,61.3z"/>
<path class="st21" d="M57,60.9c0.1,0.4-0.1,0.4-0.4,0.4s-0.4-0.2-0.4-0.4s0.1-0.4,0.4-0.4S57,60.6,57,60.9z"/>
<path class="st28" d="M77.4,60.1c-0.3,0-0.4-0.1-0.4-0.4s0.2-0.4,0.5-0.4s0.4,0.1,0.4,0.4S77.7,60.1,77.4,60.1z"/>
<path class="st24" d="M86.1,83.8c-0.3,0.1-0.4-0.1-0.4-0.4s0.1-0.4,0.4-0.4s0.5,0,0.4,0.4S86.4,83.8,86.1,83.8z"/>
<path class="st19" d="M57,68.5c0.1,0.4-0.1,0.4-0.4,0.4s-0.4-0.2-0.4-0.4s0.1-0.4,0.4-0.4S57,68.2,57,68.5z"/>
<path class="st21" d="M57.8,60.1c-0.4,0.1-0.4-0.1-0.4-0.4s0.2-0.4,0.5-0.4s0.4,0.2,0.4,0.4S58.1,60.1,57.8,60.1z"/>
<path class="st16" d="M75.4,67.2c0.1,0.3-0.1,0.4-0.4,0.4c-0.5,0-0.3-0.3-0.4-0.6s0.2-0.2,0.4-0.3C75.3,66.7,75.4,66.9,75.4,67.2z"
	/>
<path class="st25" d="M76.2,60.6c0.3-0.1,0.3,0.1,0.4,0.4s-0.2,0.3-0.4,0.4s-0.4-0.1-0.4-0.4S76,60.6,76.2,60.6z"/>
<path class="st28" d="M76.6,59.7c0.1,0.3,0,0.4-0.4,0.4s-0.5,0-0.5-0.4s0.1-0.4,0.4-0.4S76.7,59.4,76.6,59.7z"/>
<path class="st24" d="M87.3,83c0.3-0.1,0.4,0.1,0.4,0.4s-0.1,0.4-0.4,0.4s-0.4-0.1-0.4-0.4S87,83,87.3,83z"/>
<path class="st23" d="M46.7,68.8c-0.3,0.1-0.5,0-0.4-0.4c0-0.1-0.1-0.4,0.2-0.4s0.7,0,0.7,0.5S46.9,68.9,46.7,68.8z"/>
<path class="st16" d="M66.7,59.7c0.1,0.4-0.1,0.4-0.4,0.4s-0.3-0.2-0.4-0.4s0.1-0.3,0.4-0.4S66.7,59.4,66.7,59.7z"/>
<path class="st13" d="M56.6,66.8c0.4-0.1,0.3,0.1,0.4,0.4s-0.2,0.4-0.4,0.4s-0.4-0.2-0.4-0.4S56.3,66.8,56.6,66.8z"/>
<path class="st23" d="M67.9,67.2c0.1,0.3-0.1,0.4-0.4,0.4s-0.4-0.1-0.4-0.4s0.1-0.4,0.4-0.4S68,66.9,67.9,67.2z"/>
<path class="st15" d="M66.7,67.2c0.1,0.3-0.1,0.4-0.4,0.4s-0.3-0.2-0.4-0.4s0.1-0.4,0.4-0.4S66.8,66.9,66.7,67.2z"/>
<path class="st24" d="M66.3,60.6c0.3-0.1,0.4,0.1,0.4,0.4s-0.1,0.4-0.4,0.4S66,61.2,65.9,61S66,60.5,66.3,60.6z"/>
<path class="st13" d="M57,59.7c0.1,0.3,0,0.4-0.4,0.4s-0.4-0.1-0.4-0.4s0.1-0.4,0.4-0.4S57.1,59.4,57,59.7z"/>
<path class="st29" d="M75.4,71.1c-0.2-0.5-0.4-1.1-0.5-1.7c0-0.2,0.1-0.2,0.2-0.2s0.3,0,0.3,0.2C75.4,70,75.4,70.5,75.4,71.1z"/>
<path class="st19" d="M86.2,76.2c-0.4,0.1-0.5,0-0.5-0.4s0-0.4,0.3-0.4s0.5,0.3,0.5,0.6S86.2,76.2,86.2,76.2z"/>
<path class="st28" d="M67.9,59.7c0.1,0.3-0.1,0.4-0.4,0.4s-0.4-0.1-0.4-0.4s0-0.4,0.4-0.4S68,59.4,67.9,59.7z"/>
<path class="st30" d="M65.4,56.4h-6.7c0.1-0.1,0.3-0.1,0.4-0.1h6C65.2,56.4,65.3,56.3,65.4,56.4z"/>
<path class="st25" d="M67.9,60.9c0.1,0.4-0.1,0.4-0.4,0.4s-0.3-0.1-0.4-0.4s0.2-0.4,0.4-0.4S68,60.7,67.9,60.9z"/>
<path class="st31" d="M75.4,68.4c0,0.2,0,0.4-0.3,0.4c-0.5,0-0.3-0.4-0.3-0.7s0.2-0.2,0.3-0.2C75.4,67.9,75.4,68.2,75.4,68.4z"/>
<path class="st32" d="M78.2,69.9c0,0.5,0,1,0,1.5c0,0.1-0.1,0.3,0.1,0.4v1.8c-0.2-1.2-0.2-2.3-0.2-3.5C78.2,70,78.2,70,78.2,69.9z"
	/>
<path class="st33" d="M78.3,58l0.3,0.7c0,0.1,0.1,0.2-0.1,0.2s-0.3,0-0.3-0.2S78.3,58.2,78.3,58L78.3,58z"/>
<path class="st24" d="M47.9,68.9c-0.1-0.1-0.4,0.1-0.4-0.2c0-0.1,0-0.2,0.1-0.2s0.6,0.1,0.6,0.3S48,68.8,47.9,68.9z"/>
<path class="st34" d="M85.7,74.4c0.2,0.2,0.2,0.4,0.3,0.5s0.1,0.2-0.1,0.2s-0.2,0-0.2-0.2S85.7,74.6,85.7,74.4z"/>
<path class="st24" d="M57,74.2c-0.1,0.1-0.3,0.2-0.5,0.2c-0.1,0-0.2,0.1-0.2-0.1s0.1-0.2,0.2-0.2L57,74.2L57,74.2z"/>
<path class="st26" d="M55.6,74.3c0.1,0,0.1,0.1,0.1,0.2s-0.1,0.2-0.2,0.2s-0.1-0.1-0.1-0.2S55.5,74.3,55.6,74.3z"/>
<path class="st35" d="M37,68.5c0.1,0.1,0.2,0.2,0.1,0.3c0,0-0.1,0-0.2,0C36.8,68.7,37,68.6,37,68.5z"/>
<path class="st36" d="M48,74.3c0.2-0.1,0.3-0.1,0.4,0.1C48.2,74.5,48.1,74.4,48,74.3z"/>
<circle class="st0" cx="86.9" cy="512.7" r="75.3"/>
<path d="M114.9,534.4c0-4.7-3.9-8.6-8.6-8.6s-8.6,3.9-8.6,8.6c0,4.7,3.8,8.6,8.6,8.6C111,543,114.9,539.1,114.9,534.4L114.9,534.4z
	 M102.9,534.4c0-1.9,1.5-3.4,3.4-3.4s3.4,1.5,3.4,3.4s-1.5,3.4-3.4,3.4l0,0C104.4,537.7,102.9,536.2,102.9,534.4L102.9,534.4z"/>
<path d="M50.8,479.8v5.2h9.9l8.9,37.1h44.3l7.5-30.7H67.6l-2.8-11.6L50.8,479.8z M114.7,496.6l-5,20.2h-36l-4.8-20.2L114.7,496.6
	L114.7,496.6z"/>
<path d="M75.1,543c4.7,0,8.6-3.9,8.6-8.6c0-4.7-3.9-8.6-8.6-8.6s-8.6,3.8-8.6,8.6C66.5,539.1,70.3,543,75.1,543L75.1,543z M75.1,531
	c1.9,0,3.4,1.5,3.4,3.4s-1.5,3.4-3.4,3.4s-3.4-1.5-3.4-3.4S73.2,531,75.1,531L75.1,531L75.1,531z"/>
<rect x="39" y="499.8" width="20.3" height="5.2"/>
<rect x="45.9" y="508.5" width="16" height="5.2"/>
<rect x="39.8" y="517.2" width="24.6" height="5.2"/>
<text transform="matrix(1 0 0 1 222.7001 56.5)" class="st37"><tspan x="0" y="0" class="st38 st39 st40">Member </tspan><tspan x="0" y="20" class="st38 st39 st40">Farmer </tspan></text>
<g class="st41">
	<path class="st38" d="M172.5,64v11.6h7.1V62.7c0-1.7,0.4-3.4,1.2-4.9c-0.6-0.2-1.2-0.3-1.8-0.3C175.4,57.5,172.5,60.4,172.5,64z"/>
	<path class="st38" d="M166.4,64.3v8.2h4.6V64c0-1.4,0.4-2.8,1.1-4c-0.4-0.1-0.8-0.2-1.2-0.2C168.4,59.8,166.4,61.8,166.4,64.3z"/>
	<path class="st38" d="M190.4,53.3c-5.2,0-9.4,4.2-9.4,9.4v16.6h18.8V62.7C199.8,57.6,195.6,53.4,190.4,53.3z"/>
	<path class="st38" d="M201.9,57.5c-0.6,0-1.2,0.1-1.8,0.3c0.8,1.5,1.2,3.2,1.2,4.9v12.9h7.1V64C208.3,60.4,205.4,57.5,201.9,57.5z"
		/>
	<path class="st38" d="M209.9,59.8c-0.4,0-0.9,0.1-1.3,0.2c0.7,1.2,1.1,2.6,1.1,4v8.5h4.6v-8.2C214.4,61.8,212.4,59.8,209.9,59.8z"
		/>
	<path class="st38" d="M170.9,58.3c1.5,0,2.7-1.2,2.7-2.7s-1.2-2.7-2.7-2.7s-2.7,1.2-2.7,2.7S169.4,58.3,170.9,58.3L170.9,58.3z"/>
	<path class="st38" d="M201.9,56c2.2,0,4-1.8,4-4s-1.8-4-4-4s-4,1.8-4,4C197.9,54.2,199.7,56,201.9,56z"/>
	<path class="st38" d="M190.4,51.8c3.3,0,6-2.7,6-6s-2.7-6-6-6s-6,2.7-6,6S187.1,51.8,190.4,51.8L190.4,51.8z"/>
	<path class="st38" d="M178.9,56c2.2,0,4-1.8,4-4s-1.8-4-4-4s-4,1.8-4,4C174.9,54.2,176.7,56,178.9,56z"/>
	<path class="st38" d="M209.9,58.3c1.5,0,2.7-1.2,2.7-2.7s-1.2-2.7-2.7-2.7s-2.7,1.2-2.7,2.7S208.4,58.3,209.9,58.3L209.9,58.3z"/>
</g>
<text transform="matrix(1 0 0 1 220.84 558.3236)" class="st38 st39 st40">End consumer</text>
<path class="st42" d="M171.3,573.3c0-1.3,1-2.4,2.3-2.4l0,0h2v-14c0.4,0.1,0.8,0.2,1.2,0.2h0.5c1,0,2.1-0.2,3.1-0.6v14.4H206v-14.4
	c1,0.4,2,0.6,3.1,0.6h0.6c0.4,0,0.8-0.1,1.2-0.2v14h2c1.3,0.1,2.4,1.2,2.3,2.6c-0.1,1.2-1,2.2-2.3,2.3h-39.2
	C172.3,575.7,171.3,574.6,171.3,573.3z M183.2,566.8v1.1c0,0.3,0.2,0.5,0.5,0.5h19.1c0.3,0,0.5-0.2,0.5-0.5v-1.1
	c0-1.4-0.8-2.6-2.1-3.1c1-0.7,1.3-2.1,0.6-3.2s-2.1-1.3-3.2-0.6c-1,0.7-1.3,2.1-0.6,3.2c0.2,0.2,0.4,0.4,0.6,0.6
	c-0.5,0.2-0.9,0.5-1.2,0.9c-0.5-1.1-1.3-2-2.5-2.5c1.4-1,1.8-2.9,0.8-4.3c-1-1.4-2.9-1.8-4.3-0.8s-1.8,2.9-0.8,4.3
	c0.2,0.3,0.5,0.6,0.8,0.8c-1.1,0.5-2,1.4-2.5,2.5c-0.3-0.4-0.8-0.7-1.2-0.9c1-0.7,1.3-2.1,0.6-3.2s-2.1-1.3-3.2-0.6
	c-1,0.7-1.3,2.1-0.6,3.2c0.2,0.2,0.4,0.4,0.6,0.6C184,564.2,183.1,565.4,183.2,566.8L183.2,566.8z M209,554.4h0.4c3.1-0.3,5.3-3,5-6
	c-0.1-0.6-0.2-1.2-0.5-1.8l-5.5-12.3c-0.5-1.1-1.6-1.8-2.8-1.8h-25c-1.2,0-2.3,0.7-2.8,1.8l-5.5,12.2c-1.3,2.8-0.1,6.1,2.7,7.4
	c0.6,0.3,1.2,0.4,1.8,0.5h0.4c2.3,0,4.3-1.3,5.3-3.4c1.4,2.9,4.8,4.2,7.8,2.8c1.2-0.6,2.2-1.5,2.8-2.7c1.4,2.9,4.9,4.1,7.8,2.7
	c1.2-0.6,2.2-1.6,2.7-2.8C204.7,553.1,206.7,554.4,209,554.4L209,554.4z"/>
<text transform="matrix(1 0 0 1 176.6502 288.9118)" class="st37"><tspan x="0" y="0" class="st38 st39 st40">Processing &amp; </tspan><tspan x="0" y="20" class="st38 st39 st40">cold storage</tspan></text>
<text transform="matrix(1 0 0 1 23.1485 415.1995)" class="st38 st39 st40">Product Delivery</text>
<text transform="matrix(1 0 0 1 36.28 190.9601)" class="st38 st39 st40">Milk Collection</text>
<g class="st43">
	<path class="st44" d="M242.9,199.5c-3,1.7-5.2,4.6-6.1,7.9h-12.6c-0.9,0-1.5-0.7-1.5-1.5V201c0-0.9,0.7-1.5,1.5-1.5H242.9z"/>
	<path d="M281,146.2c1.9,0,3.4,1.1,3.4,2.1v41.9c0,1-1.5,2.1-3.4,2.1h-49.9c-1.9,0-3.4-1.1-3.4-2.1v-18.1l0.2-25.2l34.2-0.7
		L281,146.2 M281,141.2h-18.9l-34.9,0.8c-2.4,0.1-4.2,1.7-4.3,3.6l-0.2,26.5v18.1c0,3.9,3.8,7.1,8.4,7.1H281c4.6,0,8.4-3.2,8.4-7.1
		v-41.9C289.4,144.4,285.6,141.2,281,141.2L281,141.2z"/>
	<path d="M254.6,156.1h0.3c7.6,0.1,13.7,6.2,14,13.8c0.1,3.7-1.4,7.3-4,10c-2.7,2.8-6.4,4.3-10.3,4.3h-0.3
		c-7.6-0.1-13.7-6.2-14-13.8c-0.1-3.7,1.4-7.3,4-10C247,157.6,250.7,156.1,254.6,156.1 M254.6,183.9h0.3c7.4-0.2,13.4-6.1,13.7-13.5
		c0.1-3.7-1.3-7.2-3.9-9.8c-2.6-2.7-6.2-4.2-10-4.2h-0.3c-7.4,0.2-13.4,6.1-13.7,13.5c-0.1,3.7,1.3,7.2,3.9,9.8
		S250.8,183.8,254.6,183.9 M254.6,155.1c-8.3-0.1-15.1,6.6-15.2,14.9c-0.1,8.3,6.6,15.1,14.9,15.2l0,0h0.3
		c8.3,0.1,15.1-6.6,15.2-14.9c0.1-8.3-6.6-15.1-14.9-15.2H254.6z M254.6,182.8c-7,0.3-12.9-5.2-13.2-12.3c-0.3-7,5.2-12.9,12.3-13.2
		c0.2,0,0.4,0,0.7,0h0.2c7-0.3,12.9,5.2,13.2,12.3c0.3,7-5.2,12.9-12.3,13.2c-0.2,0-0.4,0-0.7,0H254.6z"/>
	<line class="st45" x1="254.5" y1="159.6" x2="254.5" y2="175.6"/>
	<line class="st46" x1="251.1" y1="169.9" x2="263.5" y2="174.5"/>
	<path class="st44" d="M323.9,143.6c-1.2-1.7-3.2-2.7-5.3-2.7h-24v58.6h-39.2c3,1.7,5.2,4.6,6.1,7.9h45.2c1.7-6.8,8.7-10.9,15.5-9.2
		c4.5,1.2,8,4.7,9.2,9.2h8.7c1.8,0,3.2-1.4,3.2-3.2l0,0v-32.9c0-0.8-0.3-1.6-0.7-2.3L323.9,143.6z"/>
	<path class="st44" d="M249.1,200.7c-5.5,0-9.9,4.4-9.9,9.9s4.4,9.9,9.9,9.9s9.9-4.4,9.9-9.9C259.1,205.1,254.6,200.7,249.1,200.7
		L249.1,200.7z M249.1,217.8c-3.9,0-7.1-3.2-7.1-7.1c0-3.9,3.2-7.1,7.1-7.1c3.9,0,7.1,3.2,7.1,7.1l0,0
		C256.2,214.6,253.1,217.8,249.1,217.8L249.1,217.8z"/>
	<circle class="st44" cx="319" cy="210.6" r="9.9"/>
	<circle class="st47" cx="319" cy="210.6" r="4.8"/>
	<circle class="st47" cx="319" cy="210.6" r="7.1"/>
	<path class="st48" d="M316,148.6h-17.7v17h34.6L321.2,151C319.9,149.4,318,148.6,316,148.6z"/>
</g>
<g class="st43">
	<circle class="st0" cx="289.2" cy="400.1" r="75.3"/>
	<path class="st44" d="M247.1,428.2c-1.2,1.3-2,2.9-2.6,4.5c-0.2,0.6-0.8,1-1.4,1l-11.6,0.2c-0.9,0-1.6-0.7-1.6-1.5l-0.1-4.9
		c0-0.9,0.7-1.6,1.5-1.6l14.6-0.3c0.8,0,1.5,0.6,1.5,1.5C247.5,427.6,247.4,428,247.1,428.2z"/>
	<path d="M285.1,370.2l0.8,38.5l-43.5,0.9l-0.3-16.4l-0.3-21.5L285.1,370.2 M286.3,361.2h-0.2l-49.6,1.8c-2.1,0-3.8,1.7-3.9,3.8
		l0.3,26.7l0.4,18.3c0.1,3.9,3.5,7,7.7,7h0.2l46-1c4.3-0.1,7.7-3.4,7.6-7.3l-0.9-42.3C293.9,364.3,290.5,361.2,286.3,361.2z"/>
	<path class="st49" d="M274.7,381.9c-0.1-1-0.5-1.9-1.2-2.6c-0.1-0.1-0.2-0.1-0.3-0.1l-6.5,2.1c-0.4,0.1-0.7,0.1-1.1,0
		c-2-0.8-4.2-1.2-6.3-1.1c-5.8,0.1-10.5,3-10.4,6.5l0.1,6.6c0.1,3.5,4.8,6.1,10.7,6c1.4,0,2.8-0.2,4.1-0.6l0,0c0,0,0,0,0.1,0
		s0,0,0.1,0l0,0c0,0,0,0,0-0.1s0,0,0-0.1v-0.1l-0.1-6.6v-0.1l0,0c0,0,0,0,0-0.1l0,0l0,0l0.5-0.2c0.6-0.3,1.3-0.1,1.7,0.4l2.6,2.8
		l0,0c0,0.1,0.1,0.1,0.2,0.1h0.1c3.7-1.1,6-3.4,5.9-5.8l-0.1-6.7V382C274.7,382.1,274.8,382.1,274.7,381.9
		C274.8,382,274.7,382,274.7,381.9z M274.1,382.2c0,1.8-1.6,3.6-4.3,4.8c-0.6,0.3-1.3,0.1-1.7-0.4l-2-2.1c-0.6-0.6-0.5-1.6,0.1-2.1
		c0.2-0.1,0.3-0.3,0.5-0.3l5.2-1.7c0.8-0.3,1.6,0.1,1.9,0.9C274,381.5,274.1,381.9,274.1,382.2L274.1,382.2z M259.3,380.8
		c2-0.1,4.1,0.3,6,1l-1.4,0.5l0,0c0,0-0.1,0-0.1,0.1l0,0l-0.1,0.1l0,0c0,0,0,0,0,0.1v0.7c0,0.6-0.4,1.2-0.9,1.4l-3.5,1.5
		c-0.1,0-0.2,0.1-0.2,0.2s0,0.2,0.1,0.3l2.3,3c0.6,0.6,0.5,1.6-0.1,2.1c-0.3,0.3-0.7,0.4-1.1,0.4h-0.9c-5.5,0.1-10-2.3-10-5.4
		S253.8,381,259.3,380.8L259.3,380.8z M249.7,393.4v-1c0-0.8,0.6-1.5,1.5-1.5c0.3,0,0.6,0.1,0.8,0.2c2.3,1.3,5,1.9,7.6,1.8
		c0.7,0,1.4-0.1,2-0.1c0.8-0.1,1.6,0.5,1.7,1.3c0,0.1,0,0.1,0,0.2l0.1,3c0,0.8-0.5,1.4-1.3,1.5s-1.6,0.2-2.4,0.2
		C254.2,398.9,249.7,396.4,249.7,393.4z M263.5,391.2L263.5,391.2l-2.3-3c-0.5-0.7-0.4-1.6,0.3-2.1c0.1-0.1,0.2-0.1,0.3-0.2l0,0
		c0.8-0.3,1.7,0,2,0.8c0.1,0.2,0.1,0.4,0.1,0.6v1.6l0.4,1l0.6,0.7L263.5,391.2z M265.9,390.6l-1-1.1c-0.2-0.3-0.4-0.6-0.4-1l-0.1-4
		l0,0v-1.1l3.7,4c0.3,0.3,0.4,0.6,0.4,1v1.1c0,0.8-0.7,1.5-1.6,1.4C266.5,391.1,266.1,390.9,265.9,390.6L265.9,390.6z M274.3,388.9
		c0,1.5-1,3-2.8,4c-0.7,0.4-1.7,0.2-2.1-0.5c-0.1-0.2-0.2-0.5-0.2-0.8l-0.1-2.7c0-0.6,0.4-1.2,0.9-1.4c0.7-0.3,1.3-0.6,1.9-1
		c0.7-0.5,1.6-0.3,2.1,0.4c0.2,0.2,0.2,0.5,0.2,0.8L274.3,388.9z"/>
	
		<ellipse transform="matrix(0.9998 -2.059318e-02 2.059318e-02 0.9998 -7.9442 5.5541)" class="st50" cx="265.7" cy="388.5" rx="0.5" ry="0.9"/>
	
		<ellipse transform="matrix(0.9998 -2.059318e-02 2.059318e-02 0.9998 -7.9365 5.7023)" class="st50" cx="272.9" cy="388.2" rx="0.5" ry="0.9"/>
	
		<ellipse transform="matrix(0.9998 -2.059318e-02 2.059318e-02 0.9998 -7.9843 5.6636)" class="st50" cx="271" cy="390.5" rx="0.8" ry="1.4"/>
	
		<ellipse transform="matrix(0.9998 -2.059318e-02 2.059318e-02 0.9998 -7.9439 5.587)" class="st50" cx="267.3" cy="388.5" rx="0.3" ry="0.5"/>
	
		<ellipse transform="matrix(0.9998 -2.059318e-02 2.059318e-02 0.9998 -8.0999 5.4341)" class="st50" cx="259.8" cy="396" rx="0.9" ry="1.3"/>
	
		<ellipse transform="matrix(0.9998 -2.059318e-02 2.059318e-02 0.9998 -8.0944 5.3682)" class="st50" cx="256.6" cy="395.7" rx="0.6" ry="0.8"/>
	
		<ellipse transform="matrix(0.9998 -2.059318e-02 2.059318e-02 0.9998 -8.064 5.3164)" class="st50" cx="254.1" cy="394.2" rx="0.9" ry="1.3"/>
	
		<ellipse transform="matrix(0.9998 -2.059318e-02 2.059318e-02 0.9998 -8.0892 5.2754)" class="st50" cx="252.1" cy="395.4" rx="0.3" ry="0.5"/>
	
		<ellipse transform="matrix(0.9998 -1.999600e-02 1.999600e-02 0.9998 -7.8182 5.1037)" class="st50" cx="251.3" cy="393.5" rx="0.6" ry="0.9"/>
	<path class="st44" d="M329.2,365.4c-0.3-0.4-0.8-0.6-1.2-0.6l-25.3,0.5c-0.8,0-1.5,0.7-1.5,1.5l0,0l1.2,56.1c0,0.8-0.6,1.5-1.5,1.5
		l0,0l-33.7,0.7c-0.8,0-1.5,0.7-1.4,1.6c0,0.4,0.2,0.7,0.4,1c1.2,1.3,2.1,2.8,2.8,4.4c0.2,0.6,0.8,1,1.4,1l32.3-0.7l11.1-0.2
		c0.6,0,1.2-0.4,1.4-1c2.2-6.8,9.4-10.5,16.2-8.3c3.8,1.2,6.8,4.1,8.1,7.8c0.2,0.6,0.8,1,1.4,1l9.3-0.2c0.8,0,1.5-0.7,1.5-1.5l0,0
		l-0.8-35.8c0-0.3-0.1-0.6-0.3-0.9L329.2,365.4z"/>
	<path class="st44" d="M263.8,429.1c-10.8-7.6-22.4,4.5-14.4,14.9c0.1,0.1,0.2,0.3,0.4,0.4c10.8,7.6,22.4-4.5,14.3-14.9
		C264,429.3,263.9,429.2,263.8,429.1z M261.9,442.1c-7.5,5.7-16-2.6-10.7-10.3c0.1-0.1,0.2-0.3,0.4-0.4c7.5-5.7,16,2.6,10.7,10.3
		C262.2,441.8,262.1,441.9,261.9,442.1L261.9,442.1z"/>
	
		<ellipse transform="matrix(0.9998 -2.059318e-02 2.059318e-02 0.9998 -8.8949 6.8305)" class="st44" cx="327.2" cy="435.3" rx="10" ry="10"/>
	
		<ellipse transform="matrix(0.9998 -2.059318e-02 2.059318e-02 0.9998 -8.8949 6.8305)" class="st47" cx="327.2" cy="435.3" rx="4.8" ry="4.8"/>
	
		<ellipse transform="matrix(0.9998 -2.059318e-02 2.059318e-02 0.9998 -8.8949 6.8305)" class="st47" cx="327.2" cy="435.3" rx="7.2" ry="7.2"/>
	<path class="st48" d="M323.7,370.7h-16.2c-0.8,0-1.5,0.7-1.5,1.5l0,0v14c0,0.8,0.7,1.5,1.5,1.5l0,0h29.9c0.8,0,1.5-0.7,1.5-1.5
		c0-0.3-0.1-0.7-0.3-1l-9.7-12.2C327.6,371.6,325.7,370.7,323.7,370.7z"/>
</g>
<path class="st5" d="M216.6,224.8c-23.4,9.5-42,28-51.7,51.3l-2.5,5.9l-3-5c-3.8-6.3-8.5-12.1-13.9-17l-4.5-4.1l6.1-1.8
	c25.9-7.7,47.2-26.2,58.6-50.7L216.6,224.8z"/>
<path class="st5" d="M211.1,376.4c-14.1-22.7-37.4-38.2-63.8-42.5l11.8-29.6l3.2,5.6c12.7,22.2,33.6,38.5,58.3,45.3L211.1,376.4z"/>
<path class="st5" d="M222.6,447.8c-23.4,9.5-42,28-51.7,51.3l-2.5,5.9l-3-5c-3.8-6.3-8.5-12.1-13.9-17l-4.5-4.1l6.1-1.8
	c25.9-7.7,47.2-26.2,58.6-50.7L222.6,447.8z"/>
</svg>
